P3
# Created by IrfanView
40 35
255
0 0 0 0 0 0 0 0 0 0 0 0 0 0 0 
0 0 0 0 0 0 0 0 0 0 0 0 0 0 0 
0 0 0 0 0 0 0 0 0 0 0 0 0 0 0 
0 0 0 0 0 0 0 0 0 0 0 0 0 0 0 
0 0 0 0 0 0 0 0 0 0 0 0 0 0 0 
0 0 0 0 0 0 0 0 0 0 0 0 0 0 0 
0 0 0 0 0 0 0 0 0 0 0 0 0 0 0 
0 0 0 0 0 0 0 0 0 0 0 0 0 0 0 
0 0 0 0 0 0 0 0 0 0 0 0 0 0 0 
0 0 0 0 0 0 0 0 0 0 0 0 0 0 0 
0 0 0 0 0 0 0 0 0 0 0 0 0 0 0 
0 0 0 0 0 0 0 0 0 0 0 0 0 0 0 
0 0 0 0 0 0 0 0 0 0 0 0 0 0 0 
0 0 0 0 0 0 0 0 0 0 0 0 0 0 0 
0 0 0 0 0 0 0 0 0 0 0 0 0 0 0 
0 0 0 0 0 0 0 0 0 0 0 0 0 0 0 
0 0 0 0 0 0 0 0 0 0 0 0 0 0 0 
0 0 0 0 0 0 0 0 0 0 0 0 0 0 0 
0 0 0 0 0 0 0 0 0 0 0 0 0 0 0 
0 0 0 0 0 0 0 0 0 0 0 0 0 0 0 
0 0 0 0 0 0 0 0 0 0 0 0 0 0 0 
0 0 0 0 0 0 0 0 0 0 0 0 0 0 0 
0 0 0 0 0 0 0 0 0 0 0 0 0 0 0 
0 0 0 0 0 0 0 0 0 0 0 0 0 0 0 
0 0 0 0 0 0 0 0 0 0 0 0 0 0 0 
0 0 0 0 0 0 0 0 0 0 0 0 0 0 0 
0 0 0 0 0 0 0 0 0 0 0 0 0 0 0 
0 0 0 0 0 0 0 0 0 0 0 0 0 0 0 
0 0 0 0 0 0 0 0 0 0 0 0 0 0 0 
0 0 0 0 0 0 0 0 0 0 0 0 0 0 0 
0 0 0 0 0 0 0 0 0 0 0 0 0 0 0 
0 0 0 0 0 0 0 0 0 0 0 0 0 0 0 
60 79 82 10 13 14 0 0 0 0 0 0 0 0 0 
0 0 0 0 0 0 0 0 0 0 0 0 0 0 0 
0 0 0 0 0 0 0 0 0 0 0 0 0 0 0 
0 0 0 0 0 0 0 0 0 0 0 0 3 5 5 
24 32 33 0 0 0 0 0 0 0 0 0 0 0 0 
0 0 0 0 0 0 0 0 0 0 0 0 0 0 0 
0 0 0 0 0 0 0 0 0 0 0 0 0 0 0 
0 0 0 0 0 0 0 0 0 0 0 0 0 0 0 
125 165 172 154 204 212 72 95 99 3 4 4 0 0 0 
0 0 0 0 0 0 0 0 0 0 0 0 0 0 0 
0 0 0 0 0 0 0 0 0 0 0 0 0 0 0 
0 0 0 0 0 0 0 0 0 0 0 0 9 12 12 
163 216 225 94 124 129 11 15 16 0 0 0 0 0 0 
0 0 0 0 0 0 0 0 0 0 0 0 0 0 0 
0 0 0 0 0 0 0 0 0 0 0 0 0 0 0 
0 0 0 0 0 0 0 0 0 0 0 0 0 0 0 
125 165 172 167 221 230 167 221 230 142 188 195 51 68 71 
0 0 0 0 0 0 0 0 0 0 0 0 0 0 0 
0 0 0 0 0 0 0 0 0 0 0 0 0 0 0 
0 0 0 0 0 0 0 0 0 0 0 0 9 12 12 
167 221 230 167 221 230 155 206 214 74 97 101 3 5 5 
0 0 0 0 0 0 0 0 0 0 0 0 0 0 0 
0 0 0 0 0 0 0 0 0 0 0 0 0 0 0 
0 0 0 0 0 0 0 0 0 0 0 0 0 0 0 
125 165 172 167 221 230 167 221 230 167 221 230 167 221 230 
125 166 173 32 43 45 0 0 0 0 0 0 0 0 0 
0 0 0 0 0 0 0 0 0 0 0 0 0 0 0 
0 0 0 0 0 0 0 0 0 0 0 0 9 12 12 
167 221 230 167 221 230 167 221 230 167 221 230 143 189 197 
53 71 73 0 0 0 0 0 0 0 0 0 0 0 0 
0 0 0 0 0 0 0 0 0 0 0 0 0 0 0 
0 0 0 0 0 0 0 0 0 0 0 0 0 0 0 
125 165 172 167 221 230 167 221 230 167 221 230 167 221 230 
167 221 230 166 220 229 105 139 145 18 24 25 0 0 0 
0 0 0 0 0 0 0 0 0 0 0 0 0 0 0 
0 0 0 0 0 0 0 0 0 0 0 0 9 12 12 
167 221 230 167 221 230 167 221 230 167 221 230 167 221 230 
167 221 230 127 168 174 34 45 46 0 0 0 0 0 0 
0 0 0 0 0 0 0 0 0 0 0 0 0 0 0 
0 0 0 0 0 0 0 0 0 0 0 0 0 0 0 
125 165 172 167 221 230 167 221 230 167 221 230 167 221 230 
167 221 230 167 221 230 167 221 230 161 213 221 85 113 118 
7 10 10 0 0 0 0 0 0 0 0 0 0 0 0 
0 0 0 0 0 0 0 0 0 0 0 0 9 12 12 
167 221 230 167 221 230 167 221 230 167 221 230 167 221 230 
167 221 230 167 221 230 166 220 229 106 141 147 18 25 26 
0 0 0 0 0 0 0 0 0 0 0 0 0 0 0 
0 0 0 0 0 0 0 0 0 0 0 0 0 0 0 
125 165 172 167 221 230 167 221 230 167 221 230 167 221 230 
167 221 230 167 221 230 167 221 230 167 221 230 167 221 230 
151 200 208 65 86 90 1 1 1 0 0 0 0 0 0 
0 0 0 0 0 0 0 0 0 0 0 0 9 12 12 
167 221 230 167 221 230 167 221 230 167 221 230 167 221 230 
167 221 230 167 221 230 167 221 230 167 221 230 161 213 221 
86 114 119 8 11 11 0 0 0 0 0 0 0 0 0 
0 0 0 0 0 0 0 0 0 0 0 0 0 0 0 
125 165 172 167 221 230 167 221 230 167 221 230 167 221 230 
167 221 230 167 221 230 167 221 230 167 221 230 167 221 230 
167 221 230 167 221 230 137 182 189 45 59 62 0 0 0 
0 0 0 0 0 0 0 0 0 0 0 0 9 12 12 
167 221 230 167 221 230 167 221 230 167 221 230 167 221 230 
167 221 230 167 221 230 167 221 230 167 221 230 167 221 230 
167 221 230 151 201 209 66 87 91 1 2 2 0 0 0 
0 0 0 0 0 0 0 0 0 0 0 0 0 0 0 
125 165 172 167 221 230 167 221 230 167 221 230 167 221 230 
167 221 230 167 221 230 167 221 230 167 221 230 167 221 230 
167 221 230 167 221 230 167 221 230 167 221 230 119 157 164 
27 36 37 0 0 0 0 0 0 0 0 0 9 12 12 
167 221 230 167 221 230 167 221 230 167 221 230 167 221 230 
167 221 230 167 221 230 167 221 230 167 221 230 167 221 230 
167 221 230 167 221 230 167 221 230 138 182 190 45 60 63 
0 0 0 0 0 0 0 0 0 0 0 0 0 0 0 
125 165 172 167 221 230 167 221 230 167 221 230 167 221 230 
167 221 230 167 221 230 167 221 230 167 221 230 167 221 230 
167 221 230 167 221 230 167 221 230 167 221 230 167 221 230 
165 218 227 98 130 136 14 19 19 0 0 0 9 12 12 
167 221 230 167 221 230 167 221 230 167 221 230 167 221 230 
167 221 230 167 221 230 167 221 230 167 221 230 167 221 230 
167 221 230 167 221 230 167 221 230 167 221 230 167 221 230 
119 158 165 28 37 38 0 0 0 0 0 0 0 0 0 
125 165 172 167 221 230 167 221 230 167 221 230 167 221 230 
167 221 230 167 221 230 167 221 230 167 221 230 167 221 230 
167 221 230 167 221 230 167 221 230 167 221 230 167 221 230 
167 221 230 167 221 230 158 209 218 79 104 109 14 19 19 
167 221 230 167 221 230 167 221 230 167 221 230 167 221 230 
167 221 230 167 221 230 167 221 230 167 221 230 167 221 230 
167 221 230 167 221 230 167 221 230 167 221 230 167 221 230 
167 221 230 165 218 227 99 131 137 14 19 19 0 0 0 
125 165 172 167 221 230 167 221 230 167 221 230 167 221 230 
167 221 230 167 221 230 167 221 230 167 221 230 167 221 230 
167 221 230 167 221 230 167 221 230 167 221 230 167 221 230 
167 221 230 167 221 230 167 221 230 167 221 230 142 188 196 
167 221 230 167 221 230 167 221 230 167 221 230 167 221 230 
167 221 230 167 221 230 167 221 230 167 221 230 167 221 230 
167 221 230 167 221 230 167 221 230 167 221 230 167 221 230 
167 221 230 167 221 230 167 221 230 158 209 218 73 97 101 
125 165 172 167 221 230 167 221 230 167 221 230 167 221 230 
167 221 230 167 221 230 167 221 230 167 221 230 167 221 230 
167 221 230 167 221 230 167 221 230 167 221 230 167 221 230 
167 221 230 167 221 230 165 218 227 98 130 136 22 30 31 
167 221 230 167 221 230 167 221 230 167 221 230 167 221 230 
167 221 230 167 221 230 167 221 230 167 221 230 167 221 230 
167 221 230 167 221 230 167 221 230 167 221 230 167 221 230 
167 221 230 167 221 230 167 221 230 110 146 152 20 26 27 
125 165 172 167 221 230 167 221 230 167 221 230 167 221 230 
167 221 230 167 221 230 167 221 230 167 221 230 167 221 230 
167 221 230 167 221 230 167 221 230 167 221 230 167 221 230 
167 221 230 121 160 166 28 37 38 0 0 0 9 12 12 
167 221 230 167 221 230 167 221 230 167 221 230 167 221 230 
167 221 230 167 221 230 167 221 230 167 221 230 167 221 230 
167 221 230 167 221 230 167 221 230 167 221 230 167 221 230 
167 221 230 132 175 182 37 50 52 0 0 0 0 0 0 
125 165 172 167 221 230 167 221 230 167 221 230 167 221 230 
167 221 230 167 221 230 167 221 230 167 221 230 167 221 230 
167 221 230 167 221 230 167 221 230 167 221 230 140 186 193 
48 64 66 0 0 0 0 0 0 0 0 0 9 12 12 
167 221 230 167 221 230 167 221 230 167 221 230 167 221 230 
167 221 230 167 221 230 167 221 230 167 221 230 167 221 230 
167 221 230 167 221 230 167 221 230 167 221 230 148 196 204 
60 80 83 0 0 0 0 0 0 0 0 0 0 0 0 
125 165 172 167 221 230 167 221 230 167 221 230 167 221 230 
167 221 230 167 221 230 167 221 230 167 221 230 167 221 230 
167 221 230 167 221 230 154 204 212 71 94 98 2 3 3 
0 0 0 0 0 0 0 0 0 0 0 0 9 12 12 
167 221 230 167 221 230 167 221 230 167 221 230 167 221 230 
167 221 230 167 221 230 167 221 230 167 221 230 167 221 230 
167 221 230 167 221 230 160 212 221 83 110 114 6 8 9 
0 0 0 0 0 0 0 0 0 0 0 0 0 0 0 
125 165 172 167 221 230 167 221 230 167 221 230 167 221 230 
167 221 230 167 221 230 167 221 230 167 221 230 167 221 230 
163 216 225 93 123 128 11 14 15 0 0 0 0 0 0 
0 0 0 0 0 0 0 0 0 0 0 0 9 12 12 
167 221 230 167 221 230 167 221 230 167 221 230 167 221 230 
167 221 230 167 221 230 167 221 230 167 221 230 167 221 230 
166 220 229 106 140 146 17 23 24 0 0 0 0 0 0 
0 0 0 0 0 0 0 0 0 0 0 0 0 0 0 
125 165 172 167 221 230 167 221 230 167 221 230 167 221 230 
167 221 230 167 221 230 167 221 230 167 221 230 115 153 159 
24 32 34 0 0 0 0 0 0 0 0 0 0 0 0 
0 0 0 0 0 0 0 0 0 0 0 0 9 12 12 
167 221 230 167 221 230 167 221 230 167 221 230 167 221 230 
167 221 230 167 221 230 167 221 230 167 221 230 128 169 176 
34 45 47 0 0 0 0 0 0 0 0 0 0 0 0 
0 0 0 0 0 0 0 0 0 0 0 0 0 0 0 
125 165 172 167 221 230 167 221 230 167 221 230 167 221 230 
167 221 230 167 221 230 136 181 188 43 58 60 0 0 0 
0 0 0 0 0 0 0 0 0 0 0 0 0 0 0 
0 0 0 0 0 0 0 0 0 0 0 0 9 12 12 
167 221 230 167 221 230 167 221 230 167 221 230 167 221 230 
167 221 230 167 221 230 146 193 201 56 74 77 0 0 0 
0 0 0 0 0 0 0 0 0 0 0 0 0 0 0 
0 0 0 0 0 0 0 0 0 0 0 0 0 0 0 
125 165 172 167 221 230 167 221 230 167 221 230 167 221 230 
151 201 209 66 87 91 1 1 1 0 0 0 0 0 0 
0 0 0 0 0 0 0 0 0 0 0 0 0 0 0 
0 0 0 0 0 0 0 0 0 0 0 0 9 12 12 
167 221 230 167 221 230 167 221 230 167 221 230 167 221 230 
158 209 218 79 104 109 4 6 6 0 0 0 0 0 0 
0 0 0 0 0 0 0 0 0 0 0 0 0 0 0 
0 0 0 0 0 0 0 0 0 0 0 0 0 0 0 
125 165 172 167 221 230 167 221 230 162 214 223 88 117 121 
8 11 11 0 0 0 0 0 0 0 0 0 0 0 0 
0 0 0 0 0 0 0 0 0 0 0 0 0 0 0 
0 0 0 0 0 0 0 0 0 0 0 0 9 12 12 
167 221 230 167 221 230 167 221 230 165 219 228 101 134 139 
15 19 20 0 0 0 0 0 0 0 0 0 0 0 0 
0 0 0 0 0 0 0 0 0 0 0 0 0 0 0 
0 0 0 0 0 0 0 0 0 0 0 0 0 0 0 
125 165 172 167 221 230 111 147 153 20 27 28 0 0 0 
0 0 0 0 0 0 0 0 0 0 0 0 0 0 0 
0 0 0 0 0 0 0 0 0 0 0 0 0 0 0 
0 0 0 0 0 0 0 0 0 0 0 0 9 12 12 
167 221 230 167 221 230 124 164 171 30 40 42 0 0 0 
0 0 0 0 0 0 0 0 0 0 0 0 0 0 0 
0 0 0 0 0 0 0 0 0 0 0 0 0 0 0 
0 0 0 0 0 0 0 0 0 0 0 0 0 0 0 
91 120 125 39 52 54 0 0 0 0 0 0 0 0 0 
0 0 0 0 0 0 0 0 0 0 0 0 0 0 0 
0 0 0 0 0 0 0 0 0 0 0 0 0 0 0 
0 0 0 0 0 0 0 0 0 0 0 0 9 12 12 
142 188 196 51 68 71 0 0 0 0 0 0 0 0 0 
0 0 0 0 0 0 0 0 0 0 0 0 0 0 0 
0 0 0 0 0 0 0 0 0 0 0 0 0 0 0 
0 0 0 0 0 0 0 0 0 0 0 0 0 0 0 
0 0 0 0 0 0 0 0 0 0 0 0 0 0 0 
0 0 0 0 0 0 0 0 0 0 0 0 0 0 0 
0 0 0 0 0 0 0 0 0 0 0 0 0 0 0 
0 0 0 0 0 0 0 0 0 0 0 0 1 1 1 
3 4 4 0 0 0 0 0 0 0 0 0 0 0 0 
0 0 0 0 0 0 0 0 0 0 0 0 0 0 0 
0 0 0 0 0 0 0 0 0 0 0 0 0 0 0 
0 0 0 0 0 0 0 0 0 0 0 0 0 0 0 
0 0 0 0 0 0 0 0 0 0 0 0 0 0 0 
0 0 0 0 0 0 0 0 0 0 0 0 0 0 0 
0 0 0 0 0 0 0 0 0 0 0 0 0 0 0 
0 0 0 0 0 0 0 0 0 0 0 0 0 0 0 
0 0 0 0 0 0 0 0 0 0 0 0 0 0 0 
0 0 0 0 0 0 0 0 0 0 0 0 0 0 0 
0 0 0 0 0 0 0 0 0 0 0 0 0 0 0 
0 0 0 0 0 0 0 0 0 0 0 0 0 0 0 
0 0 0 0 0 0 0 0 0 0 0 0 0 0 0 
0 0 0 0 0 0 0 0 0 0 0 0 0 0 0 
0 0 0 0 0 0 0 0 0 0 0 0 0 0 0 
0 0 0 0 0 0 0 0 0 0 0 0 0 0 0 
0 0 0 0 0 0 0 0 0 0 0 0 0 0 0 
0 0 0 0 0 0 0 0 0 0 0 0 0 0 0 
0 0 0 0 0 0 0 0 0 0 0 0 0 0 0 
0 0 0 0 0 0 0 0 0 0 0 0 0 0 0 
0 0 0 0 0 0 0 0 0 0 0 0 0 0 0 
0 0 0 0 0 0 0 0 0 0 0 0 0 0 0 
0 0 0 0 0 0 0 0 0 0 0 0 0 0 0 
0 0 0 0 0 0 0 0 0 0 0 0 0 0 0 
0 0 0 0 0 0 0 0 0 0 0 0 0 0 0 
0 0 0 0 0 0 0 0 0 0 0 0 0 0 0 
0 0 0 0 0 0 0 0 0 0 0 0 0 0 0 
0 0 0 0 0 0 0 0 0 0 0 0 0 0 0 
0 0 0 0 0 0 0 0 0 0 0 0 0 0 0 
0 0 0 0 0 0 0 0 0 0 0 0 0 0 0 
0 0 0 0 0 0 0 0 0 0 0 0 0 0 0 
0 0 0 0 0 0 0 0 0 0 0 0 0 0 0 
0 0 0 0 0 0 0 0 0 0 0 0 0 0 0 
0 0 0 0 0 0 0 0 0 0 0 0 0 0 0 
0 0 0 0 0 0 0 0 0 0 0 0 0 0 0 
0 0 0 0 0 0 0 0 0 0 0 0 0 0 0 
0 0 0 0 0 0 0 0 0 0 0 0 0 0 0 
0 0 0 0 0 0 0 0 0 0 0 0 0 0 0 
0 0 0 0 0 0 0 0 0 0 0 0 0 0 0 
0 0 0 0 0 0 0 0 0 0 0 0 0 0 0 
0 0 0 0 0 0 0 0 0 0 0 0 0 0 0 
0 0 0 0 0 0 0 0 0 0 0 0 0 0 0 
0 0 0 0 0 0 0 0 0 0 0 0 0 0 0 
0 0 0 0 0 0 0 0 0 0 0 0 0 0 0 
0 0 0 0 0 0 0 0 0 0 0 0 0 0 0 
0 0 0 0 0 0 0 0 0 0 0 0 0 0 0 
0 0 0 0 0 0 0 0 0 0 0 0 0 0 0 
0 0 0 0 0 0 0 0 0 0 0 0 0 0 0 
0 0 0 0 0 0 0 0 0 0 0 0 0 0 0 
0 0 0 0 0 0 0 0 0 0 0 0 0 0 0 
0 0 0 0 0 0 0 0 0 0 0 0 0 0 0 
0 0 0 0 0 0 0 0 0 0 0 0 0 0 0 
0 0 0 0 0 0 0 0 0 0 0 0 0 0 0 
0 0 0 0 0 0 0 0 0 0 0 0 0 0 0 
0 0 0 0 0 0 0 0 0 0 0 0 0 0 0 
0 0 0 0 0 0 0 0 0 0 0 0 0 0 0 
0 0 0 0 0 0 0 0 0 0 0 0 0 0 0 
0 0 0 0 0 0 0 0 0 0 0 0 0 0 0 
0 0 0 0 0 0 0 0 0 0 0 0 0 0 0 
0 0 0 0 0 0 0 0 0 0 0 0 0 0 0 
