P3
# Created by IrfanView
40 40
255
255 255 255 255 255 255 255 255 255 255 255 255 255 255 255 
255 255 255 255 255 255 255 255 255 255 255 255 255 255 255 
255 255 255 255 255 255 255 255 255 255 255 255 255 255 255 
255 255 255 255 255 255 255 255 255 255 255 255 255 255 255 
255 255 255 255 255 255 255 255 255 255 255 255 255 255 255 
255 255 255 255 255 255 255 255 255 255 255 255 255 255 255 
255 255 255 255 255 255 255 255 255 255 255 255 255 255 255 
255 255 255 255 255 255 255 255 255 255 255 255 255 255 255 
255 255 255 255 255 255 255 255 255 255 255 255 255 255 255 
255 255 255 255 255 255 255 255 255 255 255 255 255 255 255 
255 255 255 255 255 255 255 255 255 255 255 255 255 255 255 
255 255 255 255 255 255 255 255 255 255 255 255 255 255 255 
255 255 255 255 255 255 255 255 255 255 255 255 255 255 255 
255 255 255 255 255 255 255 255 255 255 255 255 255 255 255 
255 255 255 255 255 255 255 255 255 255 255 255 255 255 255 
255 255 255 255 255 255 255 255 255 255 255 255 255 255 255 
255 255 255 255 255 255 132 132 132 70 70 70 77 77 77 
77 77 77 77 77 77 77 77 77 77 77 77 77 77 77 
77 77 77 77 77 77 77 77 77 77 77 77 77 77 77 
77 77 77 77 77 77 77 77 77 77 77 77 77 77 77 
77 77 77 77 77 77 77 77 77 77 77 77 77 77 77 
77 77 77 77 77 77 77 77 77 77 77 77 77 77 77 
77 77 77 77 77 77 77 77 77 77 77 77 77 77 77 
77 77 77 70 70 70 132 132 132 255 255 255 255 255 255 
255 255 255 255 255 255 70 70 70 0 0 0 0 0 0 
0 0 0 0 0 0 0 0 0 0 0 0 0 0 0 
0 0 0 0 0 0 0 0 0 0 0 0 0 0 0 
0 0 0 0 0 0 0 0 0 0 0 0 0 0 0 
0 0 0 0 0 0 0 0 0 0 0 0 0 0 0 
0 0 0 0 0 0 0 0 0 0 0 0 0 0 0 
0 0 0 0 0 0 0 0 0 0 0 0 0 0 0 
0 0 0 0 0 0 70 70 70 255 255 255 255 255 255 
255 255 255 255 255 255 78 78 78 0 0 0 0 0 0 
0 0 0 0 0 0 0 0 0 0 0 0 0 0 0 
0 0 0 0 0 0 0 0 0 0 0 0 0 0 0 
0 0 0 0 0 0 0 0 0 0 0 0 0 0 0 
0 0 0 0 0 0 0 0 0 0 0 0 0 0 0 
0 0 0 0 0 0 0 0 0 0 0 0 0 0 0 
0 0 0 0 0 0 0 0 0 0 0 0 0 0 0 
0 0 0 0 0 0 78 78 78 255 255 255 255 255 255 
255 255 255 255 255 255 78 78 78 0 0 0 0 0 0 
0 0 0 0 0 0 0 0 0 0 0 0 0 0 0 
0 0 0 0 0 0 0 0 0 0 0 0 0 0 0 
0 0 0 0 0 0 0 0 0 0 0 0 0 0 0 
0 0 0 0 0 0 0 0 0 0 0 0 0 0 0 
0 0 0 0 0 0 0 0 0 0 0 0 0 0 0 
0 0 0 0 0 0 0 0 0 0 0 0 0 0 0 
0 0 0 0 0 0 78 78 78 255 255 255 255 255 255 
255 255 255 255 255 255 78 78 78 0 0 0 0 0 0 
0 0 0 0 0 0 0 0 0 0 0 0 0 0 0 
0 0 0 0 0 0 0 0 0 0 0 0 0 0 0 
0 0 0 0 0 0 0 0 0 0 0 0 0 0 0 
0 0 0 0 0 0 0 0 0 0 0 0 0 0 0 
0 0 0 0 0 0 0 0 0 0 0 0 0 0 0 
0 0 0 0 0 0 0 0 0 0 0 0 0 0 0 
0 0 0 0 0 0 78 78 78 255 255 255 255 255 255 
255 255 255 255 255 255 78 78 78 0 0 0 0 0 0 
0 0 0 0 0 0 0 0 0 0 0 0 0 0 0 
0 0 0 0 0 0 0 0 0 0 0 0 0 0 0 
0 0 0 0 0 0 0 0 0 0 0 0 0 0 0 
0 0 0 0 0 0 0 0 0 0 0 0 0 0 0 
0 0 0 0 0 0 0 0 0 0 0 0 0 0 0 
0 0 0 0 0 0 0 0 0 0 0 0 0 0 0 
0 0 0 0 0 0 78 78 78 255 255 255 255 255 255 
255 255 255 255 255 255 78 78 78 0 0 0 0 0 0 
0 0 0 0 0 0 0 0 0 0 0 0 0 0 0 
0 0 0 0 0 0 0 0 0 0 0 0 0 0 0 
0 0 0 0 0 0 0 0 0 0 0 0 0 0 0 
0 0 0 0 0 0 0 0 0 0 0 0 0 0 0 
0 0 0 0 0 0 0 0 0 0 0 0 0 0 0 
0 0 0 0 0 0 0 0 0 0 0 0 0 0 0 
0 0 0 0 0 0 78 78 78 255 255 255 255 255 255 
255 255 255 255 255 255 78 78 78 0 0 0 0 0 0 
0 0 0 0 0 0 0 0 0 0 0 0 0 0 0 
0 0 0 0 0 0 0 0 0 0 0 0 0 0 0 
0 0 0 0 0 0 0 0 0 0 0 0 0 0 0 
48 48 48 27 27 27 0 0 0 0 0 0 0 0 0 
0 0 0 0 0 0 0 0 0 0 0 0 0 0 0 
86 86 86 0 0 0 0 0 0 0 0 0 0 0 0 
0 0 0 0 0 0 78 78 78 255 255 255 255 255 255 
255 255 255 255 255 255 78 78 78 0 0 0 0 0 0 
0 0 0 0 0 0 0 0 0 0 0 0 0 0 0 
0 0 0 0 0 0 0 0 0 0 0 0 0 0 0 
0 0 0 0 0 0 0 0 0 0 0 0 134 134 134 
255 255 255 26 26 26 0 0 0 0 0 0 0 0 0 
0 0 0 0 0 0 0 0 0 35 35 35 255 255 255 
168 168 168 0 0 0 0 0 0 0 0 0 0 0 0 
0 0 0 0 0 0 78 78 78 255 255 255 255 255 255 
255 255 255 255 255 255 78 78 78 0 0 0 0 0 0 
0 0 0 0 0 0 0 0 0 0 0 0 0 0 0 
0 0 0 0 0 0 0 0 0 0 0 0 0 0 0 
0 0 0 0 0 0 14 14 14 237 237 237 255 255 255 
255 255 255 23 23 23 0 0 0 0 0 0 0 0 0 
0 0 0 0 0 0 138 138 138 255 255 255 255 255 255 
154 154 154 0 0 0 0 0 0 0 0 0 0 0 0 
0 0 0 0 0 0 78 78 78 255 255 255 255 255 255 
255 255 255 255 255 255 78 78 78 0 0 0 0 0 0 
0 0 0 0 0 0 0 0 0 0 0 0 0 0 0 
0 0 0 0 0 0 0 0 0 0 0 0 0 0 0 
0 0 0 117 117 117 255 255 255 255 255 255 255 255 255 
255 255 255 23 23 23 0 0 0 0 0 0 0 0 0 
10 10 10 239 239 239 255 255 255 255 255 255 255 255 255 
154 154 154 0 0 0 0 0 0 0 0 0 0 0 0 
0 0 0 0 0 0 78 78 78 255 255 255 255 255 255 
255 255 255 255 255 255 78 78 78 0 0 0 0 0 0 
0 0 0 0 0 0 0 0 0 0 0 0 0 0 0 
0 0 0 0 0 0 0 0 0 0 0 0 4 4 4 
226 226 226 255 255 255 255 255 255 255 255 255 255 255 255 
255 255 255 23 23 23 0 0 0 0 0 0 104 104 104 
255 255 255 255 255 255 255 255 255 250 250 250 255 255 255 
154 154 154 0 0 0 0 0 0 0 0 0 0 0 0 
0 0 0 0 0 0 78 78 78 255 255 255 255 255 255 
255 255 255 255 255 255 78 78 78 0 0 0 0 0 0 
0 0 0 0 0 0 0 0 0 0 0 0 0 0 0 
0 0 0 0 0 0 0 0 0 99 99 99 255 255 255 
255 255 255 255 255 255 187 187 187 12 12 12 255 255 255 
255 255 255 8 8 8 0 0 0 209 209 209 255 255 255 
255 255 255 255 255 255 42 42 42 193 193 193 255 255 255 
154 154 154 0 0 0 0 0 0 0 0 0 0 0 0 
0 0 0 0 0 0 78 78 78 255 255 255 255 255 255 
255 255 255 255 255 255 78 78 78 0 0 0 0 0 0 
0 0 0 0 0 0 0 0 0 0 0 0 0 0 0 
0 0 0 0 0 0 213 213 213 255 255 255 255 255 255 
255 255 255 79 79 79 0 0 0 20 20 20 255 255 255 
255 255 255 95 95 95 255 255 255 255 255 255 255 255 255 
206 206 206 0 0 0 0 0 0 209 209 209 255 255 255 
154 154 154 0 0 0 0 0 0 0 0 0 0 0 0 
0 0 0 0 0 0 78 78 78 255 255 255 255 255 255 
255 255 255 255 255 255 78 78 78 0 0 0 0 0 0 
0 0 0 0 0 0 0 0 0 0 0 0 0 0 0 
84 84 84 255 255 255 255 255 255 255 255 255 207 207 207 
0 0 0 0 0 0 0 0 0 23 23 23 255 255 255 
255 255 255 255 255 255 255 255 255 255 255 255 100 100 100 
0 0 0 0 0 0 0 0 0 209 209 209 255 255 255 
154 154 154 0 0 0 0 0 0 0 0 0 0 0 0 
0 0 0 0 0 0 78 78 78 255 255 255 255 255 255 
255 255 255 255 255 255 78 78 78 0 0 0 0 0 0 
0 0 0 0 0 0 0 0 0 0 0 0 199 199 199 
255 255 255 255 255 255 255 255 255 96 96 96 0 0 0 
0 0 0 0 0 0 0 0 0 23 23 23 255 255 255 
255 255 255 255 255 255 230 230 230 5 5 5 0 0 0 
0 0 0 0 0 0 0 0 0 209 209 209 255 255 255 
154 154 154 0 0 0 0 0 0 0 0 0 0 0 0 
0 0 0 0 0 0 78 78 78 255 255 255 255 255 255 
255 255 255 255 255 255 78 78 78 0 0 0 0 0 0 
0 0 0 0 0 0 69 69 69 255 255 255 255 255 255 
255 255 255 222 222 222 0 0 0 0 0 0 0 0 0 
0 0 0 0 0 0 0 0 0 23 23 23 255 255 255 
255 255 255 138 138 138 0 0 0 0 0 0 0 0 0 
0 0 0 0 0 0 0 0 0 209 209 209 255 255 255 
154 154 154 0 0 0 0 0 0 0 0 0 0 0 0 
0 0 0 0 0 0 78 78 78 255 255 255 255 255 255 
255 255 255 255 255 255 78 78 78 0 0 0 0 0 0 
6 6 6 192 192 192 255 255 255 255 255 255 255 255 255 
96 96 96 0 0 0 0 0 0 0 0 0 0 0 0 
0 0 0 0 0 0 0 0 0 23 23 23 255 255 255 
255 255 255 11 11 11 0 0 0 0 0 0 0 0 0 
0 0 0 0 0 0 0 0 0 209 209 209 255 255 255 
154 154 154 0 0 0 0 0 0 0 0 0 0 0 0 
0 0 0 0 0 0 78 78 78 255 255 255 255 255 255 
255 255 255 255 255 255 78 78 78 0 0 0 0 0 0 
6 6 6 192 192 192 255 255 255 255 255 255 255 255 255 
96 96 96 0 0 0 0 0 0 0 0 0 0 0 0 
0 0 0 0 0 0 0 0 0 23 23 23 255 255 255 
255 255 255 11 11 11 0 0 0 0 0 0 0 0 0 
0 0 0 0 0 0 0 0 0 209 209 209 255 255 255 
154 154 154 0 0 0 0 0 0 0 0 0 0 0 0 
0 0 0 0 0 0 78 78 78 255 255 255 255 255 255 
255 255 255 255 255 255 78 78 78 0 0 0 0 0 0 
0 0 0 0 0 0 68 68 68 255 255 255 255 255 255 
255 255 255 222 222 222 0 0 0 0 0 0 0 0 0 
0 0 0 0 0 0 0 0 0 23 23 23 255 255 255 
255 255 255 138 138 138 0 0 0 0 0 0 0 0 0 
0 0 0 0 0 0 0 0 0 209 209 209 255 255 255 
154 154 154 0 0 0 0 0 0 0 0 0 0 0 0 
0 0 0 0 0 0 78 78 78 255 255 255 255 255 255 
255 255 255 255 255 255 78 78 78 0 0 0 0 0 0 
0 0 0 0 0 0 0 0 0 0 0 0 199 199 199 
255 255 255 255 255 255 255 255 255 96 96 96 0 0 0 
0 0 0 0 0 0 0 0 0 23 23 23 255 255 255 
255 255 255 255 255 255 230 230 230 5 5 5 0 0 0 
0 0 0 0 0 0 0 0 0 209 209 209 255 255 255 
154 154 154 0 0 0 0 0 0 0 0 0 0 0 0 
0 0 0 0 0 0 78 78 78 255 255 255 255 255 255 
255 255 255 255 255 255 78 78 78 0 0 0 0 0 0 
0 0 0 0 0 0 0 0 0 0 0 0 0 0 0 
84 84 84 255 255 255 255 255 255 255 255 255 207 207 207 
0 0 0 0 0 0 0 0 0 23 23 23 255 255 255 
255 255 255 255 255 255 255 255 255 255 255 255 100 100 100 
0 0 0 0 0 0 0 0 0 209 209 209 255 255 255 
154 154 154 0 0 0 0 0 0 0 0 0 0 0 0 
0 0 0 0 0 0 78 78 78 255 255 255 255 255 255 
255 255 255 255 255 255 78 78 78 0 0 0 0 0 0 
0 0 0 0 0 0 0 0 0 0 0 0 0 0 0 
0 0 0 0 0 0 213 213 213 255 255 255 255 255 255 
255 255 255 79 79 79 0 0 0 20 20 20 255 255 255 
255 255 255 95 95 95 255 255 255 255 255 255 255 255 255 
206 206 206 0 0 0 0 0 0 209 209 209 255 255 255 
154 154 154 0 0 0 0 0 0 0 0 0 0 0 0 
0 0 0 0 0 0 78 78 78 255 255 255 255 255 255 
255 255 255 255 255 255 78 78 78 0 0 0 0 0 0 
0 0 0 0 0 0 0 0 0 0 0 0 0 0 0 
0 0 0 0 0 0 0 0 0 99 99 99 255 255 255 
255 255 255 255 255 255 187 187 187 13 13 13 255 255 255 
255 255 255 8 8 8 0 0 0 209 209 209 255 255 255 
255 255 255 255 255 255 42 42 42 193 193 193 255 255 255 
154 154 154 0 0 0 0 0 0 0 0 0 0 0 0 
0 0 0 0 0 0 78 78 78 255 255 255 255 255 255 
255 255 255 255 255 255 78 78 78 0 0 0 0 0 0 
0 0 0 0 0 0 0 0 0 0 0 0 0 0 0 
0 0 0 0 0 0 0 0 0 0 0 0 4 4 4 
226 226 226 255 255 255 255 255 255 255 255 255 255 255 255 
255 255 255 23 23 23 0 0 0 0 0 0 104 104 104 
255 255 255 255 255 255 255 255 255 250 250 250 255 255 255 
154 154 154 0 0 0 0 0 0 0 0 0 0 0 0 
0 0 0 0 0 0 78 78 78 255 255 255 255 255 255 
255 255 255 255 255 255 78 78 78 0 0 0 0 0 0 
0 0 0 0 0 0 0 0 0 0 0 0 0 0 0 
0 0 0 0 0 0 0 0 0 0 0 0 0 0 0 
0 0 0 116 116 116 255 255 255 255 255 255 255 255 255 
255 255 255 23 23 23 0 0 0 0 0 0 0 0 0 
10 10 10 239 239 239 255 255 255 255 255 255 255 255 255 
154 154 154 0 0 0 0 0 0 0 0 0 0 0 0 
0 0 0 0 0 0 78 78 78 255 255 255 255 255 255 
255 255 255 255 255 255 78 78 78 0 0 0 0 0 0 
0 0 0 0 0 0 0 0 0 0 0 0 0 0 0 
0 0 0 0 0 0 0 0 0 0 0 0 0 0 0 
0 0 0 0 0 0 14 14 14 236 236 236 255 255 255 
255 255 255 23 23 23 0 0 0 0 0 0 0 0 0 
0 0 0 0 0 0 138 138 138 255 255 255 255 255 255 
154 154 154 0 0 0 0 0 0 0 0 0 0 0 0 
0 0 0 0 0 0 78 78 78 255 255 255 255 255 255 
255 255 255 255 255 255 78 78 78 0 0 0 0 0 0 
0 0 0 0 0 0 0 0 0 0 0 0 0 0 0 
0 0 0 0 0 0 0 0 0 0 0 0 0 0 0 
0 0 0 0 0 0 0 0 0 0 0 0 134 134 134 
255 255 255 26 26 26 0 0 0 0 0 0 0 0 0 
0 0 0 0 0 0 0 0 0 35 35 35 255 255 255 
168 168 168 0 0 0 0 0 0 0 0 0 0 0 0 
0 0 0 0 0 0 78 78 78 255 255 255 255 255 255 
255 255 255 255 255 255 78 78 78 0 0 0 0 0 0 
0 0 0 0 0 0 0 0 0 0 0 0 0 0 0 
0 0 0 0 0 0 0 0 0 0 0 0 0 0 0 
0 0 0 0 0 0 0 0 0 0 0 0 0 0 0 
48 48 48 27 27 27 0 0 0 0 0 0 0 0 0 
0 0 0 0 0 0 0 0 0 0 0 0 0 0 0 
86 86 86 0 0 0 0 0 0 0 0 0 0 0 0 
0 0 0 0 0 0 78 78 78 255 255 255 255 255 255 
255 255 255 255 255 255 78 78 78 0 0 0 0 0 0 
0 0 0 0 0 0 0 0 0 0 0 0 0 0 0 
0 0 0 0 0 0 0 0 0 0 0 0 0 0 0 
0 0 0 0 0 0 0 0 0 0 0 0 0 0 0 
0 0 0 0 0 0 0 0 0 0 0 0 0 0 0 
0 0 0 0 0 0 0 0 0 0 0 0 0 0 0 
0 0 0 0 0 0 0 0 0 0 0 0 0 0 0 
0 0 0 0 0 0 78 78 78 255 255 255 255 255 255 
255 255 255 255 255 255 78 78 78 0 0 0 0 0 0 
0 0 0 0 0 0 0 0 0 0 0 0 0 0 0 
0 0 0 0 0 0 0 0 0 0 0 0 0 0 0 
0 0 0 0 0 0 0 0 0 0 0 0 0 0 0 
0 0 0 0 0 0 0 0 0 0 0 0 0 0 0 
0 0 0 0 0 0 0 0 0 0 0 0 0 0 0 
0 0 0 0 0 0 0 0 0 0 0 0 0 0 0 
0 0 0 0 0 0 78 78 78 255 255 255 255 255 255 
255 255 255 255 255 255 78 78 78 0 0 0 0 0 0 
0 0 0 0 0 0 0 0 0 0 0 0 0 0 0 
0 0 0 0 0 0 0 0 0 0 0 0 0 0 0 
0 0 0 0 0 0 0 0 0 0 0 0 0 0 0 
0 0 0 0 0 0 0 0 0 0 0 0 0 0 0 
0 0 0 0 0 0 0 0 0 0 0 0 0 0 0 
0 0 0 0 0 0 0 0 0 0 0 0 0 0 0 
0 0 0 0 0 0 78 78 78 255 255 255 255 255 255 
255 255 255 255 255 255 78 78 78 0 0 0 0 0 0 
0 0 0 0 0 0 0 0 0 0 0 0 0 0 0 
0 0 0 0 0 0 0 0 0 0 0 0 0 0 0 
0 0 0 0 0 0 0 0 0 0 0 0 0 0 0 
0 0 0 0 0 0 0 0 0 0 0 0 0 0 0 
0 0 0 0 0 0 0 0 0 0 0 0 0 0 0 
0 0 0 0 0 0 0 0 0 0 0 0 0 0 0 
0 0 0 0 0 0 78 78 78 255 255 255 255 255 255 
255 255 255 255 255 255 78 78 78 0 0 0 0 0 0 
0 0 0 0 0 0 0 0 0 0 0 0 0 0 0 
0 0 0 0 0 0 0 0 0 0 0 0 0 0 0 
0 0 0 0 0 0 0 0 0 0 0 0 0 0 0 
0 0 0 0 0 0 0 0 0 0 0 0 0 0 0 
0 0 0 0 0 0 0 0 0 0 0 0 0 0 0 
0 0 0 0 0 0 0 0 0 0 0 0 0 0 0 
0 0 0 0 0 0 78 78 78 255 255 255 255 255 255 
255 255 255 255 255 255 70 70 70 0 0 0 0 0 0 
0 0 0 0 0 0 0 0 0 0 0 0 0 0 0 
0 0 0 0 0 0 0 0 0 0 0 0 0 0 0 
0 0 0 0 0 0 0 0 0 0 0 0 0 0 0 
0 0 0 0 0 0 0 0 0 0 0 0 0 0 0 
0 0 0 0 0 0 0 0 0 0 0 0 0 0 0 
0 0 0 0 0 0 0 0 0 0 0 0 0 0 0 
0 0 0 0 0 0 70 70 70 255 255 255 255 255 255 
255 255 255 255 255 255 132 132 132 70 70 70 77 77 77 
77 77 77 77 77 77 77 77 77 77 77 77 77 77 77 
77 77 77 77 77 77 77 77 77 77 77 77 77 77 77 
77 77 77 77 77 77 77 77 77 77 77 77 77 77 77 
77 77 77 77 77 77 77 77 77 77 77 77 77 77 77 
77 77 77 77 77 77 77 77 77 77 77 77 77 77 77 
77 77 77 77 77 77 77 77 77 77 77 77 77 77 77 
77 77 77 70 70 70 132 132 132 255 255 255 255 255 255 
255 255 255 255 255 255 255 255 255 255 255 255 255 255 255 
255 255 255 255 255 255 255 255 255 255 255 255 255 255 255 
255 255 255 255 255 255 255 255 255 255 255 255 255 255 255 
255 255 255 255 255 255 255 255 255 255 255 255 255 255 255 
255 255 255 255 255 255 255 255 255 255 255 255 255 255 255 
255 255 255 255 255 255 255 255 255 255 255 255 255 255 255 
255 255 255 255 255 255 255 255 255 255 255 255 255 255 255 
255 255 255 255 255 255 255 255 255 255 255 255 255 255 255 
255 255 255 255 255 255 255 255 255 255 255 255 255 255 255 
255 255 255 255 255 255 255 255 255 255 255 255 255 255 255 
255 255 255 255 255 255 255 255 255 255 255 255 255 255 255 
255 255 255 255 255 255 255 255 255 255 255 255 255 255 255 
255 255 255 255 255 255 255 255 255 255 255 255 255 255 255 
255 255 255 255 255 255 255 255 255 255 255 255 255 255 255 
255 255 255 255 255 255 255 255 255 255 255 255 255 255 255 
255 255 255 255 255 255 255 255 255 255 255 255 255 255 255 
