P3
# Created by IrfanView
40 40
255
255 255 255 255 255 255 255 255 255 255 255 255 255 255 255 
255 255 255 255 255 255 255 255 255 255 255 255 255 255 255 
255 255 255 255 255 255 255 255 255 255 255 255 255 255 255 
255 255 255 255 255 255 255 255 255 255 255 255 255 255 255 
255 255 255 255 255 255 255 255 255 255 255 255 255 255 255 
255 255 255 255 255 255 255 255 255 255 255 255 255 255 255 
255 255 255 255 255 255 255 255 255 255 255 255 255 255 255 
255 255 255 255 255 255 255 255 255 255 255 255 255 255 255 
255 255 255 255 255 255 255 255 255 255 255 255 255 255 255 
255 255 255 255 255 255 255 255 255 255 255 255 255 255 255 
255 255 255 255 255 255 255 255 255 255 255 255 255 255 255 
255 255 255 255 255 255 255 255 255 255 255 255 255 255 255 
255 255 255 255 255 255 255 255 255 255 255 255 255 255 255 
255 255 255 255 255 255 255 255 255 255 255 255 255 255 255 
255 255 255 255 255 255 255 255 255 255 255 255 255 255 255 
255 255 255 255 255 255 255 255 255 255 255 255 255 255 255 
255 255 255 255 255 255 132 132 132 70 70 70 77 77 77 
77 77 77 77 77 77 77 77 77 77 77 77 77 77 77 
77 77 77 77 77 77 77 77 77 77 77 77 77 77 77 
77 77 77 77 77 77 77 77 77 77 77 77 77 77 77 
77 77 77 77 77 77 77 77 77 77 77 77 77 77 77 
77 77 77 77 77 77 77 77 77 77 77 77 77 77 77 
77 77 77 77 77 77 77 77 77 77 77 77 77 77 77 
77 77 77 70 70 70 132 132 132 255 255 255 255 255 255 
255 255 255 255 255 255 70 70 70 0 0 0 0 0 0 
0 0 0 0 0 0 0 0 0 0 0 0 0 0 0 
0 0 0 0 0 0 0 0 0 0 0 0 0 0 0 
0 0 0 0 0 0 0 0 0 0 0 0 0 0 0 
0 0 0 0 0 0 0 0 0 0 0 0 0 0 0 
0 0 0 0 0 0 0 0 0 0 0 0 0 0 0 
0 0 0 0 0 0 0 0 0 0 0 0 0 0 0 
0 0 0 0 0 0 70 70 70 255 255 255 255 255 255 
255 255 255 255 255 255 78 78 78 0 0 0 0 0 0 
0 0 0 0 0 0 0 0 0 0 0 0 0 0 0 
0 0 0 0 0 0 0 0 0 0 0 0 0 0 0 
0 0 0 0 0 0 0 0 0 0 0 0 0 0 0 
0 0 0 0 0 0 0 0 0 0 0 0 0 0 0 
0 0 0 0 0 0 0 0 0 0 0 0 0 0 0 
0 0 0 0 0 0 0 0 0 0 0 0 0 0 0 
0 0 0 0 0 0 78 78 78 255 255 255 255 255 255 
255 255 255 255 255 255 78 78 78 0 0 0 0 0 0 
0 0 0 0 0 0 0 0 0 0 0 0 0 0 0 
0 0 0 0 0 0 0 0 0 0 0 0 0 0 0 
0 0 0 0 0 0 0 0 0 0 0 0 0 0 0 
0 0 0 0 0 0 0 0 0 0 0 0 0 0 0 
0 0 0 0 0 0 0 0 0 0 0 0 0 0 0 
0 0 0 0 0 0 0 0 0 0 0 0 0 0 0 
0 0 0 0 0 0 78 78 78 255 255 255 255 255 255 
255 255 255 255 255 255 78 78 78 0 0 0 0 0 0 
0 0 0 0 0 0 0 0 0 0 0 0 0 0 0 
0 0 0 0 0 0 0 0 0 0 0 0 0 0 0 
0 0 0 0 0 0 0 0 0 0 0 0 0 0 0 
0 0 0 0 0 0 0 0 0 0 0 0 0 0 0 
0 0 0 0 0 0 0 0 0 0 0 0 0 0 0 
0 0 0 0 0 0 0 0 0 0 0 0 0 0 0 
0 0 0 0 0 0 78 78 78 255 255 255 255 255 255 
255 255 255 255 255 255 78 78 78 0 0 0 0 0 0 
0 0 0 0 0 0 0 0 0 0 0 0 0 0 0 
0 0 0 0 0 0 0 0 0 0 0 0 0 0 0 
0 0 0 0 0 0 0 0 0 0 0 0 0 0 0 
0 0 0 0 0 0 0 0 0 0 0 0 0 0 0 
0 0 0 0 0 0 0 0 0 0 0 0 0 0 0 
0 0 0 0 0 0 0 0 0 0 0 0 0 0 0 
0 0 0 0 0 0 78 78 78 255 255 255 255 255 255 
255 255 255 255 255 255 78 78 78 0 0 0 0 0 0 
0 0 0 0 0 0 0 0 0 0 0 0 0 0 0 
0 0 0 0 0 0 0 0 0 0 0 0 0 0 0 
0 0 0 0 0 0 0 0 0 0 0 0 0 0 0 
0 0 0 0 0 0 0 0 0 0 0 0 0 0 0 
0 0 0 0 0 0 0 0 0 0 0 0 0 0 0 
0 0 0 0 0 0 0 0 0 0 0 0 0 0 0 
0 0 0 0 0 0 78 78 78 255 255 255 255 255 255 
255 255 255 255 255 255 78 78 78 0 0 0 0 0 0 
0 0 0 0 0 0 0 0 0 0 0 0 86 86 86 
0 0 0 0 0 0 0 0 0 0 0 0 0 0 0 
0 0 0 0 0 0 0 0 0 27 27 27 48 48 48 
0 0 0 0 0 0 0 0 0 0 0 0 0 0 0 
0 0 0 0 0 0 0 0 0 0 0 0 0 0 0 
0 0 0 0 0 0 0 0 0 0 0 0 0 0 0 
0 0 0 0 0 0 78 78 78 255 255 255 255 255 255 
255 255 255 255 255 255 78 78 78 0 0 0 0 0 0 
0 0 0 0 0 0 0 0 0 0 0 0 168 168 168 
255 255 255 35 35 35 0 0 0 0 0 0 0 0 0 
0 0 0 0 0 0 0 0 0 26 26 26 255 255 255 
134 134 134 0 0 0 0 0 0 0 0 0 0 0 0 
0 0 0 0 0 0 0 0 0 0 0 0 0 0 0 
0 0 0 0 0 0 0 0 0 0 0 0 0 0 0 
0 0 0 0 0 0 78 78 78 255 255 255 255 255 255 
255 255 255 255 255 255 78 78 78 0 0 0 0 0 0 
0 0 0 0 0 0 0 0 0 0 0 0 154 154 154 
255 255 255 255 255 255 138 138 138 0 0 0 0 0 0 
0 0 0 0 0 0 0 0 0 23 23 23 255 255 255 
255 255 255 236 236 236 14 14 14 0 0 0 0 0 0 
0 0 0 0 0 0 0 0 0 0 0 0 0 0 0 
0 0 0 0 0 0 0 0 0 0 0 0 0 0 0 
0 0 0 0 0 0 78 78 78 255 255 255 255 255 255 
255 255 255 255 255 255 78 78 78 0 0 0 0 0 0 
0 0 0 0 0 0 0 0 0 0 0 0 154 154 154 
255 255 255 255 255 255 255 255 255 239 239 239 10 10 10 
0 0 0 0 0 0 0 0 0 23 23 23 255 255 255 
255 255 255 255 255 255 255 255 255 116 116 116 0 0 0 
0 0 0 0 0 0 0 0 0 0 0 0 0 0 0 
0 0 0 0 0 0 0 0 0 0 0 0 0 0 0 
0 0 0 0 0 0 78 78 78 255 255 255 255 255 255 
255 255 255 255 255 255 78 78 78 0 0 0 0 0 0 
0 0 0 0 0 0 0 0 0 0 0 0 154 154 154 
255 255 255 250 250 250 255 255 255 255 255 255 255 255 255 
104 104 104 0 0 0 0 0 0 23 23 23 255 255 255 
255 255 255 255 255 255 255 255 255 255 255 255 226 226 226 
4 4 4 0 0 0 0 0 0 0 0 0 0 0 0 
0 0 0 0 0 0 0 0 0 0 0 0 0 0 0 
0 0 0 0 0 0 78 78 78 255 255 255 255 255 255 
255 255 255 255 255 255 78 78 78 0 0 0 0 0 0 
0 0 0 0 0 0 0 0 0 0 0 0 154 154 154 
255 255 255 193 193 193 42 42 42 255 255 255 255 255 255 
255 255 255 209 209 209 0 0 0 8 8 8 255 255 255 
255 255 255 13 13 13 187 187 187 255 255 255 255 255 255 
255 255 255 99 99 99 0 0 0 0 0 0 0 0 0 
0 0 0 0 0 0 0 0 0 0 0 0 0 0 0 
0 0 0 0 0 0 78 78 78 255 255 255 255 255 255 
255 255 255 255 255 255 78 78 78 0 0 0 0 0 0 
0 0 0 0 0 0 0 0 0 0 0 0 154 154 154 
255 255 255 209 209 209 0 0 0 0 0 0 206 206 206 
255 255 255 255 255 255 255 255 255 95 95 95 255 255 255 
255 255 255 20 20 20 0 0 0 79 79 79 255 255 255 
255 255 255 255 255 255 213 213 213 0 0 0 0 0 0 
0 0 0 0 0 0 0 0 0 0 0 0 0 0 0 
0 0 0 0 0 0 78 78 78 255 255 255 255 255 255 
255 255 255 255 255 255 78 78 78 0 0 0 0 0 0 
0 0 0 0 0 0 0 0 0 0 0 0 154 154 154 
255 255 255 209 209 209 0 0 0 0 0 0 0 0 0 
100 100 100 255 255 255 255 255 255 255 255 255 255 255 255 
255 255 255 23 23 23 0 0 0 0 0 0 0 0 0 
207 207 207 255 255 255 255 255 255 255 255 255 84 84 84 
0 0 0 0 0 0 0 0 0 0 0 0 0 0 0 
0 0 0 0 0 0 78 78 78 255 255 255 255 255 255 
255 255 255 255 255 255 78 78 78 0 0 0 0 0 0 
0 0 0 0 0 0 0 0 0 0 0 0 154 154 154 
255 255 255 209 209 209 0 0 0 0 0 0 0 0 0 
0 0 0 5 5 5 230 230 230 255 255 255 255 255 255 
255 255 255 23 23 23 0 0 0 0 0 0 0 0 0 
0 0 0 96 96 96 255 255 255 255 255 255 255 255 255 
199 199 199 0 0 0 0 0 0 0 0 0 0 0 0 
0 0 0 0 0 0 78 78 78 255 255 255 255 255 255 
255 255 255 255 255 255 78 78 78 0 0 0 0 0 0 
0 0 0 0 0 0 0 0 0 0 0 0 154 154 154 
255 255 255 209 209 209 0 0 0 0 0 0 0 0 0 
0 0 0 0 0 0 0 0 0 138 138 138 255 255 255 
255 255 255 23 23 23 0 0 0 0 0 0 0 0 0 
0 0 0 0 0 0 0 0 0 222 222 222 255 255 255 
255 255 255 255 255 255 68 68 68 0 0 0 0 0 0 
0 0 0 0 0 0 78 78 78 255 255 255 255 255 255 
255 255 255 255 255 255 78 78 78 0 0 0 0 0 0 
0 0 0 0 0 0 0 0 0 0 0 0 154 154 154 
255 255 255 209 209 209 0 0 0 0 0 0 0 0 0 
0 0 0 0 0 0 0 0 0 11 11 11 255 255 255 
255 255 255 23 23 23 0 0 0 0 0 0 0 0 0 
0 0 0 0 0 0 0 0 0 0 0 0 96 96 96 
255 255 255 255 255 255 255 255 255 192 192 192 6 6 6 
0 0 0 0 0 0 78 78 78 255 255 255 255 255 255 
255 255 255 255 255 255 78 78 78 0 0 0 0 0 0 
0 0 0 0 0 0 0 0 0 0 0 0 154 154 154 
255 255 255 209 209 209 0 0 0 0 0 0 0 0 0 
0 0 0 0 0 0 0 0 0 11 11 11 255 255 255 
255 255 255 23 23 23 0 0 0 0 0 0 0 0 0 
0 0 0 0 0 0 0 0 0 0 0 0 96 96 96 
255 255 255 255 255 255 255 255 255 192 192 192 6 6 6 
0 0 0 0 0 0 78 78 78 255 255 255 255 255 255 
255 255 255 255 255 255 78 78 78 0 0 0 0 0 0 
0 0 0 0 0 0 0 0 0 0 0 0 154 154 154 
255 255 255 209 209 209 0 0 0 0 0 0 0 0 0 
0 0 0 0 0 0 0 0 0 138 138 138 255 255 255 
255 255 255 23 23 23 0 0 0 0 0 0 0 0 0 
0 0 0 0 0 0 0 0 0 222 222 222 255 255 255 
255 255 255 255 255 255 69 69 69 0 0 0 0 0 0 
0 0 0 0 0 0 78 78 78 255 255 255 255 255 255 
255 255 255 255 255 255 78 78 78 0 0 0 0 0 0 
0 0 0 0 0 0 0 0 0 0 0 0 154 154 154 
255 255 255 209 209 209 0 0 0 0 0 0 0 0 0 
0 0 0 5 5 5 230 230 230 255 255 255 255 255 255 
255 255 255 23 23 23 0 0 0 0 0 0 0 0 0 
0 0 0 96 96 96 255 255 255 255 255 255 255 255 255 
199 199 199 0 0 0 0 0 0 0 0 0 0 0 0 
0 0 0 0 0 0 78 78 78 255 255 255 255 255 255 
255 255 255 255 255 255 78 78 78 0 0 0 0 0 0 
0 0 0 0 0 0 0 0 0 0 0 0 154 154 154 
255 255 255 209 209 209 0 0 0 0 0 0 0 0 0 
100 100 100 255 255 255 255 255 255 255 255 255 255 255 255 
255 255 255 23 23 23 0 0 0 0 0 0 0 0 0 
207 207 207 255 255 255 255 255 255 255 255 255 84 84 84 
0 0 0 0 0 0 0 0 0 0 0 0 0 0 0 
0 0 0 0 0 0 78 78 78 255 255 255 255 255 255 
255 255 255 255 255 255 78 78 78 0 0 0 0 0 0 
0 0 0 0 0 0 0 0 0 0 0 0 154 154 154 
255 255 255 209 209 209 0 0 0 0 0 0 206 206 206 
255 255 255 255 255 255 255 255 255 95 95 95 255 255 255 
255 255 255 20 20 20 0 0 0 79 79 79 255 255 255 
255 255 255 255 255 255 213 213 213 0 0 0 0 0 0 
0 0 0 0 0 0 0 0 0 0 0 0 0 0 0 
0 0 0 0 0 0 78 78 78 255 255 255 255 255 255 
255 255 255 255 255 255 78 78 78 0 0 0 0 0 0 
0 0 0 0 0 0 0 0 0 0 0 0 154 154 154 
255 255 255 193 193 193 42 42 42 255 255 255 255 255 255 
255 255 255 209 209 209 0 0 0 8 8 8 255 255 255 
255 255 255 12 12 12 187 187 187 255 255 255 255 255 255 
255 255 255 99 99 99 0 0 0 0 0 0 0 0 0 
0 0 0 0 0 0 0 0 0 0 0 0 0 0 0 
0 0 0 0 0 0 78 78 78 255 255 255 255 255 255 
255 255 255 255 255 255 78 78 78 0 0 0 0 0 0 
0 0 0 0 0 0 0 0 0 0 0 0 154 154 154 
255 255 255 250 250 250 255 255 255 255 255 255 255 255 255 
104 104 104 0 0 0 0 0 0 23 23 23 255 255 255 
255 255 255 255 255 255 255 255 255 255 255 255 226 226 226 
4 4 4 0 0 0 0 0 0 0 0 0 0 0 0 
0 0 0 0 0 0 0 0 0 0 0 0 0 0 0 
0 0 0 0 0 0 78 78 78 255 255 255 255 255 255 
255 255 255 255 255 255 78 78 78 0 0 0 0 0 0 
0 0 0 0 0 0 0 0 0 0 0 0 154 154 154 
255 255 255 255 255 255 255 255 255 239 239 239 10 10 10 
0 0 0 0 0 0 0 0 0 23 23 23 255 255 255 
255 255 255 255 255 255 255 255 255 117 117 117 0 0 0 
0 0 0 0 0 0 0 0 0 0 0 0 0 0 0 
0 0 0 0 0 0 0 0 0 0 0 0 0 0 0 
0 0 0 0 0 0 78 78 78 255 255 255 255 255 255 
255 255 255 255 255 255 78 78 78 0 0 0 0 0 0 
0 0 0 0 0 0 0 0 0 0 0 0 154 154 154 
255 255 255 255 255 255 138 138 138 0 0 0 0 0 0 
0 0 0 0 0 0 0 0 0 23 23 23 255 255 255 
255 255 255 237 237 237 14 14 14 0 0 0 0 0 0 
0 0 0 0 0 0 0 0 0 0 0 0 0 0 0 
0 0 0 0 0 0 0 0 0 0 0 0 0 0 0 
0 0 0 0 0 0 78 78 78 255 255 255 255 255 255 
255 255 255 255 255 255 78 78 78 0 0 0 0 0 0 
0 0 0 0 0 0 0 0 0 0 0 0 168 168 168 
255 255 255 35 35 35 0 0 0 0 0 0 0 0 0 
0 0 0 0 0 0 0 0 0 26 26 26 255 255 255 
134 134 134 0 0 0 0 0 0 0 0 0 0 0 0 
0 0 0 0 0 0 0 0 0 0 0 0 0 0 0 
0 0 0 0 0 0 0 0 0 0 0 0 0 0 0 
0 0 0 0 0 0 78 78 78 255 255 255 255 255 255 
255 255 255 255 255 255 78 78 78 0 0 0 0 0 0 
0 0 0 0 0 0 0 0 0 0 0 0 86 86 86 
0 0 0 0 0 0 0 0 0 0 0 0 0 0 0 
0 0 0 0 0 0 0 0 0 27 27 27 48 48 48 
0 0 0 0 0 0 0 0 0 0 0 0 0 0 0 
0 0 0 0 0 0 0 0 0 0 0 0 0 0 0 
0 0 0 0 0 0 0 0 0 0 0 0 0 0 0 
0 0 0 0 0 0 78 78 78 255 255 255 255 255 255 
255 255 255 255 255 255 78 78 78 0 0 0 0 0 0 
0 0 0 0 0 0 0 0 0 0 0 0 0 0 0 
0 0 0 0 0 0 0 0 0 0 0 0 0 0 0 
0 0 0 0 0 0 0 0 0 0 0 0 0 0 0 
0 0 0 0 0 0 0 0 0 0 0 0 0 0 0 
0 0 0 0 0 0 0 0 0 0 0 0 0 0 0 
0 0 0 0 0 0 0 0 0 0 0 0 0 0 0 
0 0 0 0 0 0 78 78 78 255 255 255 255 255 255 
255 255 255 255 255 255 78 78 78 0 0 0 0 0 0 
0 0 0 0 0 0 0 0 0 0 0 0 0 0 0 
0 0 0 0 0 0 0 0 0 0 0 0 0 0 0 
0 0 0 0 0 0 0 0 0 0 0 0 0 0 0 
0 0 0 0 0 0 0 0 0 0 0 0 0 0 0 
0 0 0 0 0 0 0 0 0 0 0 0 0 0 0 
0 0 0 0 0 0 0 0 0 0 0 0 0 0 0 
0 0 0 0 0 0 78 78 78 255 255 255 255 255 255 
255 255 255 255 255 255 78 78 78 0 0 0 0 0 0 
0 0 0 0 0 0 0 0 0 0 0 0 0 0 0 
0 0 0 0 0 0 0 0 0 0 0 0 0 0 0 
0 0 0 0 0 0 0 0 0 0 0 0 0 0 0 
0 0 0 0 0 0 0 0 0 0 0 0 0 0 0 
0 0 0 0 0 0 0 0 0 0 0 0 0 0 0 
0 0 0 0 0 0 0 0 0 0 0 0 0 0 0 
0 0 0 0 0 0 78 78 78 255 255 255 255 255 255 
255 255 255 255 255 255 78 78 78 0 0 0 0 0 0 
0 0 0 0 0 0 0 0 0 0 0 0 0 0 0 
0 0 0 0 0 0 0 0 0 0 0 0 0 0 0 
0 0 0 0 0 0 0 0 0 0 0 0 0 0 0 
0 0 0 0 0 0 0 0 0 0 0 0 0 0 0 
0 0 0 0 0 0 0 0 0 0 0 0 0 0 0 
0 0 0 0 0 0 0 0 0 0 0 0 0 0 0 
0 0 0 0 0 0 78 78 78 255 255 255 255 255 255 
255 255 255 255 255 255 78 78 78 0 0 0 0 0 0 
0 0 0 0 0 0 0 0 0 0 0 0 0 0 0 
0 0 0 0 0 0 0 0 0 0 0 0 0 0 0 
0 0 0 0 0 0 0 0 0 0 0 0 0 0 0 
0 0 0 0 0 0 0 0 0 0 0 0 0 0 0 
0 0 0 0 0 0 0 0 0 0 0 0 0 0 0 
0 0 0 0 0 0 0 0 0 0 0 0 0 0 0 
0 0 0 0 0 0 78 78 78 255 255 255 255 255 255 
255 255 255 255 255 255 70 70 70 0 0 0 0 0 0 
0 0 0 0 0 0 0 0 0 0 0 0 0 0 0 
0 0 0 0 0 0 0 0 0 0 0 0 0 0 0 
0 0 0 0 0 0 0 0 0 0 0 0 0 0 0 
0 0 0 0 0 0 0 0 0 0 0 0 0 0 0 
0 0 0 0 0 0 0 0 0 0 0 0 0 0 0 
0 0 0 0 0 0 0 0 0 0 0 0 0 0 0 
0 0 0 0 0 0 70 70 70 255 255 255 255 255 255 
255 255 255 255 255 255 132 132 132 70 70 70 77 77 77 
77 77 77 77 77 77 77 77 77 77 77 77 77 77 77 
77 77 77 77 77 77 77 77 77 77 77 77 77 77 77 
77 77 77 77 77 77 77 77 77 77 77 77 77 77 77 
77 77 77 77 77 77 77 77 77 77 77 77 77 77 77 
77 77 77 77 77 77 77 77 77 77 77 77 77 77 77 
77 77 77 77 77 77 77 77 77 77 77 77 77 77 77 
77 77 77 70 70 70 132 132 132 255 255 255 255 255 255 
255 255 255 255 255 255 255 255 255 255 255 255 255 255 255 
255 255 255 255 255 255 255 255 255 255 255 255 255 255 255 
255 255 255 255 255 255 255 255 255 255 255 255 255 255 255 
255 255 255 255 255 255 255 255 255 255 255 255 255 255 255 
255 255 255 255 255 255 255 255 255 255 255 255 255 255 255 
255 255 255 255 255 255 255 255 255 255 255 255 255 255 255 
255 255 255 255 255 255 255 255 255 255 255 255 255 255 255 
255 255 255 255 255 255 255 255 255 255 255 255 255 255 255 
255 255 255 255 255 255 255 255 255 255 255 255 255 255 255 
255 255 255 255 255 255 255 255 255 255 255 255 255 255 255 
255 255 255 255 255 255 255 255 255 255 255 255 255 255 255 
255 255 255 255 255 255 255 255 255 255 255 255 255 255 255 
255 255 255 255 255 255 255 255 255 255 255 255 255 255 255 
255 255 255 255 255 255 255 255 255 255 255 255 255 255 255 
255 255 255 255 255 255 255 255 255 255 255 255 255 255 255 
255 255 255 255 255 255 255 255 255 255 255 255 255 255 255 
