P3
# Created by IrfanView
40 40
255
0 0 0 0 0 0 0 0 0 0 0 0 0 0 0 
0 0 0 0 0 0 0 0 0 0 0 0 0 0 0 
0 0 0 0 0 0 0 0 0 0 0 0 0 0 0 
0 0 0 58 58 58 159 159 159 223 223 223 242 242 242 
242 242 242 221 221 221 161 161 161 57 57 57 0 0 0 
0 0 0 0 0 0 0 0 0 0 0 0 0 0 0 
0 0 0 0 0 0 0 0 0 0 0 0 0 0 0 
0 0 0 0 0 0 0 0 0 0 0 0 0 0 0 
0 0 0 0 0 0 0 0 0 0 0 0 0 0 0 
0 0 0 0 0 0 0 0 0 0 0 0 0 0 0 
0 0 0 0 0 0 0 0 0 0 0 0 32 32 32 
246 246 246 255 255 255 255 255 255 255 255 255 255 255 255 
255 255 255 255 255 255 255 255 255 255 255 255 246 246 246 
29 29 29 0 0 0 0 0 0 0 0 0 0 0 0 
0 0 0 0 0 0 0 0 0 0 0 0 0 0 0 
0 0 0 0 0 0 0 0 0 0 0 0 0 0 0 
0 0 0 0 0 0 0 0 0 0 0 0 0 0 0 
0 0 0 0 0 0 0 0 0 0 0 0 0 0 0 
0 0 0 0 0 0 0 0 0 80 80 80 255 255 255 
255 255 255 255 255 255 229 229 229 130 130 130 89 89 89 
89 89 89 130 130 130 227 227 227 255 255 255 255 255 255 
255 255 255 81 81 81 0 0 0 0 0 0 0 0 0 
0 0 0 0 0 0 0 0 0 0 0 0 0 0 0 
0 0 0 0 0 0 0 0 0 0 0 0 0 0 0 
0 0 0 0 0 0 0 0 0 0 0 0 0 0 0 
0 0 0 0 0 0 0 0 0 0 0 0 0 0 0 
0 0 0 0 0 0 62 62 62 255 255 255 255 255 255 
255 255 255 50 50 50 0 0 0 0 0 0 0 0 0 
0 0 0 0 0 0 0 0 0 48 48 48 255 255 255 
255 255 255 255 255 255 62 62 62 0 0 0 0 0 0 
0 0 0 0 0 0 0 0 0 0 0 0 0 0 0 
0 0 0 0 0 0 0 0 0 0 0 0 0 0 0 
0 0 0 0 0 0 0 0 0 0 0 0 0 0 0 
0 0 0 0 0 0 0 0 0 0 0 0 0 0 0 
0 0 0 0 0 0 255 255 255 255 255 255 247 247 247 
0 0 0 0 0 0 0 0 0 0 0 0 0 0 0 
0 0 0 0 0 0 0 0 0 0 0 0 0 0 0 
247 247 247 255 255 255 255 255 255 0 0 0 0 0 0 
0 0 0 0 0 0 0 0 0 0 0 0 0 0 0 
0 0 0 0 0 0 0 0 0 0 0 0 0 0 0 
0 0 0 0 0 0 0 0 0 0 0 0 0 0 0 
0 0 0 0 0 0 0 0 0 0 0 0 0 0 0 
0 0 0 142 142 142 255 255 255 255 255 255 6 6 6 
0 0 0 0 0 0 0 0 0 0 0 0 0 0 0 
0 0 0 0 0 0 0 0 0 0 0 0 0 0 0 
6 6 6 255 255 255 255 255 255 142 142 142 0 0 0 
0 0 0 0 0 0 0 0 0 0 0 0 0 0 0 
0 0 0 0 0 0 0 0 0 0 0 0 0 0 0 
0 0 0 0 0 0 0 0 0 0 0 0 0 0 0 
0 0 0 0 0 0 0 0 0 0 0 0 0 0 0 
0 0 0 255 255 255 255 255 255 129 129 129 0 0 0 
0 0 0 0 0 0 0 0 0 0 0 0 0 0 0 
0 0 0 0 0 0 0 0 0 0 0 0 0 0 0 
0 0 0 127 127 127 255 255 255 255 255 255 0 0 0 
0 0 0 0 0 0 0 0 0 0 0 0 0 0 0 
0 0 0 0 0 0 0 0 0 0 0 0 0 0 0 
0 0 0 0 0 0 0 0 0 0 0 0 0 0 0 
0 0 0 0 0 0 0 0 0 0 0 0 0 0 0 
33 33 33 255 255 255 255 255 255 249 249 249 255 255 255 
255 255 255 255 255 255 160 160 160 0 0 0 0 0 0 
0 0 0 0 0 0 160 160 160 255 255 255 255 255 255 
255 255 255 249 249 249 255 255 255 255 255 255 31 31 31 
0 0 0 0 0 0 0 0 0 0 0 0 0 0 0 
0 0 0 0 0 0 0 0 0 0 0 0 0 0 0 
0 0 0 0 0 0 0 0 0 0 0 0 0 0 0 
0 0 0 0 0 0 0 0 0 0 0 0 0 0 0 
89 89 89 255 255 255 255 255 255 255 255 255 255 255 255 
255 255 255 255 255 255 167 167 167 0 0 0 0 0 0 
0 0 0 0 0 0 167 167 167 255 255 255 255 255 255 
255 255 255 255 255 255 255 255 255 255 255 255 90 90 90 
0 0 0 0 0 0 0 0 0 0 0 0 0 0 0 
0 0 0 0 0 0 0 0 0 0 0 0 0 0 0 
0 0 0 0 0 0 0 0 0 0 0 0 0 0 0 
0 0 0 0 0 0 0 0 0 0 0 0 0 0 0 
104 104 104 255 255 255 255 255 255 85 85 85 102 102 102 
102 102 102 108 108 108 64 64 64 0 0 0 0 0 0 
0 0 0 0 0 0 64 64 64 108 108 108 102 102 102 
102 102 102 85 85 85 255 255 255 255 255 255 104 104 104 
0 0 0 0 0 0 0 0 0 0 0 0 0 0 0 
0 0 0 0 0 0 0 0 0 0 0 0 0 0 0 
0 0 0 0 0 0 0 0 0 0 0 0 0 0 0 
0 0 0 0 0 0 0 0 0 0 0 0 0 0 0 
101 101 101 255 255 255 255 255 255 0 0 0 0 0 0 
0 0 0 0 0 0 0 0 0 0 0 0 0 0 0 
0 0 0 0 0 0 0 0 0 0 0 0 0 0 0 
0 0 0 0 0 0 255 255 255 255 255 255 101 101 101 
0 0 0 0 0 0 0 0 0 0 0 0 0 0 0 
0 0 0 0 0 0 0 0 0 0 0 0 0 0 0 
0 0 0 0 0 0 0 0 0 0 0 0 0 0 0 
0 0 0 0 0 0 0 0 0 0 0 0 0 0 0 
101 101 101 255 255 255 255 255 255 25 25 25 47 47 47 
47 47 47 50 50 50 30 30 30 0 0 0 0 0 0 
0 0 0 0 0 0 30 30 30 50 50 50 47 47 47 
47 47 47 25 25 25 255 255 255 255 255 255 101 101 101 
0 0 0 0 0 0 0 0 0 0 0 0 0 0 0 
0 0 0 0 0 0 0 0 0 0 0 0 0 0 0 
0 0 0 0 0 0 0 0 0 0 0 0 0 0 0 
0 0 0 0 0 0 0 0 0 0 0 0 0 0 0 
101 101 101 255 255 255 255 255 255 255 255 255 255 255 255 
255 255 255 255 255 255 169 169 169 0 0 0 0 0 0 
0 0 0 0 0 0 169 169 169 255 255 255 255 255 255 
255 255 255 255 255 255 255 255 255 255 255 255 101 101 101 
0 0 0 0 0 0 0 0 0 0 0 0 0 0 0 
0 0 0 0 0 0 0 0 0 0 0 0 0 0 0 
0 0 0 0 0 0 0 0 0 0 0 0 0 0 0 
0 0 0 0 0 0 0 0 0 0 0 0 0 0 0 
101 101 101 255 255 255 255 255 255 255 255 255 255 255 255 
255 255 255 255 255 255 172 172 172 0 0 0 0 0 0 
0 0 0 0 0 0 172 172 172 255 255 255 255 255 255 
255 255 255 255 255 255 255 255 255 255 255 255 101 101 101 
0 0 0 0 0 0 0 0 0 0 0 0 0 0 0 
0 0 0 0 0 0 0 0 0 0 0 0 0 0 0 
0 0 0 0 0 0 0 0 0 0 0 0 0 0 0 
0 0 0 0 0 0 0 0 0 0 0 0 0 0 0 
101 101 101 255 255 255 255 255 255 0 0 0 0 0 0 
0 0 0 0 0 0 0 0 0 0 0 0 0 0 0 
0 0 0 0 0 0 0 0 0 0 0 0 0 0 0 
0 0 0 0 0 0 255 255 255 255 255 255 101 101 101 
0 0 0 0 0 0 0 0 0 0 0 0 0 0 0 
0 0 0 0 0 0 0 0 0 0 0 0 0 0 0 
0 0 0 0 0 0 0 0 0 0 0 0 0 0 0 
0 0 0 0 0 0 0 0 0 0 0 0 0 0 0 
101 101 101 255 255 255 255 255 255 0 0 0 0 0 0 
0 0 0 0 0 0 0 0 0 0 0 0 0 0 0 
0 0 0 0 0 0 0 0 0 0 0 0 0 0 0 
0 0 0 0 0 0 255 255 255 255 255 255 101 101 101 
0 0 0 0 0 0 0 0 0 0 0 0 0 0 0 
0 0 0 0 0 0 0 0 0 0 0 0 0 0 0 
0 0 0 0 0 0 0 0 0 0 0 0 0 0 0 
0 0 0 0 0 0 0 0 0 0 0 0 0 0 0 
101 101 101 255 255 255 255 255 255 141 141 141 154 154 154 
154 154 154 161 161 161 95 95 95 0 0 0 0 0 0 
0 0 0 0 0 0 95 95 95 161 161 161 154 154 154 
154 154 154 141 141 141 255 255 255 255 255 255 101 101 101 
0 0 0 0 0 0 0 0 0 0 0 0 0 0 0 
0 0 0 0 0 0 0 0 0 0 0 0 0 0 0 
0 0 0 0 0 0 0 0 0 0 0 0 0 0 0 
0 0 0 0 0 0 0 0 0 0 0 0 0 0 0 
101 101 101 255 255 255 255 255 255 255 255 255 255 255 255 
255 255 255 255 255 255 167 167 167 0 0 0 0 0 0 
0 0 0 0 0 0 167 167 167 255 255 255 255 255 255 
255 255 255 255 255 255 255 255 255 255 255 255 101 101 101 
0 0 0 0 0 0 0 0 0 0 0 0 0 0 0 
0 0 0 0 0 0 0 0 0 0 0 0 0 0 0 
0 0 0 0 0 0 0 0 0 0 0 0 0 0 0 
0 0 0 0 0 0 0 0 0 0 0 0 0 0 0 
101 101 101 255 255 255 255 255 255 203 203 203 210 210 210 
210 210 210 220 220 220 128 128 128 0 0 0 0 0 0 
0 0 0 0 0 0 128 128 128 220 220 220 210 210 210 
210 210 210 203 203 203 255 255 255 255 255 255 101 101 101 
0 0 0 0 0 0 0 0 0 0 0 0 0 0 0 
0 0 0 0 0 0 0 0 0 0 0 0 0 0 0 
0 0 0 0 0 0 0 0 0 0 0 0 0 0 0 
0 0 0 0 0 0 0 0 0 0 0 0 0 0 0 
101 101 101 255 255 255 255 255 255 0 0 0 0 0 0 
0 0 0 0 0 0 0 0 0 0 0 0 0 0 0 
0 0 0 0 0 0 0 0 0 0 0 0 0 0 0 
0 0 0 0 0 0 255 255 255 255 255 255 101 101 101 
0 0 0 0 0 0 0 0 0 0 0 0 0 0 0 
0 0 0 0 0 0 0 0 0 0 0 0 0 0 0 
0 0 0 0 0 0 0 0 0 0 0 0 0 0 0 
0 0 0 0 0 0 0 0 0 0 0 0 0 0 0 
101 101 101 255 255 255 255 255 255 0 0 0 0 0 0 
0 0 0 0 0 0 0 0 0 0 0 0 0 0 0 
0 0 0 0 0 0 0 0 0 0 0 0 0 0 0 
0 0 0 0 0 0 255 255 255 255 255 255 101 101 101 
0 0 0 0 0 0 0 0 0 0 0 0 0 0 0 
0 0 0 0 0 0 0 0 0 0 0 0 0 0 0 
0 0 0 0 0 0 0 0 0 0 0 0 0 0 0 
2 2 2 230 230 230 226 226 226 38 38 38 0 0 0 
106 106 106 255 255 255 255 255 255 203 203 203 210 210 210 
210 210 210 220 220 220 128 128 128 0 0 0 0 0 0 
0 0 0 0 0 0 128 128 128 220 220 220 210 210 210 
210 210 210 203 203 203 255 255 255 255 255 255 107 107 107 
0 0 0 38 38 38 226 226 226 230 230 230 2 2 2 
0 0 0 0 0 0 0 0 0 0 0 0 0 0 0 
0 0 0 0 0 0 0 0 0 0 0 0 0 0 0 
0 0 0 255 255 255 255 255 255 63 63 63 0 0 0 
66 66 66 255 255 255 255 255 255 255 255 255 255 255 255 
255 255 255 255 255 255 167 167 167 0 0 0 0 0 0 
0 0 0 0 0 0 167 167 167 255 255 255 255 255 255 
255 255 255 255 255 255 255 255 255 255 255 255 66 66 66 
0 0 0 62 62 62 255 255 255 255 255 255 0 0 0 
0 0 0 0 0 0 0 0 0 0 0 0 0 0 0 
0 0 0 0 0 0 0 0 0 0 0 0 0 0 0 
0 0 0 255 255 255 255 255 255 113 113 113 0 0 0 
5 5 5 255 255 255 255 255 255 186 186 186 148 148 148 
154 154 154 161 161 161 95 95 95 0 0 0 0 0 0 
0 0 0 0 0 0 95 95 95 161 161 161 154 154 154 
148 148 148 186 186 186 255 255 255 255 255 255 6 6 6 
0 0 0 113 113 113 255 255 255 255 255 255 0 0 0 
0 0 0 0 0 0 0 0 0 0 0 0 0 0 0 
0 0 0 0 0 0 0 0 0 0 0 0 0 0 0 
0 0 0 197 197 197 255 255 255 193 193 193 0 0 0 
0 0 0 227 227 227 255 255 255 206 206 206 0 0 0 
0 0 0 0 0 0 0 0 0 0 0 0 0 0 0 
0 0 0 0 0 0 0 0 0 0 0 0 0 0 0 
0 0 0 203 203 203 255 255 255 227 227 227 0 0 0 
0 0 0 193 193 193 255 255 255 196 196 196 0 0 0 
0 0 0 0 0 0 0 0 0 0 0 0 0 0 0 
0 0 0 0 0 0 0 0 0 0 0 0 0 0 0 
0 0 0 110 110 110 255 255 255 255 255 255 0 0 0 
0 0 0 78 78 78 255 255 255 255 255 255 105 105 105 
0 0 0 0 0 0 0 0 0 0 0 0 0 0 0 
0 0 0 0 0 0 0 0 0 0 0 0 0 0 0 
105 105 105 255 255 255 255 255 255 79 79 79 0 0 0 
0 0 0 255 255 255 255 255 255 111 111 111 0 0 0 
0 0 0 0 0 0 0 0 0 0 0 0 0 0 0 
0 0 0 0 0 0 0 0 0 0 0 0 0 0 0 
0 0 0 0 0 0 255 255 255 255 255 255 137 137 137 
0 0 0 0 0 0 216 216 216 255 255 255 255 255 255 
94 94 94 0 0 0 0 0 0 0 0 0 0 0 0 
0 0 0 0 0 0 0 0 0 0 0 0 94 94 94 
255 255 255 255 255 255 214 214 214 0 0 0 0 0 0 
137 137 137 255 255 255 255 255 255 0 0 0 0 0 0 
0 0 0 0 0 0 0 0 0 0 0 0 0 0 0 
0 0 0 0 0 0 0 0 0 0 0 0 0 0 0 
0 0 0 0 0 0 161 161 161 255 255 255 255 255 255 
0 0 0 0 0 0 0 0 0 255 255 255 255 255 255 
255 255 255 193 193 193 36 36 36 0 0 0 0 0 0 
0 0 0 0 0 0 28 28 28 192 192 192 255 255 255 
255 255 255 255 255 255 0 0 0 0 0 0 0 0 0 
255 255 255 255 255 255 163 163 163 0 0 0 0 0 0 
0 0 0 0 0 0 0 0 0 0 0 0 0 0 0 
0 0 0 0 0 0 0 0 0 0 0 0 0 0 0 
0 0 0 0 0 0 0 0 0 255 255 255 255 255 255 
225 225 225 0 0 0 0 0 0 0 0 0 230 230 230 
255 255 255 255 255 255 255 255 255 255 255 255 211 211 211 
211 211 211 255 255 255 255 255 255 255 255 255 255 255 255 
230 230 230 0 0 0 0 0 0 0 0 0 225 225 225 
255 255 255 255 255 255 0 0 0 0 0 0 0 0 0 
0 0 0 0 0 0 0 0 0 0 0 0 0 0 0 
0 0 0 0 0 0 0 0 0 0 0 0 0 0 0 
0 0 0 0 0 0 0 0 0 87 87 87 255 255 255 
255 255 255 195 195 195 0 0 0 0 0 0 0 0 0 
107 107 107 255 255 255 255 255 255 255 255 255 255 255 255 
255 255 255 255 255 255 255 255 255 255 255 255 107 107 107 
0 0 0 0 0 0 0 0 0 200 200 200 255 255 255 
255 255 255 87 87 87 0 0 0 0 0 0 0 0 0 
0 0 0 0 0 0 0 0 0 0 0 0 0 0 0 
0 0 0 0 0 0 0 0 0 0 0 0 0 0 0 
0 0 0 0 0 0 0 0 0 0 0 0 162 162 162 
255 255 255 255 255 255 212 212 212 0 0 0 0 0 0 
0 0 0 0 0 0 45 45 45 119 119 119 156 156 156 
156 156 156 119 119 119 44 44 44 0 0 0 0 0 0 
0 0 0 0 0 0 214 214 214 255 255 255 255 255 255 
161 161 161 0 0 0 0 0 0 0 0 0 0 0 0 
0 0 0 0 0 0 0 0 0 0 0 0 0 0 0 
0 0 0 0 0 0 0 0 0 0 0 0 0 0 0 
0 0 0 0 0 0 0 0 0 0 0 0 0 0 0 
165 165 165 255 255 255 255 255 255 255 255 255 101 101 101 
0 0 0 0 0 0 0 0 0 0 0 0 0 0 0 
0 0 0 0 0 0 0 0 0 0 0 0 0 0 0 
99 99 99 255 255 255 255 255 255 255 255 255 165 165 165 
0 0 0 0 0 0 0 0 0 0 0 0 0 0 0 
0 0 0 0 0 0 0 0 0 0 0 0 0 0 0 
0 0 0 0 0 0 0 0 0 0 0 0 0 0 0 
0 0 0 0 0 0 0 0 0 0 0 0 0 0 0 
0 0 0 102 102 102 255 255 255 255 255 255 255 255 255 
255 255 255 154 154 154 66 66 66 14 14 14 0 0 0 
0 0 0 12 12 12 66 66 66 155 155 155 255 255 255 
255 255 255 255 255 255 255 255 255 102 102 102 0 0 0 
0 0 0 0 0 0 0 0 0 0 0 0 0 0 0 
0 0 0 0 0 0 0 0 0 0 0 0 0 0 0 
0 0 0 0 0 0 0 0 0 0 0 0 0 0 0 
0 0 0 0 0 0 0 0 0 0 0 0 0 0 0 
0 0 0 0 0 0 9 9 9 194 194 194 255 255 255 
255 255 255 255 255 255 255 255 255 255 255 255 255 255 255 
255 255 255 255 255 255 255 255 255 255 255 255 255 255 255 
255 255 255 196 196 196 8 8 8 0 0 0 0 0 0 
0 0 0 0 0 0 0 0 0 0 0 0 0 0 0 
0 0 0 0 0 0 0 0 0 0 0 0 0 0 0 
0 0 0 0 0 0 0 0 0 0 0 0 0 0 0 
0 0 0 0 0 0 0 0 0 0 0 0 0 0 0 
0 0 0 0 0 0 0 0 0 0 0 0 16 16 16 
148 148 148 242 242 242 255 255 255 255 255 255 255 255 255 
255 255 255 255 255 255 255 255 255 243 243 243 147 147 147 
16 16 16 0 0 0 0 0 0 0 0 0 0 0 0 
0 0 0 0 0 0 0 0 0 0 0 0 0 0 0 
0 0 0 0 0 0 0 0 0 0 0 0 0 0 0 
0 0 0 0 0 0 0 0 0 0 0 0 0 0 0 
0 0 0 0 0 0 0 0 0 0 0 0 0 0 0 
0 0 0 0 0 0 0 0 0 0 0 0 0 0 0 
0 0 0 144 144 144 255 255 255 219 219 219 35 35 35 
35 35 35 219 219 219 255 255 255 144 144 144 0 0 0 
0 0 0 0 0 0 0 0 0 0 0 0 0 0 0 
0 0 0 0 0 0 0 0 0 0 0 0 0 0 0 
0 0 0 0 0 0 0 0 0 0 0 0 0 0 0 
0 0 0 0 0 0 0 0 0 0 0 0 0 0 0 
0 0 0 0 0 0 0 0 0 0 0 0 0 0 0 
0 0 0 0 0 0 0 0 0 0 0 0 0 0 0 
0 0 0 149 149 149 255 255 255 205 205 205 0 0 0 
0 0 0 205 205 205 255 255 255 149 149 149 0 0 0 
0 0 0 0 0 0 0 0 0 0 0 0 0 0 0 
0 0 0 0 0 0 0 0 0 0 0 0 0 0 0 
0 0 0 0 0 0 0 0 0 0 0 0 0 0 0 
0 0 0 0 0 0 0 0 0 0 0 0 0 0 0 
0 0 0 0 0 0 0 0 0 0 0 0 0 0 0 
0 0 0 14 14 14 85 85 85 77 77 77 77 77 77 
65 65 65 184 184 184 255 255 255 223 223 223 61 61 61 
61 61 61 223 223 223 255 255 255 184 184 184 65 65 65 
77 77 77 77 77 77 85 85 85 14 14 14 0 0 0 
0 0 0 0 0 0 0 0 0 0 0 0 0 0 0 
0 0 0 0 0 0 0 0 0 0 0 0 0 0 0 
0 0 0 0 0 0 0 0 0 0 0 0 0 0 0 
0 0 0 0 0 0 0 0 0 0 0 0 0 0 0 
0 0 0 53 53 53 255 255 255 255 255 255 255 255 255 
255 255 255 255 255 255 255 255 255 255 255 255 255 255 255 
255 255 255 255 255 255 255 255 255 255 255 255 255 255 255 
255 255 255 255 255 255 255 255 255 53 53 53 0 0 0 
0 0 0 0 0 0 0 0 0 0 0 0 0 0 0 
0 0 0 0 0 0 0 0 0 0 0 0 0 0 0 
0 0 0 0 0 0 0 0 0 0 0 0 0 0 0 
0 0 0 0 0 0 0 0 0 0 0 0 0 0 0 
0 0 0 48 48 48 255 255 255 255 255 255 255 255 255 
255 255 255 255 255 255 255 255 255 255 255 255 255 255 255 
255 255 255 255 255 255 255 255 255 255 255 255 255 255 255 
255 255 255 255 255 255 255 255 255 48 48 48 0 0 0 
0 0 0 0 0 0 0 0 0 0 0 0 0 0 0 
0 0 0 0 0 0 0 0 0 0 0 0 0 0 0 
