P3
# Created by IrfanView
40 40
255
0 0 0 0 0 0 158 158 158 248 248 248 255 255 255 
255 255 255 255 255 255 255 255 255 255 255 255 255 255 255 
255 255 255 255 255 255 255 255 255 255 255 255 255 255 255 
255 255 255 255 255 255 255 255 255 255 255 255 255 255 255 
255 255 255 255 255 255 255 255 255 255 255 255 255 255 255 
255 255 255 255 255 255 255 255 255 255 255 255 255 255 255 
255 255 255 255 255 255 255 255 255 255 255 255 255 255 255 
255 255 255 248 248 248 157 157 157 0 0 0 0 0 0 
0 0 0 255 255 255 255 255 255 213 213 213 186 186 186 
188 188 188 188 188 188 188 188 188 188 188 188 188 188 188 
188 188 188 188 188 188 188 188 188 188 188 188 188 188 188 
188 188 188 188 188 188 188 188 188 188 188 188 187 187 187 
187 187 187 188 188 188 188 188 188 188 188 188 188 188 188 
188 188 188 188 188 188 188 188 188 188 188 188 188 188 188 
188 188 188 188 188 188 188 188 188 188 188 188 188 188 188 
186 186 186 213 213 213 255 255 255 255 255 255 0 0 0 
157 157 157 255 255 255 70 70 70 0 0 0 0 0 0 
0 0 0 0 0 0 0 0 0 0 0 0 0 0 0 
0 0 0 0 0 0 0 0 0 0 0 0 0 0 0 
0 0 0 0 0 0 0 0 0 0 0 0 0 0 0 
0 0 0 0 0 0 0 0 0 0 0 0 0 0 0 
0 0 0 0 0 0 0 0 0 0 0 0 0 0 0 
0 0 0 0 0 0 0 0 0 0 0 0 0 0 0 
0 0 0 0 0 0 70 70 70 255 255 255 158 158 158 
248 248 248 211 211 211 0 0 0 0 0 0 0 0 0 
0 0 0 0 0 0 0 0 0 0 0 0 0 0 0 
0 0 0 0 0 0 0 0 0 0 0 0 0 0 0 
0 0 0 57 57 57 178 178 178 255 255 255 255 255 255 
255 255 255 255 255 255 187 187 187 66 66 66 0 0 0 
0 0 0 0 0 0 0 0 0 0 0 0 0 0 0 
0 0 0 0 0 0 0 0 0 0 0 0 0 0 0 
0 0 0 0 0 0 0 0 0 211 211 211 246 246 246 
255 255 255 187 187 187 0 0 0 0 0 0 0 0 0 
0 0 0 0 0 0 0 0 0 0 0 0 0 0 0 
0 0 0 0 0 0 0 0 0 0 0 0 0 0 0 
192 192 192 255 255 255 255 255 255 255 255 255 254 254 254 
251 251 251 255 255 255 255 255 255 255 255 255 207 207 207 
0 0 0 0 0 0 0 0 0 0 0 0 0 0 0 
0 0 0 0 0 0 0 0 0 0 0 0 0 0 0 
0 0 0 0 0 0 0 0 0 187 187 187 255 255 255 
255 255 255 189 189 189 0 0 0 0 0 0 0 0 0 
0 0 0 0 0 0 0 0 0 0 0 0 0 0 0 
0 0 0 0 0 0 0 0 0 0 0 0 232 232 232 
255 255 255 255 255 255 118 118 118 0 0 0 0 0 0 
0 0 0 0 0 0 101 101 101 255 255 255 255 255 255 
247 247 247 0 0 0 0 0 0 0 0 0 0 0 0 
0 0 0 0 0 0 0 0 0 0 0 0 0 0 0 
0 0 0 0 0 0 0 0 0 189 189 189 255 255 255 
255 255 255 189 189 189 0 0 0 0 0 0 0 0 0 
0 0 0 0 0 0 0 0 0 0 0 0 0 0 0 
0 0 0 0 0 0 0 0 0 180 180 180 255 255 255 
246 246 246 0 0 0 0 0 0 0 0 0 0 0 0 
0 0 0 0 0 0 0 0 0 0 0 0 232 232 232 
255 255 255 201 201 201 0 0 0 0 0 0 0 0 0 
0 0 0 0 0 0 0 0 0 0 0 0 0 0 0 
0 0 0 0 0 0 0 0 0 189 189 189 255 255 255 
255 255 255 189 189 189 0 0 0 0 0 0 0 0 0 
0 0 0 0 0 0 0 0 0 0 0 0 0 0 0 
0 0 0 0 0 0 42 42 42 255 255 255 255 255 255 
0 0 0 0 0 0 0 0 0 0 0 0 0 0 0 
0 0 0 0 0 0 0 0 0 0 0 0 0 0 0 
255 255 255 255 255 255 58 58 58 0 0 0 0 0 0 
0 0 0 0 0 0 0 0 0 0 0 0 0 0 0 
0 0 0 0 0 0 0 0 0 189 189 189 255 255 255 
255 255 255 189 189 189 0 0 0 0 0 0 0 0 0 
0 0 0 0 0 0 0 0 0 0 0 0 0 0 0 
0 0 0 0 0 0 157 157 157 255 255 255 126 126 126 
0 0 0 0 0 0 0 0 0 0 0 0 0 0 0 
0 0 0 0 0 0 0 0 0 0 0 0 0 0 0 
100 100 100 255 255 255 177 177 177 0 0 0 0 0 0 
0 0 0 0 0 0 0 0 0 0 0 0 0 0 0 
0 0 0 0 0 0 0 0 0 189 189 189 255 255 255 
255 255 255 189 189 189 0 0 0 0 0 0 0 0 0 
0 0 0 0 0 0 0 0 0 0 0 0 0 0 0 
0 0 0 0 0 0 244 244 244 255 255 255 255 255 255 
255 255 255 255 255 255 255 255 255 0 0 0 0 0 0 
0 0 0 0 0 0 255 255 255 255 255 255 255 255 255 
255 255 255 255 255 255 255 255 255 0 0 0 0 0 0 
0 0 0 0 0 0 0 0 0 0 0 0 0 0 0 
0 0 0 0 0 0 0 0 0 189 189 189 255 255 255 
255 255 255 189 189 189 0 0 0 0 0 0 0 0 0 
0 0 0 0 0 0 0 0 0 0 0 0 0 0 0 
0 0 0 0 0 0 255 255 255 255 255 255 254 254 254 
255 255 255 255 255 255 255 255 255 0 0 0 0 0 0 
0 0 0 0 0 0 255 255 255 255 255 255 255 255 255 
254 254 254 255 255 255 255 255 255 0 0 0 0 0 0 
0 0 0 0 0 0 0 0 0 0 0 0 0 0 0 
0 0 0 0 0 0 0 0 0 189 189 189 255 255 255 
255 255 255 189 189 189 0 0 0 0 0 0 0 0 0 
0 0 0 0 0 0 0 0 0 0 0 0 0 0 0 
0 0 0 0 0 0 255 255 255 255 255 255 0 0 0 
0 0 0 0 0 0 0 0 0 0 0 0 0 0 0 
0 0 0 0 0 0 0 0 0 0 0 0 0 0 0 
0 0 0 255 255 255 255 255 255 0 0 0 0 0 0 
0 0 0 0 0 0 0 0 0 0 0 0 0 0 0 
0 0 0 0 0 0 0 0 0 189 189 189 255 255 255 
255 255 255 189 189 189 0 0 0 0 0 0 0 0 0 
0 0 0 0 0 0 0 0 0 0 0 0 0 0 0 
0 0 0 0 0 0 255 255 255 255 255 255 0 0 0 
0 0 0 0 0 0 0 0 0 0 0 0 0 0 0 
0 0 0 0 0 0 0 0 0 0 0 0 0 0 0 
0 0 0 255 255 255 255 255 255 0 0 0 0 0 0 
0 0 0 0 0 0 0 0 0 0 0 0 0 0 0 
0 0 0 0 0 0 0 0 0 189 189 189 255 255 255 
255 255 255 189 189 189 0 0 0 0 0 0 0 0 0 
0 0 0 0 0 0 0 0 0 0 0 0 0 0 0 
0 0 0 0 0 0 255 255 255 255 255 255 255 255 255 
255 255 255 255 255 255 255 255 255 0 0 0 0 0 0 
0 0 0 0 0 0 255 255 255 255 255 255 255 255 255 
255 255 255 255 255 255 255 255 255 0 0 0 0 0 0 
0 0 0 0 0 0 0 0 0 0 0 0 0 0 0 
0 0 0 0 0 0 0 0 0 189 189 189 255 255 255 
255 255 255 189 189 189 0 0 0 0 0 0 0 0 0 
0 0 0 0 0 0 0 0 0 0 0 0 0 0 0 
0 0 0 0 0 0 255 255 255 255 255 255 243 243 243 
247 247 247 247 247 247 255 255 255 0 0 0 0 0 0 
0 0 0 0 0 0 246 246 246 249 249 249 247 247 247 
243 243 243 255 255 255 255 255 255 0 0 0 0 0 0 
0 0 0 0 0 0 0 0 0 0 0 0 0 0 0 
0 0 0 0 0 0 0 0 0 189 189 189 255 255 255 
255 255 255 189 189 189 0 0 0 0 0 0 0 0 0 
0 0 0 0 0 0 0 0 0 0 0 0 0 0 0 
0 0 0 0 0 0 255 255 255 255 255 255 0 0 0 
0 0 0 0 0 0 0 0 0 0 0 0 0 0 0 
0 0 0 0 0 0 0 0 0 0 0 0 0 0 0 
0 0 0 255 255 255 255 255 255 0 0 0 0 0 0 
0 0 0 0 0 0 0 0 0 0 0 0 0 0 0 
0 0 0 0 0 0 0 0 0 189 189 189 255 255 255 
255 255 255 189 189 189 0 0 0 0 0 0 0 0 0 
0 0 0 0 0 0 0 0 0 0 0 0 0 0 0 
0 0 0 0 0 0 255 255 255 255 255 255 0 0 0 
7 7 7 8 8 8 11 11 11 0 0 0 0 0 0 
0 0 0 0 0 0 10 10 10 8 8 8 7 7 7 
0 0 0 255 255 255 255 255 255 0 0 0 0 0 0 
0 0 0 0 0 0 0 0 0 0 0 0 0 0 0 
0 0 0 0 0 0 0 0 0 189 189 189 255 255 255 
255 255 255 189 189 189 0 0 0 0 0 0 0 0 0 
0 0 0 0 0 0 0 0 0 0 0 0 0 0 0 
0 0 0 0 0 0 255 255 255 255 255 255 255 255 255 
255 255 255 255 255 255 255 255 255 0 0 0 0 0 0 
0 0 0 0 0 0 255 255 255 255 255 255 255 255 255 
255 255 255 255 255 255 255 255 255 0 0 0 0 0 0 
0 0 0 0 0 0 0 0 0 0 0 0 0 0 0 
0 0 0 0 0 0 0 0 0 189 189 189 255 255 255 
255 255 255 189 189 189 0 0 0 0 0 0 0 0 0 
0 0 0 0 0 0 0 0 0 0 0 0 0 0 0 
0 0 0 0 0 0 255 255 255 255 255 255 254 254 254 
255 255 255 255 255 255 255 255 255 0 0 0 0 0 0 
0 0 0 0 0 0 255 255 255 255 255 255 255 255 255 
254 254 254 255 255 255 255 255 255 0 0 0 0 0 0 
0 0 0 0 0 0 0 0 0 0 0 0 0 0 0 
0 0 0 0 0 0 0 0 0 189 189 189 255 255 255 
255 255 255 189 189 189 0 0 0 0 0 0 0 0 0 
0 0 0 0 0 0 0 0 0 0 0 0 0 0 0 
0 0 0 0 0 0 255 255 255 255 255 255 0 0 0 
0 0 0 0 0 0 0 0 0 0 0 0 0 0 0 
0 0 0 0 0 0 0 0 0 0 0 0 0 0 0 
0 0 0 255 255 255 255 255 255 0 0 0 0 0 0 
0 0 0 0 0 0 0 0 0 0 0 0 0 0 0 
0 0 0 0 0 0 0 0 0 189 189 189 255 255 255 
255 255 255 189 189 189 0 0 0 0 0 0 0 0 0 
0 0 0 0 0 0 0 0 0 0 0 0 0 0 0 
0 0 0 0 0 0 255 255 255 255 255 255 0 0 0 
0 0 0 0 0 0 0 0 0 0 0 0 0 0 0 
0 0 0 0 0 0 0 0 0 0 0 0 0 0 0 
0 0 0 255 255 255 255 255 255 0 0 0 0 0 0 
0 0 0 0 0 0 0 0 0 0 0 0 0 0 0 
0 0 0 0 0 0 0 0 0 189 189 189 255 255 255 
255 255 255 189 189 189 0 0 0 0 0 0 0 0 0 
0 0 0 0 0 0 0 0 0 255 255 255 255 255 255 
0 0 0 0 0 0 255 255 255 255 255 255 255 255 255 
255 255 255 255 255 255 255 255 255 0 0 0 0 0 0 
0 0 0 0 0 0 255 255 255 255 255 255 255 255 255 
255 255 255 255 255 255 255 255 255 0 0 0 0 0 0 
255 255 255 255 255 255 0 0 0 0 0 0 0 0 0 
0 0 0 0 0 0 0 0 0 189 189 189 255 255 255 
255 255 255 189 189 189 0 0 0 0 0 0 0 0 0 
0 0 0 0 0 0 0 0 0 250 250 250 255 255 255 
0 0 0 0 0 0 232 232 232 255 255 255 255 255 255 
255 255 255 255 255 255 255 255 255 0 0 0 0 0 0 
0 0 0 0 0 0 255 255 255 255 255 255 255 255 255 
255 255 255 255 255 255 255 255 255 0 0 0 0 0 0 
255 255 255 255 255 255 0 0 0 0 0 0 0 0 0 
0 0 0 0 0 0 0 0 0 189 189 189 255 255 255 
255 255 255 189 189 189 0 0 0 0 0 0 0 0 0 
0 0 0 0 0 0 0 0 0 191 191 191 255 255 255 
72 72 72 0 0 0 138 138 138 255 255 255 153 153 153 
0 0 0 0 0 0 0 0 0 0 0 0 0 0 0 
0 0 0 0 0 0 0 0 0 0 0 0 0 0 0 
128 128 128 255 255 255 155 155 155 0 0 0 49 49 49 
255 255 255 208 208 208 0 0 0 0 0 0 0 0 0 
0 0 0 0 0 0 0 0 0 189 189 189 255 255 255 
255 255 255 189 189 189 0 0 0 0 0 0 0 0 0 
0 0 0 0 0 0 0 0 0 112 112 112 255 255 255 
177 177 177 0 0 0 23 23 23 255 255 255 255 255 255 
25 25 25 0 0 0 0 0 0 0 0 0 0 0 0 
0 0 0 0 0 0 0 0 0 0 0 0 9 9 9 
255 255 255 255 255 255 37 37 37 0 0 0 157 157 157 
255 255 255 129 129 129 0 0 0 0 0 0 0 0 0 
0 0 0 0 0 0 0 0 0 189 189 189 255 255 255 
255 255 255 189 189 189 0 0 0 0 0 0 0 0 0 
0 0 0 0 0 0 0 0 0 0 0 0 255 255 255 
255 255 255 4 4 4 0 0 0 137 137 137 255 255 255 
255 255 255 31 31 31 0 0 0 0 0 0 0 0 0 
0 0 0 0 0 0 0 0 0 15 15 15 255 255 255 
255 255 255 159 159 159 0 0 0 0 0 0 255 255 255 
255 255 255 15 15 15 0 0 0 0 0 0 0 0 0 
0 0 0 0 0 0 0 0 0 189 189 189 255 255 255 
255 255 255 189 189 189 0 0 0 0 0 0 0 0 0 
0 0 0 0 0 0 0 0 0 0 0 0 167 167 167 
255 255 255 194 194 194 0 0 0 0 0 0 209 209 209 
255 255 255 255 255 255 158 158 158 56 56 56 0 0 0 
0 0 0 50 50 50 144 144 144 255 255 255 255 255 255 
223 223 223 0 0 0 0 0 0 170 170 170 255 255 255 
193 193 193 0 0 0 0 0 0 0 0 0 0 0 0 
0 0 0 0 0 0 0 0 0 189 189 189 255 255 255 
255 255 255 189 189 189 0 0 0 0 0 0 0 0 0 
0 0 0 0 0 0 0 0 0 0 0 0 0 0 0 
255 255 255 255 255 255 115 115 115 0 0 0 0 0 0 
145 145 145 255 255 255 255 255 255 255 255 255 255 255 255 
255 255 255 255 255 255 255 255 255 255 255 255 158 158 158 
0 0 0 0 0 0 96 96 96 255 255 255 255 255 255 
0 0 0 0 0 0 0 0 0 0 0 0 0 0 0 
0 0 0 0 0 0 0 0 0 189 189 189 255 255 255 
255 255 255 189 189 189 0 0 0 0 0 0 0 0 0 
0 0 0 0 0 0 0 0 0 0 0 0 0 0 0 
55 55 55 255 255 255 255 255 255 120 120 120 0 0 0 
0 0 0 0 0 0 141 141 141 230 230 230 255 255 255 
255 255 255 233 233 233 148 148 148 6 6 6 0 0 0 
0 0 0 104 104 104 255 255 255 255 255 255 75 75 75 
0 0 0 0 0 0 0 0 0 0 0 0 0 0 0 
0 0 0 0 0 0 0 0 0 189 189 189 255 255 255 
255 255 255 189 189 189 0 0 0 0 0 0 0 0 0 
0 0 0 0 0 0 0 0 0 0 0 0 0 0 0 
0 0 0 97 97 97 255 255 255 255 255 255 209 209 209 
4 4 4 0 0 0 0 0 0 0 0 0 0 0 0 
0 0 0 0 0 0 0 0 0 0 0 0 0 0 0 
195 195 195 255 255 255 255 255 255 115 115 115 0 0 0 
0 0 0 0 0 0 0 0 0 0 0 0 0 0 0 
0 0 0 0 0 0 0 0 0 189 189 189 255 255 255 
255 255 255 189 189 189 0 0 0 0 0 0 0 0 0 
0 0 0 0 0 0 0 0 0 0 0 0 0 0 0 
0 0 0 0 0 0 50 50 50 255 255 255 255 255 255 
255 255 255 197 197 197 87 87 87 16 16 16 0 0 0 
0 0 0 9 9 9 83 83 83 193 193 193 255 255 255 
255 255 255 255 255 255 65 65 65 0 0 0 0 0 0 
0 0 0 0 0 0 0 0 0 0 0 0 0 0 0 
0 0 0 0 0 0 0 0 0 189 189 189 255 255 255 
255 255 255 189 189 189 0 0 0 0 0 0 0 0 0 
0 0 0 0 0 0 0 0 0 0 0 0 0 0 0 
0 0 0 0 0 0 0 0 0 0 0 0 155 155 155 
255 255 255 255 255 255 255 255 255 255 255 255 255 255 255 
255 255 255 255 255 255 255 255 255 255 255 255 255 255 255 
165 165 165 0 0 0 0 0 0 0 0 0 0 0 0 
0 0 0 0 0 0 0 0 0 0 0 0 0 0 0 
0 0 0 0 0 0 0 0 0 189 189 189 255 255 255 
255 255 255 189 189 189 0 0 0 0 0 0 0 0 0 
0 0 0 0 0 0 0 0 0 0 0 0 0 0 0 
0 0 0 0 0 0 0 0 0 0 0 0 0 0 0 
0 0 0 98 98 98 255 255 255 255 255 255 255 255 255 
255 255 255 255 255 255 255 255 255 111 111 111 0 0 0 
0 0 0 0 0 0 0 0 0 0 0 0 0 0 0 
0 0 0 0 0 0 0 0 0 0 0 0 0 0 0 
0 0 0 0 0 0 0 0 0 189 189 189 255 255 255 
255 255 255 189 189 189 0 0 0 0 0 0 0 0 0 
0 0 0 0 0 0 0 0 0 0 0 0 0 0 0 
0 0 0 0 0 0 0 0 0 0 0 0 0 0 0 
0 0 0 0 0 0 255 255 255 255 255 255 0 0 0 
0 0 0 255 255 255 255 255 255 0 0 0 0 0 0 
0 0 0 0 0 0 0 0 0 0 0 0 0 0 0 
0 0 0 0 0 0 0 0 0 0 0 0 0 0 0 
0 0 0 0 0 0 0 0 0 189 189 189 255 255 255 
255 255 255 189 189 189 0 0 0 0 0 0 0 0 0 
0 0 0 0 0 0 0 0 0 0 0 0 0 0 0 
0 0 0 0 0 0 0 0 0 0 0 0 0 0 0 
0 0 0 0 0 0 255 255 255 255 255 255 0 0 0 
0 0 0 255 255 255 255 255 255 0 0 0 0 0 0 
0 0 0 0 0 0 0 0 0 0 0 0 0 0 0 
0 0 0 0 0 0 0 0 0 0 0 0 0 0 0 
0 0 0 0 0 0 0 0 0 189 189 189 255 255 255 
255 255 255 187 187 187 0 0 0 0 0 0 0 0 0 
0 0 0 0 0 0 0 0 0 0 0 0 0 0 0 
0 0 0 0 0 0 0 0 0 255 255 255 255 255 255 
255 255 255 255 255 255 255 255 255 255 255 255 255 255 255 
255 255 255 255 255 255 255 255 255 255 255 255 255 255 255 
255 255 255 255 255 255 0 0 0 0 0 0 0 0 0 
0 0 0 0 0 0 0 0 0 0 0 0 0 0 0 
0 0 0 0 0 0 0 0 0 187 187 187 255 255 255 
248 248 248 211 211 211 0 0 0 0 0 0 0 0 0 
0 0 0 0 0 0 0 0 0 0 0 0 0 0 0 
0 0 0 0 0 0 0 0 0 255 255 255 255 255 255 
255 255 255 255 255 255 255 255 255 255 255 255 255 255 255 
255 255 255 255 255 255 255 255 255 255 255 255 255 255 255 
255 255 255 255 255 255 0 0 0 0 0 0 0 0 0 
0 0 0 0 0 0 0 0 0 0 0 0 0 0 0 
0 0 0 0 0 0 0 0 0 211 211 211 246 246 246 
158 158 158 255 255 255 70 70 70 0 0 0 0 0 0 
0 0 0 0 0 0 0 0 0 0 0 0 0 0 0 
0 0 0 0 0 0 0 0 0 0 0 0 0 0 0 
0 0 0 0 0 0 0 0 0 0 0 0 0 0 0 
0 0 0 0 0 0 0 0 0 0 0 0 0 0 0 
0 0 0 0 0 0 0 0 0 0 0 0 0 0 0 
0 0 0 0 0 0 0 0 0 0 0 0 0 0 0 
0 0 0 0 0 0 69 69 69 255 255 255 158 158 158 
0 0 0 255 255 255 255 255 255 213 213 213 186 186 186 
188 188 188 188 188 188 188 188 188 188 188 188 188 188 188 
188 188 188 188 188 188 188 188 188 188 188 188 188 188 188 
188 188 188 188 188 188 188 188 188 188 188 188 188 188 188 
188 188 188 188 188 188 188 188 188 188 188 188 188 188 188 
188 188 188 188 188 188 188 188 188 188 188 188 188 188 188 
188 188 188 188 188 188 188 188 188 188 188 188 188 188 188 
186 186 186 213 213 213 255 255 255 255 255 255 0 0 0 
0 0 0 0 0 0 156 156 156 248 248 248 255 255 255 
255 255 255 255 255 255 255 255 255 255 255 255 255 255 255 
255 255 255 255 255 255 255 255 255 255 255 255 255 255 255 
255 255 255 255 255 255 255 255 255 255 255 255 255 255 255 
255 255 255 255 255 255 255 255 255 255 255 255 255 255 255 
255 255 255 255 255 255 255 255 255 255 255 255 255 255 255 
255 255 255 255 255 255 255 255 255 255 255 255 255 255 255 
255 255 255 248 248 248 155 155 155 0 0 0 0 0 0 
