P3
# Created by IrfanView
40 40
255
255 255 255 255 255 255 255 255 255 255 255 255 255 255 255 
255 255 255 255 255 255 255 255 255 255 255 255 255 255 255 
255 255 255 255 255 255 255 255 255 255 255 255 255 255 255 
255 255 255 255 255 255 255 255 255 255 255 255 255 255 255 
255 255 255 255 255 255 255 255 255 255 255 255 255 255 255 
255 255 255 255 255 255 255 255 255 255 255 255 255 255 255 
255 255 255 255 255 255 255 255 255 255 255 255 255 255 255 
255 255 255 255 255 255 255 255 255 255 255 255 255 255 255 
255 255 255 255 255 255 255 255 255 255 255 255 255 255 255 
255 255 255 255 255 255 255 255 255 255 255 255 255 255 255 
255 255 255 255 255 255 255 255 255 255 255 255 255 255 255 
255 255 255 255 255 255 255 255 255 255 255 255 255 255 255 
255 255 255 255 255 255 255 255 255 255 255 255 255 255 255 
255 255 255 255 255 255 255 255 255 255 255 255 255 255 255 
255 255 255 255 255 255 255 255 255 255 255 255 255 255 255 
255 255 255 255 255 255 255 255 255 255 255 255 255 255 255 
255 255 255 255 255 255 132 132 132 70 70 70 77 77 77 
77 77 77 77 77 77 77 77 77 77 77 77 77 77 77 
77 77 77 77 77 77 77 77 77 77 77 77 77 77 77 
77 77 77 77 77 77 77 77 77 77 77 77 77 77 77 
77 77 77 77 77 77 77 77 77 77 77 77 77 77 77 
77 77 77 77 77 77 77 77 77 77 77 77 77 77 77 
77 77 77 77 77 77 77 77 77 77 77 77 77 77 77 
77 77 77 70 70 70 132 132 132 255 255 255 255 255 255 
255 255 255 255 255 255 70 70 70 0 0 0 0 0 0 
0 0 0 0 0 0 0 0 0 0 0 0 0 0 0 
0 0 0 0 0 0 0 0 0 0 0 0 0 0 0 
0 0 0 0 0 0 0 0 0 0 0 0 0 0 0 
0 0 0 0 0 0 0 0 0 0 0 0 0 0 0 
0 0 0 0 0 0 0 0 0 0 0 0 0 0 0 
0 0 0 0 0 0 0 0 0 0 0 0 0 0 0 
0 0 0 0 0 0 70 70 70 255 255 255 255 255 255 
255 255 255 255 255 255 78 78 78 0 0 0 0 0 0 
0 0 0 0 0 0 0 0 0 0 0 0 0 0 0 
0 0 0 0 0 0 0 0 0 0 0 0 0 0 0 
0 0 0 0 0 0 0 0 0 0 0 0 0 0 0 
0 0 0 0 0 0 0 0 0 0 0 0 0 0 0 
0 0 0 0 0 0 0 0 0 0 0 0 0 0 0 
0 0 0 0 0 0 0 0 0 0 0 0 0 0 0 
0 0 0 0 0 0 78 78 78 255 255 255 255 255 255 
255 255 255 255 255 255 78 78 78 0 0 0 0 0 0 
0 0 0 0 0 0 0 0 0 0 0 0 0 0 0 
0 0 0 0 0 0 0 0 0 0 0 0 0 0 0 
0 0 0 0 0 0 0 0 0 0 0 0 0 0 0 
0 0 0 0 0 0 0 0 0 0 0 0 0 0 0 
0 0 0 0 0 0 0 0 0 0 0 0 0 0 0 
0 0 0 0 0 0 0 0 0 0 0 0 0 0 0 
0 0 0 0 0 0 78 78 78 255 255 255 255 255 255 
255 255 255 255 255 255 78 78 78 0 0 0 0 0 0 
0 0 0 0 0 0 0 0 0 0 0 0 0 0 0 
0 0 0 0 0 0 0 0 0 0 0 0 0 0 0 
0 0 0 0 0 0 0 0 0 0 0 0 0 0 0 
0 0 0 0 0 0 0 0 0 0 0 0 0 0 0 
0 0 0 0 0 0 0 0 0 0 0 0 0 0 0 
0 0 0 0 0 0 0 0 0 0 0 0 0 0 0 
0 0 0 0 0 0 78 78 78 255 255 255 255 255 255 
255 255 255 255 255 255 78 78 78 0 0 0 0 0 0 
0 0 0 0 0 0 0 0 0 0 0 0 0 0 0 
0 0 0 0 0 0 0 0 0 0 0 0 0 0 0 
0 0 0 0 0 0 0 0 0 0 0 0 0 0 0 
0 0 0 0 0 0 0 0 0 0 0 0 0 0 0 
0 0 0 0 0 0 0 0 0 0 0 0 0 0 0 
0 0 0 0 0 0 0 0 0 0 0 0 0 0 0 
0 0 0 0 0 0 78 78 78 255 255 255 255 255 255 
255 255 255 255 255 255 78 78 78 0 0 0 0 0 0 
0 0 0 0 0 0 0 0 0 0 0 0 0 0 0 
0 0 0 0 0 0 0 0 0 0 0 0 0 0 0 
0 0 0 0 0 0 0 0 0 0 0 0 0 0 0 
0 0 0 0 0 0 0 0 0 0 0 0 0 0 0 
0 0 0 0 0 0 0 0 0 0 0 0 0 0 0 
0 0 0 0 0 0 0 0 0 0 0 0 0 0 0 
0 0 0 0 0 0 78 78 78 255 255 255 255 255 255 
255 255 255 255 255 255 78 78 78 0 0 0 0 0 0 
0 0 0 0 0 0 0 0 0 0 0 0 0 0 0 
60 21 22 154 28 33 144 28 32 144 28 32 144 28 32 
144 28 32 151 29 33 89 19 22 0 0 0 0 0 0 
0 0 0 0 0 0 94 24 27 151 28 33 144 28 32 
144 28 32 144 28 32 144 28 32 154 28 33 60 21 22 
0 0 0 0 0 0 0 0 0 0 0 0 0 0 0 
0 0 0 0 0 0 78 78 78 255 255 255 255 255 255 
255 255 255 255 255 255 78 78 78 0 0 0 0 0 0 
0 0 0 0 0 0 0 0 0 0 0 0 0 0 0 
103 27 30 255 28 37 249 28 36 255 28 36 255 28 36 
250 27 36 255 29 38 151 19 24 0 0 0 0 0 0 
0 0 0 0 0 0 160 28 33 255 28 37 251 28 36 
255 28 36 255 28 36 249 28 36 255 28 37 103 27 30 
0 0 0 0 0 0 0 0 0 0 0 0 0 0 0 
0 0 0 0 0 0 78 78 78 255 255 255 255 255 255 
255 255 255 255 255 255 78 78 78 0 0 0 0 0 0 
0 0 0 0 0 0 0 0 0 0 0 0 0 0 0 
97 26 29 254 28 37 238 28 36 189 34 40 190 33 39 
229 32 40 251 28 37 144 19 24 0 0 0 0 0 0 
0 0 0 0 0 0 152 27 33 250 28 36 228 31 38 
190 34 40 189 34 40 238 28 36 254 28 37 97 26 29 
0 0 0 0 0 0 0 0 0 0 0 0 0 0 0 
0 0 0 0 0 0 78 78 78 255 255 255 255 255 255 
255 255 255 255 255 255 78 78 78 0 0 0 0 0 0 
0 0 0 0 0 0 0 0 0 0 0 0 0 0 0 
97 26 29 255 28 36 241 36 44 0 0 0 0 0 0 
191 43 49 255 28 36 144 19 24 0 0 0 0 0 0 
0 0 0 0 0 0 152 27 33 255 28 36 180 33 38 
0 0 0 0 0 0 241 36 44 255 28 36 97 26 29 
0 0 0 0 0 0 0 0 0 0 0 0 0 0 0 
0 0 0 0 0 0 78 78 78 255 255 255 255 255 255 
255 255 255 255 255 255 78 78 78 0 0 0 0 0 0 
0 0 0 0 0 0 0 0 0 0 0 0 0 0 0 
97 26 29 255 28 36 242 36 44 0 0 0 0 0 0 
196 42 49 255 28 36 144 19 24 0 0 0 0 0 0 
0 0 0 0 0 0 152 27 33 255 28 36 186 34 39 
0 0 0 0 0 0 242 36 44 255 28 36 97 26 29 
0 0 0 0 0 0 0 0 0 0 0 0 0 0 0 
0 0 0 0 0 0 78 78 78 255 255 255 255 255 255 
255 255 255 255 255 255 78 78 78 0 0 0 0 0 0 
0 0 0 0 0 0 0 0 0 0 0 0 0 0 0 
97 26 29 255 28 36 242 36 44 0 0 0 0 0 0 
196 42 49 255 28 36 144 19 24 0 0 0 0 0 0 
0 0 0 0 0 0 152 27 33 255 28 36 186 34 39 
0 0 0 0 0 0 242 36 44 255 28 36 97 26 29 
0 0 0 0 0 0 0 0 0 0 0 0 0 0 0 
0 0 0 0 0 0 78 78 78 255 255 255 255 255 255 
255 255 255 255 255 255 78 78 78 0 0 0 0 0 0 
0 0 0 0 0 0 0 0 0 0 0 0 0 0 0 
97 26 29 255 28 36 242 36 44 0 0 0 0 0 0 
196 42 49 255 28 36 144 19 24 0 0 0 0 0 0 
0 0 0 0 0 0 152 27 33 255 28 36 186 34 39 
0 0 0 0 0 0 242 36 44 255 28 36 97 26 29 
0 0 0 0 0 0 0 0 0 0 0 0 0 0 0 
0 0 0 0 0 0 78 78 78 255 255 255 255 255 255 
255 255 255 255 255 255 78 78 78 0 0 0 0 0 0 
0 0 0 0 0 0 0 0 0 0 0 0 0 0 0 
97 26 29 255 28 36 242 36 44 0 0 0 0 0 0 
196 42 49 255 28 36 144 19 24 0 0 0 0 0 0 
0 0 0 0 0 0 152 27 33 255 28 36 186 34 39 
0 0 0 0 0 0 242 36 44 255 28 36 97 26 29 
0 0 0 0 0 0 0 0 0 0 0 0 0 0 0 
0 0 0 0 0 0 78 78 78 255 255 255 255 255 255 
255 255 255 255 255 255 78 78 78 0 0 0 0 0 0 
0 0 0 0 0 0 0 0 0 0 0 0 0 0 0 
97 26 29 255 28 36 242 36 44 0 0 0 0 0 0 
196 42 49 255 28 36 144 19 24 0 0 0 0 0 0 
0 0 0 0 0 0 152 27 33 255 28 36 186 34 39 
0 0 0 0 0 0 242 36 44 255 28 36 97 26 29 
0 0 0 0 0 0 0 0 0 0 0 0 0 0 0 
0 0 0 0 0 0 78 78 78 255 255 255 255 255 255 
255 255 255 255 255 255 78 78 78 0 0 0 0 0 0 
0 0 0 0 0 0 0 0 0 0 0 0 0 0 0 
97 26 29 255 28 36 242 36 44 0 0 0 0 0 0 
196 42 49 255 28 36 144 19 24 0 0 0 0 0 0 
0 0 0 0 0 0 152 27 33 255 28 36 186 34 39 
0 0 0 0 0 0 242 36 44 255 28 36 97 26 29 
0 0 0 0 0 0 0 0 0 0 0 0 0 0 0 
0 0 0 0 0 0 78 78 78 255 255 255 255 255 255 
255 255 255 255 255 255 78 78 78 0 0 0 0 0 0 
0 0 0 0 0 0 0 0 0 0 0 0 0 0 0 
97 26 29 255 28 36 242 36 44 0 0 0 0 0 0 
196 42 49 255 28 36 144 19 24 0 0 0 0 0 0 
0 0 0 0 0 0 152 27 33 255 28 36 186 34 39 
0 0 0 0 0 0 242 36 44 255 28 36 97 26 29 
0 0 0 0 0 0 0 0 0 0 0 0 0 0 0 
0 0 0 0 0 0 78 78 78 255 255 255 255 255 255 
255 255 255 255 255 255 78 78 78 0 0 0 0 0 0 
0 0 0 0 0 0 0 0 0 0 0 0 0 0 0 
97 26 29 255 28 36 242 36 44 0 0 0 0 0 0 
196 42 49 255 28 36 144 19 24 0 0 0 0 0 0 
0 0 0 0 0 0 152 27 33 255 28 36 186 34 39 
0 0 0 0 0 0 242 36 44 255 28 36 97 26 29 
0 0 0 0 0 0 0 0 0 0 0 0 0 0 0 
0 0 0 0 0 0 78 78 78 255 255 255 255 255 255 
255 255 255 255 255 255 78 78 78 0 0 0 0 0 0 
0 0 0 0 0 0 0 0 0 0 0 0 0 0 0 
97 26 29 255 28 36 242 36 44 0 0 0 0 0 0 
196 42 49 255 28 36 144 19 24 0 0 0 0 0 0 
0 0 0 0 0 0 152 27 33 255 28 36 186 34 39 
0 0 0 0 0 0 242 36 44 255 28 36 97 26 29 
0 0 0 0 0 0 0 0 0 0 0 0 0 0 0 
0 0 0 0 0 0 78 78 78 255 255 255 255 255 255 
255 255 255 255 255 255 78 78 78 0 0 0 0 0 0 
0 0 0 0 0 0 0 0 0 0 0 0 0 0 0 
97 26 29 255 28 36 242 36 44 0 0 0 0 0 0 
196 42 49 255 28 36 144 19 24 0 0 0 0 0 0 
0 0 0 0 0 0 152 27 33 255 28 36 186 34 39 
0 0 0 0 0 0 242 36 44 255 28 36 97 26 29 
0 0 0 0 0 0 0 0 0 0 0 0 0 0 0 
0 0 0 0 0 0 78 78 78 255 255 255 255 255 255 
255 255 255 255 255 255 78 78 78 0 0 0 0 0 0 
0 0 0 0 0 0 0 0 0 0 0 0 0 0 0 
97 26 29 255 28 36 242 36 44 0 0 0 0 0 0 
196 42 49 255 28 36 144 19 24 0 0 0 0 0 0 
0 0 0 0 0 0 152 27 33 255 28 36 186 34 39 
0 0 0 0 0 0 242 36 44 255 28 36 97 26 29 
0 0 0 0 0 0 0 0 0 0 0 0 0 0 0 
0 0 0 0 0 0 78 78 78 255 255 255 255 255 255 
255 255 255 255 255 255 78 78 78 0 0 0 0 0 0 
0 0 0 0 0 0 0 0 0 0 0 0 0 0 0 
97 26 29 255 28 36 242 36 44 0 0 0 0 0 0 
196 42 49 255 28 36 144 19 24 0 0 0 0 0 0 
0 0 0 0 0 0 152 27 33 255 28 36 186 34 39 
0 0 0 0 0 0 242 36 44 255 28 36 97 26 29 
0 0 0 0 0 0 0 0 0 0 0 0 0 0 0 
0 0 0 0 0 0 78 78 78 255 255 255 255 255 255 
255 255 255 255 255 255 78 78 78 0 0 0 0 0 0 
0 0 0 0 0 0 0 0 0 0 0 0 0 0 0 
97 26 29 255 28 36 242 36 44 0 0 0 0 0 0 
196 42 49 255 28 36 144 19 24 0 0 0 0 0 0 
0 0 0 0 0 0 152 27 33 255 28 36 186 34 39 
0 0 0 0 0 0 242 36 44 255 28 36 97 26 29 
0 0 0 0 0 0 0 0 0 0 0 0 0 0 0 
0 0 0 0 0 0 78 78 78 255 255 255 255 255 255 
255 255 255 255 255 255 78 78 78 0 0 0 0 0 0 
0 0 0 0 0 0 0 0 0 0 0 0 0 0 0 
97 26 29 255 28 36 242 36 44 0 0 0 0 0 0 
196 42 49 255 28 36 144 19 24 0 0 0 0 0 0 
0 0 0 0 0 0 152 27 33 255 28 36 186 34 39 
0 0 0 0 0 0 242 36 44 255 28 36 97 26 29 
0 0 0 0 0 0 0 0 0 0 0 0 0 0 0 
0 0 0 0 0 0 78 78 78 255 255 255 255 255 255 
255 255 255 255 255 255 78 78 78 0 0 0 0 0 0 
0 0 0 0 0 0 0 0 0 0 0 0 0 0 0 
97 26 29 255 28 36 241 36 44 0 0 0 0 0 0 
191 43 49 255 28 36 144 19 24 0 0 0 0 0 0 
0 0 0 0 0 0 152 27 33 255 28 36 180 33 38 
0 0 0 0 0 0 241 36 44 255 28 36 97 26 29 
0 0 0 0 0 0 0 0 0 0 0 0 0 0 0 
0 0 0 0 0 0 78 78 78 255 255 255 255 255 255 
255 255 255 255 255 255 78 78 78 0 0 0 0 0 0 
0 0 0 0 0 0 0 0 0 0 0 0 0 0 0 
97 26 29 254 28 37 238 28 36 189 34 40 190 33 39 
229 32 40 251 28 37 144 19 24 0 0 0 0 0 0 
0 0 0 0 0 0 152 27 33 250 28 36 228 31 38 
190 34 40 189 34 40 238 28 36 254 28 37 97 26 29 
0 0 0 0 0 0 0 0 0 0 0 0 0 0 0 
0 0 0 0 0 0 78 78 78 255 255 255 255 255 255 
255 255 255 255 255 255 78 78 78 0 0 0 0 0 0 
0 0 0 0 0 0 0 0 0 0 0 0 0 0 0 
103 27 30 255 28 37 249 28 36 255 28 36 255 28 36 
250 27 36 255 29 38 151 19 24 0 0 0 0 0 0 
0 0 0 0 0 0 160 28 33 255 28 37 251 28 36 
255 28 36 255 28 36 249 28 36 255 28 37 103 27 30 
0 0 0 0 0 0 0 0 0 0 0 0 0 0 0 
0 0 0 0 0 0 78 78 78 255 255 255 255 255 255 
255 255 255 255 255 255 78 78 78 0 0 0 0 0 0 
0 0 0 0 0 0 0 0 0 0 0 0 0 0 0 
60 21 22 154 28 33 144 28 32 144 28 32 144 28 32 
144 28 32 151 29 33 89 19 22 0 0 0 0 0 0 
0 0 0 0 0 0 94 24 27 151 28 33 144 28 32 
144 28 32 144 28 32 144 28 32 154 28 33 60 21 22 
0 0 0 0 0 0 0 0 0 0 0 0 0 0 0 
0 0 0 0 0 0 78 78 78 255 255 255 255 255 255 
255 255 255 255 255 255 78 78 78 0 0 0 0 0 0 
0 0 0 0 0 0 0 0 0 0 0 0 0 0 0 
0 0 0 0 0 0 0 0 0 0 0 0 0 0 0 
0 0 0 0 0 0 0 0 0 0 0 0 0 0 0 
0 0 0 0 0 0 0 0 0 0 0 0 0 0 0 
0 0 0 0 0 0 0 0 0 0 0 0 0 0 0 
0 0 0 0 0 0 0 0 0 0 0 0 0 0 0 
0 0 0 0 0 0 78 78 78 255 255 255 255 255 255 
255 255 255 255 255 255 78 78 78 0 0 0 0 0 0 
0 0 0 0 0 0 0 0 0 0 0 0 0 0 0 
0 0 0 0 0 0 0 0 0 0 0 0 0 0 0 
0 0 0 0 0 0 0 0 0 0 0 0 0 0 0 
0 0 0 0 0 0 0 0 0 0 0 0 0 0 0 
0 0 0 0 0 0 0 0 0 0 0 0 0 0 0 
0 0 0 0 0 0 0 0 0 0 0 0 0 0 0 
0 0 0 0 0 0 78 78 78 255 255 255 255 255 255 
255 255 255 255 255 255 78 78 78 0 0 0 0 0 0 
0 0 0 0 0 0 0 0 0 0 0 0 0 0 0 
0 0 0 0 0 0 0 0 0 0 0 0 0 0 0 
0 0 0 0 0 0 0 0 0 0 0 0 0 0 0 
0 0 0 0 0 0 0 0 0 0 0 0 0 0 0 
0 0 0 0 0 0 0 0 0 0 0 0 0 0 0 
0 0 0 0 0 0 0 0 0 0 0 0 0 0 0 
0 0 0 0 0 0 78 78 78 255 255 255 255 255 255 
255 255 255 255 255 255 78 78 78 0 0 0 0 0 0 
0 0 0 0 0 0 0 0 0 0 0 0 0 0 0 
0 0 0 0 0 0 0 0 0 0 0 0 0 0 0 
0 0 0 0 0 0 0 0 0 0 0 0 0 0 0 
0 0 0 0 0 0 0 0 0 0 0 0 0 0 0 
0 0 0 0 0 0 0 0 0 0 0 0 0 0 0 
0 0 0 0 0 0 0 0 0 0 0 0 0 0 0 
0 0 0 0 0 0 78 78 78 255 255 255 255 255 255 
255 255 255 255 255 255 78 78 78 0 0 0 0 0 0 
0 0 0 0 0 0 0 0 0 0 0 0 0 0 0 
0 0 0 0 0 0 0 0 0 0 0 0 0 0 0 
0 0 0 0 0 0 0 0 0 0 0 0 0 0 0 
0 0 0 0 0 0 0 0 0 0 0 0 0 0 0 
0 0 0 0 0 0 0 0 0 0 0 0 0 0 0 
0 0 0 0 0 0 0 0 0 0 0 0 0 0 0 
0 0 0 0 0 0 78 78 78 255 255 255 255 255 255 
255 255 255 255 255 255 70 70 70 0 0 0 0 0 0 
0 0 0 0 0 0 0 0 0 0 0 0 0 0 0 
0 0 0 0 0 0 0 0 0 0 0 0 0 0 0 
0 0 0 0 0 0 0 0 0 0 0 0 0 0 0 
0 0 0 0 0 0 0 0 0 0 0 0 0 0 0 
0 0 0 0 0 0 0 0 0 0 0 0 0 0 0 
0 0 0 0 0 0 0 0 0 0 0 0 0 0 0 
0 0 0 0 0 0 70 70 70 255 255 255 255 255 255 
255 255 255 255 255 255 132 132 132 70 70 70 77 77 77 
77 77 77 77 77 77 77 77 77 77 77 77 77 77 77 
77 77 77 77 77 77 77 77 77 77 77 77 77 77 77 
77 77 77 77 77 77 77 77 77 77 77 77 77 77 77 
77 77 77 77 77 77 77 77 77 77 77 77 77 77 77 
77 77 77 77 77 77 77 77 77 77 77 77 77 77 77 
77 77 77 77 77 77 77 77 77 77 77 77 77 77 77 
77 77 77 70 70 70 132 132 132 255 255 255 255 255 255 
255 255 255 255 255 255 255 255 255 255 255 255 255 255 255 
255 255 255 255 255 255 255 255 255 255 255 255 255 255 255 
255 255 255 255 255 255 255 255 255 255 255 255 255 255 255 
255 255 255 255 255 255 255 255 255 255 255 255 255 255 255 
255 255 255 255 255 255 255 255 255 255 255 255 255 255 255 
255 255 255 255 255 255 255 255 255 255 255 255 255 255 255 
255 255 255 255 255 255 255 255 255 255 255 255 255 255 255 
255 255 255 255 255 255 255 255 255 255 255 255 255 255 255 
255 255 255 255 255 255 255 255 255 255 255 255 255 255 255 
255 255 255 255 255 255 255 255 255 255 255 255 255 255 255 
255 255 255 255 255 255 255 255 255 255 255 255 255 255 255 
255 255 255 255 255 255 255 255 255 255 255 255 255 255 255 
255 255 255 255 255 255 255 255 255 255 255 255 255 255 255 
255 255 255 255 255 255 255 255 255 255 255 255 255 255 255 
255 255 255 255 255 255 255 255 255 255 255 255 255 255 255 
255 255 255 255 255 255 255 255 255 255 255 255 255 255 255 
