P3
# Created by IrfanView
40 35
255
255 255 255 255 255 255 255 255 255 255 255 255 255 255 255 
255 255 255 255 255 255 255 255 255 255 255 255 255 255 255 
255 255 255 255 255 255 255 255 255 255 255 255 255 255 255 
255 255 255 255 255 255 255 255 255 255 255 255 255 255 255 
255 255 255 255 255 255 255 255 255 255 255 255 255 255 255 
255 255 255 255 255 255 255 255 255 255 255 255 255 255 255 
255 255 255 255 255 255 255 255 255 255 255 255 255 255 255 
255 255 255 255 255 255 255 255 255 255 255 255 255 255 255 
255 255 255 255 255 255 255 255 255 255 255 255 255 255 255 
255 255 255 255 255 255 255 255 255 255 255 255 255 255 255 
255 255 255 255 255 255 255 255 255 255 255 255 255 255 255 
255 255 255 255 255 255 255 255 255 255 255 255 255 255 255 
255 255 255 255 255 255 255 255 255 255 255 255 255 255 255 
255 255 255 255 255 255 255 255 255 255 255 255 255 255 255 
255 255 255 255 255 255 255 255 255 255 255 255 255 255 255 
255 255 255 255 255 255 255 255 255 255 255 255 255 255 255 
255 255 255 255 255 255 255 255 255 255 255 255 255 255 255 
255 255 255 255 255 255 34 177 76 34 177 76 34 177 76 
34 177 76 255 255 255 255 255 255 255 255 255 255 255 255 
255 255 255 255 255 255 255 255 255 255 255 255 255 255 255 
255 255 255 255 255 255 255 255 255 255 255 255 255 255 255 
255 255 255 255 255 255 255 255 255 255 255 255 255 255 255 
255 255 255 255 255 255 255 255 255 255 255 255 255 255 255 
255 255 255 255 255 255 255 255 255 255 255 255 255 255 255 
255 255 255 255 255 255 255 255 255 255 255 255 255 255 255 
255 255 255 255 255 255 34 177 76 34 177 76 34 177 76 
34 177 76 34 177 76 34 177 76 255 255 255 255 255 255 
255 255 255 255 255 255 255 255 255 255 255 255 255 255 255 
255 255 255 255 255 255 255 255 255 255 255 255 255 255 255 
255 255 255 255 255 255 255 255 255 255 255 255 255 255 255 
255 255 255 255 255 255 255 255 255 255 255 255 255 255 255 
255 255 255 255 255 255 255 255 255 255 255 255 255 255 255 
255 255 255 255 255 255 255 255 255 255 255 255 255 255 255 
255 255 255 34 177 76 34 177 76 34 177 76 34 177 76 
34 177 76 34 177 76 34 177 76 34 177 76 34 177 76 
255 255 255 255 255 255 255 255 255 255 255 255 255 255 255 
255 255 255 255 255 255 255 255 255 255 255 255 255 255 255 
255 255 255 255 255 255 255 255 255 255 255 255 255 255 255 
255 255 255 255 255 255 255 255 255 255 255 255 255 255 255 
255 255 255 255 255 255 255 255 255 255 255 255 255 255 255 
255 255 255 255 255 255 255 255 255 255 255 255 255 255 255 
255 255 255 34 177 76 34 177 76 34 177 76 34 177 76 
34 177 76 34 177 76 34 177 76 34 177 76 34 177 76 
34 177 76 34 177 76 255 255 255 255 255 255 255 255 255 
255 255 255 255 255 255 255 255 255 255 255 255 255 255 255 
255 255 255 255 255 255 255 255 255 255 255 255 255 255 255 
255 255 255 255 255 255 255 255 255 255 255 255 255 255 255 
255 255 255 255 255 255 255 255 255 255 255 255 255 255 255 
255 255 255 255 255 255 255 255 255 255 255 255 255 255 255 
255 255 255 34 177 76 34 177 76 34 177 76 34 177 76 
34 177 76 34 177 76 34 177 76 34 177 76 34 177 76 
34 177 76 34 177 76 34 177 76 255 255 255 255 255 255 
255 255 255 255 255 255 255 255 255 255 255 255 255 255 255 
255 255 255 255 255 255 255 255 255 255 255 255 255 255 255 
255 255 255 255 255 255 255 255 255 255 255 255 255 255 255 
255 255 255 255 255 255 255 255 255 255 255 255 255 255 255 
255 255 255 255 255 255 255 255 255 255 255 255 255 255 255 
255 255 255 34 177 76 34 177 76 34 177 76 34 177 76 
34 177 76 34 177 76 34 177 76 34 177 76 34 177 76 
34 177 76 34 177 76 34 177 76 34 177 76 34 177 76 
255 255 255 255 255 255 255 255 255 255 255 255 255 255 255 
255 255 255 255 255 255 255 255 255 255 255 255 255 255 255 
255 255 255 255 255 255 255 255 255 255 255 255 255 255 255 
255 255 255 255 255 255 255 255 255 255 255 255 255 255 255 
255 255 255 255 255 255 255 255 255 255 255 255 255 255 255 
255 255 255 34 177 76 34 177 76 34 177 76 34 177 76 
34 177 76 34 177 76 34 177 76 34 177 76 34 177 76 
34 177 76 34 177 76 34 177 76 34 177 76 34 177 76 
34 177 76 34 177 76 255 255 255 255 255 255 255 255 255 
255 255 255 255 255 255 255 255 255 255 255 255 255 255 255 
255 255 255 255 255 255 255 255 255 255 255 255 255 255 255 
255 255 255 255 255 255 255 255 255 255 255 255 255 255 255 
255 255 255 255 255 255 255 255 255 255 255 255 255 255 255 
255 255 255 34 177 76 34 177 76 34 177 76 34 177 76 
34 177 76 34 177 76 34 177 76 34 177 76 34 177 76 
34 177 76 34 177 76 34 177 76 34 177 76 34 177 76 
34 177 76 34 177 76 34 177 76 34 177 76 255 255 255 
255 255 255 255 255 255 255 255 255 255 255 255 255 255 255 
255 255 255 255 255 255 255 255 255 255 255 255 255 255 255 
255 255 255 255 255 255 255 255 255 255 255 255 255 255 255 
255 255 255 255 255 255 255 255 255 255 255 255 255 255 255 
255 255 255 34 177 76 34 177 76 34 177 76 34 177 76 
34 177 76 34 177 76 34 177 76 34 177 76 34 177 76 
34 177 76 34 177 76 34 177 76 34 177 76 34 177 76 
34 177 76 34 177 76 34 177 76 34 177 76 34 177 76 
34 177 76 255 255 255 255 255 255 255 255 255 255 255 255 
255 255 255 255 255 255 255 255 255 255 255 255 255 255 255 
255 255 255 255 255 255 255 255 255 255 255 255 255 255 255 
255 255 255 255 255 255 255 255 255 255 255 255 255 255 255 
255 255 255 34 177 76 34 177 76 34 177 76 34 177 76 
34 177 76 34 177 76 34 177 76 34 177 76 34 177 76 
34 177 76 34 177 76 34 177 76 34 177 76 34 177 76 
34 177 76 34 177 76 34 177 76 34 177 76 34 177 76 
34 177 76 34 177 76 255 255 255 255 255 255 255 255 255 
255 255 255 255 255 255 255 255 255 255 255 255 255 255 255 
255 255 255 255 255 255 255 255 255 255 255 255 255 255 255 
255 255 255 255 255 255 255 255 255 255 255 255 255 255 255 
255 255 255 34 177 76 34 177 76 34 177 76 34 177 76 
34 177 76 34 177 76 34 177 76 34 177 76 34 177 76 
34 177 76 34 177 76 34 177 76 34 177 76 34 177 76 
34 177 76 34 177 76 34 177 76 34 177 76 34 177 76 
34 177 76 34 177 76 34 177 76 34 177 76 255 255 255 
255 255 255 255 255 255 255 255 255 255 255 255 255 255 255 
255 255 255 255 255 255 255 255 255 255 255 255 255 255 255 
255 255 255 255 255 255 255 255 255 255 255 255 255 255 255 
255 255 255 34 177 76 34 177 76 34 177 76 34 177 76 
34 177 76 34 177 76 34 177 76 34 177 76 34 177 76 
34 177 76 34 177 76 34 177 76 34 177 76 34 177 76 
34 177 76 34 177 76 34 177 76 34 177 76 34 177 76 
34 177 76 34 177 76 34 177 76 34 177 76 34 177 76 
34 177 76 255 255 255 255 255 255 255 255 255 255 255 255 
255 255 255 255 255 255 255 255 255 255 255 255 255 255 255 
255 255 255 255 255 255 255 255 255 255 255 255 255 255 255 
255 255 255 34 177 76 34 177 76 34 177 76 34 177 76 
34 177 76 34 177 76 34 177 76 34 177 76 34 177 76 
34 177 76 34 177 76 34 177 76 34 177 76 34 177 76 
34 177 76 34 177 76 34 177 76 34 177 76 34 177 76 
34 177 76 34 177 76 34 177 76 34 177 76 34 177 76 
34 177 76 34 177 76 34 177 76 255 255 255 255 255 255 
255 255 255 255 255 255 255 255 255 255 255 255 255 255 255 
255 255 255 255 255 255 255 255 255 255 255 255 255 255 255 
255 255 255 34 177 76 34 177 76 34 177 76 34 177 76 
34 177 76 34 177 76 34 177 76 34 177 76 34 177 76 
34 177 76 34 177 76 34 177 76 34 177 76 34 177 76 
34 177 76 34 177 76 34 177 76 34 177 76 34 177 76 
34 177 76 34 177 76 34 177 76 34 177 76 34 177 76 
34 177 76 34 177 76 34 177 76 34 177 76 255 255 255 
255 255 255 255 255 255 255 255 255 255 255 255 255 255 255 
255 255 255 255 255 255 255 255 255 255 255 255 255 255 255 
255 255 255 34 177 76 34 177 76 34 177 76 34 177 76 
34 177 76 34 177 76 34 177 76 34 177 76 34 177 76 
34 177 76 34 177 76 34 177 76 34 177 76 34 177 76 
34 177 76 34 177 76 34 177 76 34 177 76 34 177 76 
34 177 76 34 177 76 34 177 76 34 177 76 34 177 76 
34 177 76 34 177 76 34 177 76 34 177 76 34 177 76 
255 255 255 255 255 255 255 255 255 255 255 255 255 255 255 
255 255 255 255 255 255 255 255 255 255 255 255 255 255 255 
255 255 255 34 177 76 34 177 76 34 177 76 34 177 76 
34 177 76 34 177 76 34 177 76 34 177 76 34 177 76 
34 177 76 34 177 76 34 177 76 34 177 76 34 177 76 
34 177 76 34 177 76 34 177 76 34 177 76 34 177 76 
34 177 76 34 177 76 34 177 76 34 177 76 34 177 76 
34 177 76 34 177 76 34 177 76 34 177 76 34 177 76 
255 255 255 255 255 255 255 255 255 255 255 255 255 255 255 
255 255 255 255 255 255 255 255 255 255 255 255 255 255 255 
255 255 255 34 177 76 34 177 76 34 177 76 34 177 76 
34 177 76 34 177 76 34 177 76 34 177 76 34 177 76 
34 177 76 34 177 76 34 177 76 34 177 76 34 177 76 
34 177 76 34 177 76 34 177 76 34 177 76 34 177 76 
34 177 76 34 177 76 34 177 76 34 177 76 34 177 76 
34 177 76 34 177 76 34 177 76 34 177 76 34 177 76 
255 255 255 255 255 255 255 255 255 255 255 255 255 255 255 
255 255 255 255 255 255 255 255 255 255 255 255 255 255 255 
255 255 255 34 177 76 34 177 76 34 177 76 34 177 76 
34 177 76 34 177 76 34 177 76 34 177 76 34 177 76 
34 177 76 34 177 76 34 177 76 34 177 76 34 177 76 
34 177 76 34 177 76 34 177 76 34 177 76 34 177 76 
34 177 76 34 177 76 34 177 76 34 177 76 34 177 76 
34 177 76 34 177 76 34 177 76 34 177 76 255 255 255 
255 255 255 255 255 255 255 255 255 255 255 255 255 255 255 
255 255 255 255 255 255 255 255 255 255 255 255 255 255 255 
255 255 255 34 177 76 34 177 76 34 177 76 34 177 76 
34 177 76 34 177 76 34 177 76 34 177 76 34 177 76 
34 177 76 34 177 76 34 177 76 34 177 76 34 177 76 
34 177 76 34 177 76 34 177 76 34 177 76 34 177 76 
34 177 76 34 177 76 34 177 76 34 177 76 34 177 76 
34 177 76 34 177 76 34 177 76 255 255 255 255 255 255 
255 255 255 255 255 255 255 255 255 255 255 255 255 255 255 
255 255 255 255 255 255 255 255 255 255 255 255 255 255 255 
255 255 255 34 177 76 34 177 76 34 177 76 34 177 76 
34 177 76 34 177 76 34 177 76 34 177 76 34 177 76 
34 177 76 34 177 76 34 177 76 34 177 76 34 177 76 
34 177 76 34 177 76 34 177 76 34 177 76 34 177 76 
34 177 76 34 177 76 34 177 76 34 177 76 34 177 76 
34 177 76 255 255 255 255 255 255 255 255 255 255 255 255 
255 255 255 255 255 255 255 255 255 255 255 255 255 255 255 
255 255 255 255 255 255 255 255 255 255 255 255 255 255 255 
255 255 255 34 177 76 34 177 76 34 177 76 34 177 76 
34 177 76 34 177 76 34 177 76 34 177 76 34 177 76 
34 177 76 34 177 76 34 177 76 34 177 76 34 177 76 
34 177 76 34 177 76 34 177 76 34 177 76 34 177 76 
34 177 76 34 177 76 34 177 76 34 177 76 255 255 255 
255 255 255 255 255 255 255 255 255 255 255 255 255 255 255 
255 255 255 255 255 255 255 255 255 255 255 255 255 255 255 
255 255 255 255 255 255 255 255 255 255 255 255 255 255 255 
255 255 255 34 177 76 34 177 76 34 177 76 34 177 76 
34 177 76 34 177 76 34 177 76 34 177 76 34 177 76 
34 177 76 34 177 76 34 177 76 34 177 76 34 177 76 
34 177 76 34 177 76 34 177 76 34 177 76 34 177 76 
34 177 76 34 177 76 255 255 255 255 255 255 255 255 255 
255 255 255 255 255 255 255 255 255 255 255 255 255 255 255 
255 255 255 255 255 255 255 255 255 255 255 255 255 255 255 
255 255 255 255 255 255 255 255 255 255 255 255 255 255 255 
255 255 255 34 177 76 34 177 76 34 177 76 34 177 76 
34 177 76 34 177 76 34 177 76 34 177 76 34 177 76 
34 177 76 34 177 76 34 177 76 34 177 76 34 177 76 
34 177 76 34 177 76 34 177 76 34 177 76 34 177 76 
34 177 76 255 255 255 255 255 255 255 255 255 255 255 255 
255 255 255 255 255 255 255 255 255 255 255 255 255 255 255 
255 255 255 255 255 255 255 255 255 255 255 255 255 255 255 
255 255 255 255 255 255 255 255 255 255 255 255 255 255 255 
255 255 255 34 177 76 34 177 76 34 177 76 34 177 76 
34 177 76 34 177 76 34 177 76 34 177 76 34 177 76 
34 177 76 34 177 76 34 177 76 34 177 76 34 177 76 
34 177 76 34 177 76 34 177 76 34 177 76 255 255 255 
255 255 255 255 255 255 255 255 255 255 255 255 255 255 255 
255 255 255 255 255 255 255 255 255 255 255 255 255 255 255 
255 255 255 255 255 255 255 255 255 255 255 255 255 255 255 
255 255 255 255 255 255 255 255 255 255 255 255 255 255 255 
255 255 255 34 177 76 34 177 76 34 177 76 34 177 76 
34 177 76 34 177 76 34 177 76 34 177 76 34 177 76 
34 177 76 34 177 76 34 177 76 34 177 76 34 177 76 
34 177 76 34 177 76 255 255 255 255 255 255 255 255 255 
255 255 255 255 255 255 255 255 255 255 255 255 255 255 255 
255 255 255 255 255 255 255 255 255 255 255 255 255 255 255 
255 255 255 255 255 255 255 255 255 255 255 255 255 255 255 
255 255 255 255 255 255 255 255 255 255 255 255 255 255 255 
255 255 255 34 177 76 34 177 76 34 177 76 34 177 76 
34 177 76 34 177 76 34 177 76 34 177 76 34 177 76 
34 177 76 34 177 76 34 177 76 34 177 76 34 177 76 
255 255 255 255 255 255 255 255 255 255 255 255 255 255 255 
255 255 255 255 255 255 255 255 255 255 255 255 255 255 255 
255 255 255 255 255 255 255 255 255 255 255 255 255 255 255 
255 255 255 255 255 255 255 255 255 255 255 255 255 255 255 
255 255 255 255 255 255 255 255 255 255 255 255 255 255 255 
255 255 255 34 177 76 34 177 76 34 177 76 34 177 76 
34 177 76 34 177 76 34 177 76 34 177 76 34 177 76 
34 177 76 34 177 76 34 177 76 34 177 76 255 255 255 
255 255 255 255 255 255 255 255 255 255 255 255 255 255 255 
255 255 255 255 255 255 255 255 255 255 255 255 255 255 255 
255 255 255 255 255 255 255 255 255 255 255 255 255 255 255 
255 255 255 255 255 255 255 255 255 255 255 255 255 255 255 
255 255 255 255 255 255 255 255 255 255 255 255 255 255 255 
255 255 255 34 177 76 34 177 76 34 177 76 34 177 76 
34 177 76 34 177 76 34 177 76 34 177 76 34 177 76 
34 177 76 34 177 76 255 255 255 255 255 255 255 255 255 
255 255 255 255 255 255 255 255 255 255 255 255 255 255 255 
255 255 255 255 255 255 255 255 255 255 255 255 255 255 255 
255 255 255 255 255 255 255 255 255 255 255 255 255 255 255 
255 255 255 255 255 255 255 255 255 255 255 255 255 255 255 
255 255 255 255 255 255 255 255 255 255 255 255 255 255 255 
255 255 255 34 177 76 34 177 76 34 177 76 34 177 76 
34 177 76 34 177 76 34 177 76 34 177 76 34 177 76 
255 255 255 255 255 255 255 255 255 255 255 255 255 255 255 
255 255 255 255 255 255 255 255 255 255 255 255 255 255 255 
255 255 255 255 255 255 255 255 255 255 255 255 255 255 255 
255 255 255 255 255 255 255 255 255 255 255 255 255 255 255 
255 255 255 255 255 255 255 255 255 255 255 255 255 255 255 
255 255 255 255 255 255 255 255 255 255 255 255 255 255 255 
255 255 255 255 255 255 34 177 76 34 177 76 34 177 76 
34 177 76 34 177 76 34 177 76 255 255 255 255 255 255 
255 255 255 255 255 255 255 255 255 255 255 255 255 255 255 
255 255 255 255 255 255 255 255 255 255 255 255 255 255 255 
255 255 255 255 255 255 255 255 255 255 255 255 255 255 255 
255 255 255 255 255 255 255 255 255 255 255 255 255 255 255 
255 255 255 255 255 255 255 255 255 255 255 255 255 255 255 
255 255 255 255 255 255 255 255 255 255 255 255 255 255 255 
255 255 255 255 255 255 34 177 76 34 177 76 34 177 76 
34 177 76 255 255 255 255 255 255 255 255 255 255 255 255 
255 255 255 255 255 255 255 255 255 255 255 255 255 255 255 
255 255 255 255 255 255 255 255 255 255 255 255 255 255 255 
255 255 255 255 255 255 255 255 255 255 255 255 255 255 255 
255 255 255 255 255 255 255 255 255 255 255 255 255 255 255 
255 255 255 255 255 255 255 255 255 255 255 255 255 255 255 
255 255 255 255 255 255 255 255 255 255 255 255 255 255 255 
255 255 255 255 255 255 255 255 255 255 255 255 255 255 255 
255 255 255 255 255 255 255 255 255 255 255 255 255 255 255 
255 255 255 255 255 255 255 255 255 255 255 255 255 255 255 
255 255 255 255 255 255 255 255 255 255 255 255 255 255 255 
255 255 255 255 255 255 255 255 255 255 255 255 255 255 255 
255 255 255 255 255 255 255 255 255 255 255 255 255 255 255 
255 255 255 255 255 255 255 255 255 255 255 255 255 255 255 
255 255 255 255 255 255 255 255 255 255 255 255 255 255 255 
255 255 255 255 255 255 255 255 255 255 255 255 255 255 255 
255 255 255 255 255 255 255 255 255 255 255 255 255 255 255 
255 255 255 255 255 255 255 255 255 255 255 255 255 255 255 
255 255 255 255 255 255 255 255 255 255 255 255 255 255 255 
255 255 255 255 255 255 255 255 255 255 255 255 255 255 255 
255 255 255 255 255 255 255 255 255 255 255 255 255 255 255 
255 255 255 255 255 255 255 255 255 255 255 255 255 255 255 
