P3
# Created by IrfanView
40 40
255
0 0 0 10 0 0 18 105 151 14 159 236 2 164 251 
3 165 252 3 165 252 3 165 252 3 165 252 3 165 252 
3 165 252 3 165 252 3 165 252 3 165 252 3 165 252 
3 165 252 3 165 252 3 165 252 3 165 252 3 165 252 
3 165 252 3 165 252 3 165 252 3 165 252 3 165 252 
3 165 252 3 165 252 3 165 252 3 165 252 3 165 252 
3 165 252 3 165 252 3 165 252 3 165 252 3 165 252 
2 164 251 14 159 236 17 104 151 9 0 0 0 0 0 
9 0 0 14 171 255 0 183 255 18 139 204 19 123 178 
20 124 180 19 124 180 19 124 180 19 124 180 19 124 180 
19 124 180 19 124 180 19 124 180 19 124 180 19 124 180 
19 124 180 19 124 180 19 124 180 19 124 180 19 124 180 
19 124 180 19 124 180 19 124 180 19 124 180 19 124 180 
19 124 180 19 124 180 19 124 180 19 124 180 19 124 180 
19 124 180 19 124 180 19 124 180 19 124 180 20 124 180 
19 123 178 18 139 204 0 183 255 14 171 255 9 0 0 
17 104 151 0 183 255 26 53 68 0 0 0 0 0 0 
0 0 0 0 0 0 0 0 0 0 0 0 0 0 0 
0 0 0 0 0 0 0 0 0 0 0 0 0 0 0 
0 0 0 0 0 0 0 0 0 0 0 0 0 0 0 
0 0 0 0 0 0 0 0 0 0 0 0 0 0 0 
0 0 0 0 0 0 0 0 0 0 0 0 0 0 0 
0 0 0 0 0 0 0 0 0 0 0 0 0 0 0 
0 0 0 0 0 0 26 53 68 0 183 255 17 105 151 
13 159 237 18 138 202 0 0 0 0 0 0 0 0 0 
0 0 0 0 0 0 0 0 0 0 0 0 0 0 0 
0 0 0 0 0 0 0 0 0 0 0 0 0 0 0 
0 0 0 0 0 0 0 0 0 0 0 0 0 0 0 
0 0 0 0 0 0 0 0 0 0 0 0 0 0 0 
0 0 0 0 0 0 0 0 0 0 0 0 0 0 0 
0 0 0 0 0 0 0 0 0 0 0 0 0 0 0 
0 0 0 0 0 0 0 0 0 18 138 202 14 158 235 
2 163 249 19 123 178 0 0 0 0 0 0 0 0 0 
0 0 0 0 0 0 0 0 0 0 0 0 0 0 0 
0 0 0 0 0 0 0 0 0 0 0 0 0 0 0 
0 0 0 0 0 0 0 0 0 0 0 0 0 0 0 
0 0 0 0 0 0 0 0 0 0 0 0 0 0 0 
0 0 0 0 0 0 0 0 0 0 0 0 0 0 0 
0 0 0 0 0 0 0 0 0 0 0 0 0 0 0 
0 0 0 0 0 0 0 0 0 19 123 178 2 163 249 
3 165 252 19 125 180 0 0 0 0 0 0 0 0 0 
0 0 0 0 0 0 0 0 0 0 0 0 0 0 0 
0 0 0 0 0 0 0 0 0 0 0 0 0 0 0 
0 0 0 0 0 0 0 0 0 0 0 0 0 0 0 
0 0 0 0 0 0 0 0 0 0 0 0 0 0 0 
0 0 0 0 0 0 0 0 0 0 0 0 0 0 0 
0 0 0 0 0 0 0 0 0 0 0 0 0 0 0 
0 0 0 0 0 0 0 0 0 19 125 180 3 165 252 
3 165 252 19 125 180 0 0 0 0 0 0 0 0 0 
0 0 0 0 0 0 0 0 0 0 0 0 0 0 0 
0 0 0 0 0 0 0 0 0 16 34 44 14 48 66 
7 0 0 0 0 0 0 0 0 0 0 0 0 0 0 
0 0 0 0 0 0 0 0 0 0 0 0 0 0 0 
0 0 0 0 0 0 0 0 0 0 0 0 0 0 0 
0 0 0 0 0 0 0 0 0 0 0 0 0 0 0 
0 0 0 0 0 0 0 0 0 19 125 180 3 165 252 
3 165 252 19 125 180 0 0 0 0 0 0 0 0 0 
0 0 0 0 0 0 0 0 0 0 0 0 0 0 0 
0 0 0 0 0 0 29 125 176 0 185 255 1 184 255 
17 172 255 9 1 0 0 0 0 0 0 0 0 0 0 
0 0 0 0 0 0 0 0 0 0 0 0 0 0 0 
0 0 0 0 0 0 0 0 0 0 0 0 0 0 0 
0 0 0 0 0 0 0 0 0 0 0 0 0 0 0 
0 0 0 0 0 0 0 0 0 19 125 180 3 165 252 
3 165 252 19 125 180 0 0 0 0 0 0 0 0 0 
0 0 0 0 0 0 0 0 0 0 0 0 0 0 0 
0 0 0 17 32 40 0 185 255 16 123 181 22 78 108 
0 181 255 18 103 148 0 0 0 0 0 0 0 0 0 
0 0 0 0 0 0 0 0 0 0 0 0 0 0 0 
0 0 0 0 0 0 0 0 0 0 0 0 0 0 0 
0 0 0 0 0 0 0 0 0 0 0 0 0 0 0 
0 0 0 0 0 0 0 0 0 19 125 180 3 165 252 
3 165 252 19 125 180 0 0 0 0 0 0 0 0 0 
0 0 0 0 0 0 0 0 0 0 0 0 0 0 0 
0 0 0 20 98 138 1 185 255 17 18 19 0 0 0 
18 160 237 16 165 244 0 0 0 0 0 0 0 0 0 
0 0 0 0 0 0 0 0 0 0 0 0 0 0 0 
0 0 0 0 0 0 0 0 0 0 0 0 0 0 0 
0 0 0 0 0 0 0 0 0 0 0 0 0 0 0 
0 0 0 0 0 0 0 0 0 19 125 180 3 165 252 
3 165 252 19 125 180 0 0 0 0 0 0 0 0 0 
0 0 0 0 0 0 0 0 0 0 0 0 0 0 0 
0 0 0 18 158 233 16 167 248 0 0 0 0 0 0 
17 95 137 1 186 255 15 19 21 0 0 0 0 0 0 
0 0 0 0 0 0 0 0 0 0 0 0 0 0 0 
0 0 0 0 0 0 0 0 0 0 0 0 0 0 0 
0 0 0 0 0 0 0 0 0 0 0 0 0 0 0 
0 0 0 0 0 0 0 0 0 19 125 180 3 165 252 
3 165 252 19 125 180 0 0 0 0 0 0 0 0 0 
0 0 0 0 0 0 0 0 0 0 0 0 0 0 0 
17 14 12 1 185 255 19 105 152 0 0 0 0 0 0 
18 37 47 1 185 255 16 80 115 0 0 0 0 0 0 
0 0 0 0 0 0 0 0 0 0 0 0 0 0 0 
0 0 0 0 0 0 0 0 0 0 0 0 0 0 0 
0 0 0 0 0 0 0 0 0 0 0 0 0 0 0 
0 0 0 0 0 0 0 0 0 19 125 180 3 165 252 
3 165 252 19 125 180 0 0 0 0 0 0 0 0 0 
0 0 0 0 0 0 0 0 0 0 0 0 0 0 0 
15 73 104 2 185 255 17 43 57 0 0 0 0 0 0 
4 0 0 13 177 255 21 147 215 0 0 0 0 0 0 
0 0 0 0 0 0 0 0 0 0 0 0 0 0 0 
0 0 0 0 0 0 0 0 0 0 0 0 0 0 0 
0 0 0 0 0 0 0 0 0 0 0 0 0 0 0 
0 0 0 0 0 0 0 0 0 19 125 180 3 165 252 
3 165 252 19 125 180 0 0 0 0 0 0 0 0 0 
0 0 0 0 0 0 0 0 0 0 0 0 0 0 0 
17 136 199 9 178 255 7 0 0 0 0 0 0 0 0 
0 0 0 19 117 170 4 184 255 15 3 0 0 0 0 
0 0 0 0 0 0 0 0 0 0 0 0 0 0 0 
0 0 0 0 0 0 0 0 0 0 0 0 0 0 0 
0 0 0 0 0 0 0 0 0 0 0 0 0 0 0 
0 0 0 0 0 0 0 0 0 19 125 180 3 165 252 
3 165 252 19 125 180 0 0 0 0 0 0 0 0 0 
0 0 0 0 0 0 0 0 0 0 0 0 10 0 0 
6 183 255 21 128 185 0 0 0 0 0 0 0 0 0 
0 0 0 17 57 79 2 184 255 17 61 84 0 0 0 
0 0 0 0 0 0 0 0 0 0 0 0 0 0 0 
0 0 0 0 0 0 0 0 0 0 0 0 0 0 0 
0 0 0 0 0 0 0 0 0 0 0 0 0 0 0 
0 0 0 0 0 0 0 0 0 19 125 180 3 165 252 
3 165 252 19 125 180 0 0 0 0 0 0 0 0 0 
0 0 0 0 0 0 0 0 0 0 0 0 16 53 73 
2 184 255 18 64 90 0 0 0 0 0 0 0 0 0 
0 0 0 9 0 0 5 184 255 19 124 179 0 0 0 
0 0 0 0 0 0 0 0 0 0 0 0 0 0 0 
0 0 0 0 0 0 0 0 0 0 0 0 0 0 0 
0 0 0 0 0 0 0 0 0 0 0 0 0 0 0 
0 0 0 0 0 0 0 0 0 19 125 180 3 165 252 
3 165 252 19 125 180 0 0 0 0 0 0 0 0 0 
0 0 0 0 0 0 0 0 0 0 0 0 16 113 165 
4 185 255 13 2 0 0 0 0 0 0 0 0 0 0 
0 0 0 0 0 0 18 138 202 11 180 255 6 0 0 
0 0 0 0 0 0 0 0 0 0 0 0 0 0 0 
0 0 0 0 0 0 0 0 0 0 0 0 0 0 0 
0 0 0 0 0 0 0 0 0 0 0 0 0 0 0 
0 0 0 0 0 0 0 0 0 19 125 180 3 165 252 
3 165 252 19 125 180 0 0 0 0 0 0 0 0 0 
0 0 0 0 0 0 0 0 0 5 0 0 11 175 255 
19 148 217 0 0 0 0 0 0 0 0 0 0 0 0 
0 0 0 0 0 0 16 74 106 2 184 255 17 44 58 
0 0 0 0 0 0 0 0 0 0 0 0 0 0 0 
0 0 0 0 0 0 0 0 0 0 0 0 0 0 0 
0 0 0 0 0 0 0 0 0 0 0 0 0 0 0 
0 0 0 0 0 0 0 0 0 19 125 180 3 165 252 
3 165 252 20 120 173 0 0 0 0 0 0 0 0 0 
0 0 0 0 0 0 8 0 0 20 113 163 0 184 255 
20 67 93 0 0 0 0 0 0 0 0 0 0 0 0 
0 0 0 0 0 0 14 14 13 1 185 255 18 103 149 
0 0 0 0 0 0 0 0 0 0 0 0 0 0 0 
0 0 0 0 0 0 0 0 0 0 0 0 0 0 0 
0 0 0 0 0 0 0 0 0 0 0 0 0 0 0 
0 0 0 0 0 0 0 0 0 20 120 173 3 165 252 
4 161 244 7 157 237 12 145 217 11 148 221 11 148 221 
11 148 221 10 144 215 12 178 255 0 183 255 27 138 198 
0 0 0 0 0 0 0 0 0 0 0 0 0 0 0 
0 0 0 0 0 0 0 0 0 18 160 236 16 166 247 
0 0 0 0 0 0 0 0 0 0 0 0 0 0 0 
0 0 0 0 0 0 0 0 0 0 0 0 0 0 0 
10 0 0 19 98 140 16 150 221 11 148 221 11 148 221 
11 148 221 11 148 221 12 145 217 7 157 237 4 161 244 
4 161 244 7 157 237 12 145 217 11 148 221 11 148 221 
11 148 220 12 149 223 18 141 207 22 70 96 1 0 0 
0 0 0 0 0 0 0 0 0 0 0 0 0 0 0 
0 0 0 0 0 0 0 0 0 17 95 137 1 185 255 
17 22 24 0 0 0 0 0 0 0 0 0 0 0 0 
0 0 0 0 0 0 0 0 0 0 0 0 13 7 4 
15 174 255 0 184 255 15 165 245 11 146 218 11 148 221 
11 148 221 11 148 221 12 145 217 7 157 237 4 161 244 
3 165 252 20 120 173 0 0 0 0 0 0 0 0 0 
0 0 0 0 0 0 0 0 0 0 0 0 0 0 0 
0 0 0 0 0 0 0 0 0 0 0 0 0 0 0 
0 0 0 0 0 0 0 0 0 16 34 45 2 185 255 
16 83 118 0 0 0 0 0 0 0 0 0 0 0 0 
0 0 0 0 0 0 0 0 0 0 0 0 20 139 202 
3 184 255 22 51 67 0 0 0 0 0 0 0 0 0 
0 0 0 0 0 0 0 0 0 20 120 173 3 165 252 
3 165 252 19 125 180 0 0 0 0 0 0 0 0 0 
0 0 0 0 0 0 0 0 0 0 0 0 0 0 0 
0 0 0 0 0 0 0 0 0 0 0 0 0 0 0 
0 0 0 0 0 0 0 0 0 4 0 0 11 175 255 
19 146 215 0 0 0 0 0 0 0 0 0 0 0 0 
0 0 0 0 0 0 0 0 0 16 21 24 1 186 255 
20 113 162 0 0 0 0 0 0 0 0 0 0 0 0 
0 0 0 0 0 0 0 0 0 19 125 180 3 165 252 
3 165 252 19 125 180 0 0 0 0 0 0 0 0 0 
0 0 0 0 0 0 0 0 0 0 0 0 0 0 0 
0 0 0 0 0 0 0 0 0 0 0 0 0 0 0 
0 0 0 0 0 0 0 0 0 0 0 0 19 118 170 
4 185 255 13 2 0 0 0 0 0 0 0 0 0 0 
0 0 0 0 0 0 0 0 0 21 117 169 1 186 255 
17 18 19 0 0 0 0 0 0 0 0 0 0 0 0 
0 0 0 0 0 0 0 0 0 19 125 180 3 165 252 
3 165 252 19 125 180 0 0 0 0 0 0 0 0 0 
0 0 0 0 0 0 0 0 0 0 0 0 0 0 0 
0 0 0 0 0 0 0 0 0 0 0 0 0 0 0 
0 0 0 0 0 0 0 0 0 0 0 0 16 55 76 
2 184 255 17 63 89 0 0 0 0 0 0 0 0 0 
0 0 0 0 0 0 13 4 0 6 183 255 25 140 202 
0 0 0 0 0 0 0 0 0 0 0 0 0 0 0 
0 0 0 0 0 0 0 0 0 19 125 180 3 165 252 
3 165 252 19 125 180 0 0 0 0 0 0 0 0 0 
0 0 0 0 0 0 0 0 0 0 0 0 0 0 0 
0 0 0 0 0 0 0 0 0 0 0 0 0 0 0 
0 0 0 0 0 0 0 0 0 0 0 0 11 0 0 
5 184 255 17 124 181 0 0 0 0 0 0 0 0 0 
0 0 0 0 0 0 20 95 136 0 185 255 18 39 50 
0 0 0 0 0 0 0 0 0 0 0 0 0 0 0 
0 0 0 0 0 0 0 0 0 19 125 180 3 165 252 
3 165 252 19 125 180 0 0 0 0 0 0 0 0 0 
0 0 0 0 0 0 0 0 0 0 0 0 0 0 0 
0 0 0 0 0 0 0 0 0 0 0 0 0 0 0 
0 0 0 0 0 0 0 0 0 0 0 0 0 0 0 
20 140 204 10 179 255 6 0 0 0 0 0 0 0 0 
0 0 0 6 0 0 10 176 255 18 158 233 0 0 0 
0 0 0 0 0 0 0 0 0 0 0 0 0 0 0 
0 0 0 0 0 0 0 0 0 19 125 180 3 165 252 
3 165 252 19 125 180 0 0 0 0 0 0 0 0 0 
0 0 0 0 0 0 0 0 0 0 0 0 0 0 0 
0 0 0 0 0 0 0 0 0 0 0 0 0 0 0 
0 0 0 0 0 0 0 0 0 0 0 0 0 0 0 
17 75 107 2 184 255 16 42 56 0 0 0 0 0 0 
0 0 0 19 71 99 0 184 255 21 66 90 0 0 0 
0 0 0 0 0 0 0 0 0 0 0 0 0 0 0 
0 0 0 0 0 0 0 0 0 19 125 180 3 165 252 
3 165 252 19 125 180 0 0 0 0 0 0 0 0 0 
0 0 0 0 0 0 0 0 0 0 0 0 0 0 0 
0 0 0 0 0 0 0 0 0 0 0 0 0 0 0 
0 0 0 0 0 0 0 0 0 0 0 0 0 0 0 
16 13 11 2 186 255 16 102 148 0 0 0 0 0 0 
2 0 0 16 163 242 14 173 255 5 0 0 0 0 0 
0 0 0 0 0 0 0 0 0 0 0 0 0 0 0 
0 0 0 0 0 0 0 0 0 19 125 180 3 165 252 
3 165 252 19 125 180 0 0 0 0 0 0 0 0 0 
0 0 0 0 0 0 0 0 0 0 0 0 0 0 0 
0 0 0 0 0 0 0 0 0 0 0 0 0 0 0 
0 0 0 0 0 0 0 0 0 0 0 0 0 0 0 
0 0 0 18 158 233 16 167 248 0 0 0 0 0 0 
18 48 63 0 185 255 18 85 121 0 0 0 0 0 0 
0 0 0 0 0 0 0 0 0 0 0 0 0 0 0 
0 0 0 0 0 0 0 0 0 19 125 180 3 165 252 
3 165 252 19 125 180 0 0 0 0 0 0 0 0 0 
0 0 0 0 0 0 0 0 0 0 0 0 0 0 0 
0 0 0 0 0 0 0 0 0 0 0 0 0 0 0 
0 0 0 0 0 0 0 0 0 0 0 0 0 0 0 
0 0 0 19 97 138 1 185 255 18 19 19 0 0 0 
20 145 211 8 183 255 11 0 0 0 0 0 0 0 0 
0 0 0 0 0 0 0 0 0 0 0 0 0 0 0 
0 0 0 0 0 0 0 0 0 19 125 180 3 165 252 
3 165 252 19 125 180 0 0 0 0 0 0 0 0 0 
0 0 0 0 0 0 0 0 0 0 0 0 0 0 0 
0 0 0 0 0 0 0 0 0 0 0 0 0 0 0 
0 0 0 0 0 0 0 0 0 0 0 0 0 0 0 
0 0 0 16 32 39 0 185 255 16 123 180 22 76 106 
0 182 255 22 109 155 0 0 0 0 0 0 0 0 0 
0 0 0 0 0 0 0 0 0 0 0 0 0 0 0 
0 0 0 0 0 0 0 0 0 19 125 180 3 165 252 
3 165 252 19 125 180 0 0 0 0 0 0 0 0 0 
0 0 0 0 0 0 0 0 0 0 0 0 0 0 0 
0 0 0 0 0 0 0 0 0 0 0 0 0 0 0 
0 0 0 0 0 0 0 0 0 0 0 0 0 0 0 
0 0 0 0 0 0 29 124 176 0 185 255 1 184 255 
17 172 255 11 3 0 0 0 0 0 0 0 0 0 0 
0 0 0 0 0 0 0 0 0 0 0 0 0 0 0 
0 0 0 0 0 0 0 0 0 19 125 180 3 165 252 
3 165 252 19 125 180 0 0 0 0 0 0 0 0 0 
0 0 0 0 0 0 0 0 0 0 0 0 0 0 0 
0 0 0 0 0 0 0 0 0 0 0 0 0 0 0 
0 0 0 0 0 0 0 0 0 0 0 0 0 0 0 
0 0 0 0 0 0 0 0 0 16 34 44 14 49 68 
7 0 0 0 0 0 0 0 0 0 0 0 0 0 0 
0 0 0 0 0 0 0 0 0 0 0 0 0 0 0 
0 0 0 0 0 0 0 0 0 19 125 180 3 165 252 
3 165 252 19 125 180 0 0 0 0 0 0 0 0 0 
0 0 0 0 0 0 0 0 0 0 0 0 0 0 0 
0 0 0 0 0 0 0 0 0 0 0 0 0 0 0 
0 0 0 0 0 0 0 0 0 0 0 0 0 0 0 
0 0 0 0 0 0 0 0 0 0 0 0 0 0 0 
0 0 0 0 0 0 0 0 0 0 0 0 0 0 0 
0 0 0 0 0 0 0 0 0 0 0 0 0 0 0 
0 0 0 0 0 0 0 0 0 19 125 180 3 165 252 
2 163 249 19 123 178 0 0 0 0 0 0 0 0 0 
0 0 0 0 0 0 0 0 0 0 0 0 0 0 0 
0 0 0 0 0 0 0 0 0 0 0 0 0 0 0 
0 0 0 0 0 0 0 0 0 0 0 0 0 0 0 
0 0 0 0 0 0 0 0 0 0 0 0 0 0 0 
0 0 0 0 0 0 0 0 0 0 0 0 0 0 0 
0 0 0 0 0 0 0 0 0 0 0 0 0 0 0 
0 0 0 0 0 0 0 0 0 19 123 178 2 163 249 
13 159 237 18 138 202 0 0 0 0 0 0 0 0 0 
0 0 0 0 0 0 0 0 0 0 0 0 0 0 0 
0 0 0 0 0 0 0 0 0 0 0 0 0 0 0 
0 0 0 0 0 0 0 0 0 0 0 0 0 0 0 
0 0 0 0 0 0 0 0 0 0 0 0 0 0 0 
0 0 0 0 0 0 0 0 0 0 0 0 0 0 0 
0 0 0 0 0 0 0 0 0 0 0 0 0 0 0 
0 0 0 0 0 0 0 0 0 17 138 202 14 158 235 
17 105 151 0 183 255 26 53 68 0 0 0 0 0 0 
0 0 0 0 0 0 0 0 0 0 0 0 0 0 0 
0 0 0 0 0 0 0 0 0 0 0 0 0 0 0 
0 0 0 0 0 0 0 0 0 0 0 0 0 0 0 
0 0 0 0 0 0 0 0 0 0 0 0 0 0 0 
0 0 0 0 0 0 0 0 0 0 0 0 0 0 0 
0 0 0 0 0 0 0 0 0 0 0 0 0 0 0 
0 0 0 0 0 0 26 53 67 0 183 255 18 105 151 
10 0 0 14 171 255 1 183 255 18 139 204 19 123 178 
20 124 180 19 124 180 19 124 180 19 124 180 19 124 180 
19 124 180 19 124 180 19 124 180 19 124 180 19 124 180 
19 124 180 19 124 180 19 124 180 19 124 180 19 124 180 
19 124 180 19 124 180 19 124 180 19 124 180 19 124 180 
19 124 180 19 124 180 19 124 180 19 124 180 19 124 180 
19 124 180 19 124 180 19 124 180 19 124 180 20 124 180 
19 123 178 18 139 204 1 183 255 14 171 255 9 0 0 
0 0 0 10 0 0 16 103 149 14 159 237 2 164 251 
3 165 252 3 165 252 3 165 252 3 165 252 3 165 252 
3 165 252 3 165 252 3 165 252 3 165 252 3 165 252 
3 165 252 3 165 252 3 165 252 3 165 252 3 165 252 
3 165 252 3 165 252 3 165 252 3 165 252 3 165 252 
3 165 252 3 165 252 3 165 252 3 165 252 3 165 252 
3 165 252 3 165 252 3 165 252 3 165 252 3 165 252 
2 164 251 14 159 237 15 102 149 10 0 0 0 0 0 
