P3
# Created by IrfanView
40 35
255
255 255 255 255 255 255 255 255 255 255 255 255 255 255 255 
255 255 255 255 255 255 255 255 255 255 255 255 255 255 255 
255 255 255 255 255 255 255 255 255 255 255 255 255 255 255 
255 255 255 255 255 255 255 255 255 255 255 255 255 255 255 
255 255 255 255 255 255 255 255 255 255 255 255 255 255 255 
255 255 255 255 255 255 255 255 255 255 255 255 255 255 255 
255 255 255 255 255 255 255 255 255 255 255 255 255 255 255 
255 255 255 255 255 255 255 255 255 255 255 255 255 255 255 
255 255 255 255 255 255 255 255 255 255 255 255 255 255 255 
255 255 255 255 255 255 255 255 255 255 255 255 255 255 255 
255 255 255 255 255 255 255 255 255 255 255 255 255 255 255 
255 255 255 255 255 255 255 255 255 255 255 255 255 255 255 
255 255 255 255 255 255 255 255 255 255 255 255 255 255 255 
255 255 255 255 255 255 255 255 255 255 255 255 255 255 255 
255 255 255 255 255 255 255 255 255 255 255 255 255 255 255 
255 255 255 255 255 255 255 255 255 255 255 255 255 255 255 
255 255 255 255 255 255 255 255 255 255 255 255 255 255 255 
255 255 255 255 255 255 255 255 255 255 255 255 255 255 255 
255 255 255 255 255 255 255 255 255 255 255 255 255 255 255 
255 255 255 255 255 255 255 255 255 255 255 255 255 255 255 
255 255 255 255 255 255 255 255 255 255 255 255 255 255 255 
255 255 255 255 255 255 255 255 255 255 255 255 255 255 255 
255 255 255 255 255 255 255 255 255 255 255 255 255 255 255 
255 255 255 255 255 255 255 255 255 255 255 255 255 255 255 
255 255 255 255 255 255 255 255 255 255 255 255 255 255 255 
255 255 255 255 255 255 255 255 255 237 28 36 237 28 36 
237 28 36 237 28 36 237 28 36 237 28 36 255 255 255 
255 255 255 255 255 255 255 255 255 255 255 255 255 255 255 
255 255 255 255 255 255 255 255 255 255 255 255 255 255 255 
237 28 36 237 28 36 237 28 36 237 28 36 237 28 36 
255 255 255 255 255 255 255 255 255 255 255 255 255 255 255 
255 255 255 255 255 255 255 255 255 255 255 255 255 255 255 
255 255 255 255 255 255 255 255 255 255 255 255 255 255 255 
255 255 255 255 255 255 237 28 36 237 28 36 237 28 36 
237 28 36 237 28 36 237 28 36 237 28 36 237 28 36 
255 255 255 255 255 255 255 255 255 255 255 255 255 255 255 
255 255 255 255 255 255 255 255 255 255 255 255 237 28 36 
237 28 36 237 28 36 237 28 36 237 28 36 237 28 36 
237 28 36 237 28 36 255 255 255 255 255 255 255 255 255 
255 255 255 255 255 255 255 255 255 255 255 255 255 255 255 
255 255 255 255 255 255 255 255 255 255 255 255 255 255 255 
255 255 255 255 255 255 237 28 36 237 28 36 237 28 36 
237 28 36 237 28 36 237 28 36 237 28 36 237 28 36 
237 28 36 255 255 255 255 255 255 255 255 255 255 255 255 
255 255 255 255 255 255 255 255 255 237 28 36 237 28 36 
237 28 36 237 28 36 237 28 36 237 28 36 237 28 36 
237 28 36 237 28 36 255 255 255 255 255 255 255 255 255 
255 255 255 255 255 255 255 255 255 255 255 255 255 255 255 
255 255 255 255 255 255 255 255 255 255 255 255 255 255 255 
255 255 255 237 28 36 237 28 36 237 28 36 237 28 36 
237 28 36 237 28 36 237 28 36 237 28 36 237 28 36 
237 28 36 255 255 255 255 255 255 255 255 255 255 255 255 
255 255 255 255 255 255 255 255 255 237 28 36 237 28 36 
237 28 36 237 28 36 237 28 36 237 28 36 237 28 36 
237 28 36 237 28 36 237 28 36 255 255 255 255 255 255 
255 255 255 255 255 255 255 255 255 255 255 255 255 255 255 
255 255 255 255 255 255 255 255 255 255 255 255 255 255 255 
255 255 255 237 28 36 237 28 36 237 28 36 237 28 36 
237 28 36 237 28 36 237 28 36 237 28 36 237 28 36 
237 28 36 255 255 255 255 255 255 255 255 255 255 255 255 
255 255 255 255 255 255 255 255 255 237 28 36 237 28 36 
237 28 36 237 28 36 237 28 36 237 28 36 237 28 36 
237 28 36 237 28 36 237 28 36 255 255 255 255 255 255 
255 255 255 255 255 255 255 255 255 255 255 255 255 255 255 
255 255 255 255 255 255 255 255 255 255 255 255 255 255 255 
255 255 255 237 28 36 237 28 36 237 28 36 237 28 36 
237 28 36 237 28 36 237 28 36 237 28 36 237 28 36 
237 28 36 255 255 255 255 255 255 255 255 255 255 255 255 
255 255 255 255 255 255 255 255 255 237 28 36 237 28 36 
237 28 36 237 28 36 237 28 36 237 28 36 237 28 36 
237 28 36 237 28 36 237 28 36 255 255 255 255 255 255 
255 255 255 255 255 255 255 255 255 255 255 255 255 255 255 
255 255 255 255 255 255 255 255 255 255 255 255 255 255 255 
255 255 255 237 28 36 237 28 36 237 28 36 237 28 36 
237 28 36 237 28 36 237 28 36 237 28 36 237 28 36 
237 28 36 255 255 255 255 255 255 255 255 255 255 255 255 
255 255 255 255 255 255 255 255 255 237 28 36 237 28 36 
237 28 36 237 28 36 237 28 36 237 28 36 237 28 36 
237 28 36 237 28 36 237 28 36 255 255 255 255 255 255 
255 255 255 255 255 255 255 255 255 255 255 255 255 255 255 
255 255 255 255 255 255 255 255 255 255 255 255 255 255 255 
255 255 255 237 28 36 237 28 36 237 28 36 237 28 36 
237 28 36 237 28 36 237 28 36 237 28 36 237 28 36 
237 28 36 255 255 255 255 255 255 255 255 255 255 255 255 
255 255 255 255 255 255 255 255 255 237 28 36 237 28 36 
237 28 36 237 28 36 237 28 36 237 28 36 237 28 36 
237 28 36 237 28 36 237 28 36 255 255 255 255 255 255 
255 255 255 255 255 255 255 255 255 255 255 255 255 255 255 
255 255 255 255 255 255 255 255 255 255 255 255 255 255 255 
255 255 255 237 28 36 237 28 36 237 28 36 237 28 36 
237 28 36 237 28 36 237 28 36 237 28 36 237 28 36 
237 28 36 255 255 255 255 255 255 255 255 255 255 255 255 
255 255 255 255 255 255 255 255 255 237 28 36 237 28 36 
237 28 36 237 28 36 237 28 36 237 28 36 237 28 36 
237 28 36 237 28 36 237 28 36 255 255 255 255 255 255 
255 255 255 255 255 255 255 255 255 255 255 255 255 255 255 
255 255 255 255 255 255 255 255 255 255 255 255 255 255 255 
255 255 255 237 28 36 237 28 36 237 28 36 237 28 36 
237 28 36 237 28 36 237 28 36 237 28 36 237 28 36 
237 28 36 255 255 255 255 255 255 255 255 255 255 255 255 
255 255 255 255 255 255 255 255 255 237 28 36 237 28 36 
237 28 36 237 28 36 237 28 36 237 28 36 237 28 36 
237 28 36 237 28 36 237 28 36 255 255 255 255 255 255 
255 255 255 255 255 255 255 255 255 255 255 255 255 255 255 
255 255 255 255 255 255 255 255 255 255 255 255 255 255 255 
255 255 255 237 28 36 237 28 36 237 28 36 237 28 36 
237 28 36 237 28 36 237 28 36 237 28 36 237 28 36 
237 28 36 255 255 255 255 255 255 255 255 255 255 255 255 
255 255 255 255 255 255 255 255 255 237 28 36 237 28 36 
237 28 36 237 28 36 237 28 36 237 28 36 237 28 36 
237 28 36 237 28 36 237 28 36 255 255 255 255 255 255 
255 255 255 255 255 255 255 255 255 255 255 255 255 255 255 
255 255 255 255 255 255 255 255 255 255 255 255 255 255 255 
255 255 255 237 28 36 237 28 36 237 28 36 237 28 36 
237 28 36 237 28 36 237 28 36 237 28 36 237 28 36 
237 28 36 255 255 255 255 255 255 255 255 255 255 255 255 
255 255 255 255 255 255 255 255 255 237 28 36 237 28 36 
237 28 36 237 28 36 237 28 36 237 28 36 237 28 36 
237 28 36 237 28 36 237 28 36 255 255 255 255 255 255 
255 255 255 255 255 255 255 255 255 255 255 255 255 255 255 
255 255 255 255 255 255 255 255 255 255 255 255 255 255 255 
255 255 255 237 28 36 237 28 36 237 28 36 237 28 36 
237 28 36 237 28 36 237 28 36 237 28 36 237 28 36 
237 28 36 255 255 255 255 255 255 255 255 255 255 255 255 
255 255 255 255 255 255 255 255 255 237 28 36 237 28 36 
237 28 36 237 28 36 237 28 36 237 28 36 237 28 36 
237 28 36 237 28 36 237 28 36 255 255 255 255 255 255 
255 255 255 255 255 255 255 255 255 255 255 255 255 255 255 
255 255 255 255 255 255 255 255 255 255 255 255 255 255 255 
255 255 255 237 28 36 237 28 36 237 28 36 237 28 36 
237 28 36 237 28 36 237 28 36 237 28 36 237 28 36 
237 28 36 255 255 255 255 255 255 255 255 255 255 255 255 
255 255 255 255 255 255 255 255 255 237 28 36 237 28 36 
237 28 36 237 28 36 237 28 36 237 28 36 237 28 36 
237 28 36 237 28 36 237 28 36 255 255 255 255 255 255 
255 255 255 255 255 255 255 255 255 255 255 255 255 255 255 
255 255 255 255 255 255 255 255 255 255 255 255 255 255 255 
255 255 255 237 28 36 237 28 36 237 28 36 237 28 36 
237 28 36 237 28 36 237 28 36 237 28 36 237 28 36 
237 28 36 255 255 255 255 255 255 255 255 255 255 255 255 
255 255 255 255 255 255 255 255 255 237 28 36 237 28 36 
237 28 36 237 28 36 237 28 36 237 28 36 237 28 36 
237 28 36 237 28 36 237 28 36 255 255 255 255 255 255 
255 255 255 255 255 255 255 255 255 255 255 255 255 255 255 
255 255 255 255 255 255 255 255 255 255 255 255 255 255 255 
255 255 255 237 28 36 237 28 36 237 28 36 237 28 36 
237 28 36 237 28 36 237 28 36 237 28 36 237 28 36 
237 28 36 255 255 255 255 255 255 255 255 255 255 255 255 
255 255 255 255 255 255 255 255 255 237 28 36 237 28 36 
237 28 36 237 28 36 237 28 36 237 28 36 237 28 36 
237 28 36 237 28 36 237 28 36 255 255 255 255 255 255 
255 255 255 255 255 255 255 255 255 255 255 255 255 255 255 
255 255 255 255 255 255 255 255 255 255 255 255 255 255 255 
255 255 255 237 28 36 237 28 36 237 28 36 237 28 36 
237 28 36 237 28 36 237 28 36 237 28 36 237 28 36 
237 28 36 255 255 255 255 255 255 255 255 255 255 255 255 
255 255 255 255 255 255 255 255 255 237 28 36 237 28 36 
237 28 36 237 28 36 237 28 36 237 28 36 237 28 36 
237 28 36 237 28 36 237 28 36 255 255 255 255 255 255 
255 255 255 255 255 255 255 255 255 255 255 255 255 255 255 
255 255 255 255 255 255 255 255 255 255 255 255 255 255 255 
255 255 255 237 28 36 237 28 36 237 28 36 237 28 36 
237 28 36 237 28 36 237 28 36 237 28 36 237 28 36 
237 28 36 255 255 255 255 255 255 255 255 255 255 255 255 
255 255 255 255 255 255 255 255 255 237 28 36 237 28 36 
237 28 36 237 28 36 237 28 36 237 28 36 237 28 36 
237 28 36 237 28 36 237 28 36 255 255 255 255 255 255 
255 255 255 255 255 255 255 255 255 255 255 255 255 255 255 
255 255 255 255 255 255 255 255 255 255 255 255 255 255 255 
255 255 255 237 28 36 237 28 36 237 28 36 237 28 36 
237 28 36 237 28 36 237 28 36 237 28 36 237 28 36 
237 28 36 255 255 255 255 255 255 255 255 255 255 255 255 
255 255 255 255 255 255 255 255 255 237 28 36 237 28 36 
237 28 36 237 28 36 237 28 36 237 28 36 237 28 36 
237 28 36 237 28 36 237 28 36 255 255 255 255 255 255 
255 255 255 255 255 255 255 255 255 255 255 255 255 255 255 
255 255 255 255 255 255 255 255 255 255 255 255 255 255 255 
255 255 255 237 28 36 237 28 36 237 28 36 237 28 36 
237 28 36 237 28 36 237 28 36 237 28 36 237 28 36 
237 28 36 255 255 255 255 255 255 255 255 255 255 255 255 
255 255 255 255 255 255 255 255 255 237 28 36 237 28 36 
237 28 36 237 28 36 237 28 36 237 28 36 237 28 36 
237 28 36 237 28 36 237 28 36 255 255 255 255 255 255 
255 255 255 255 255 255 255 255 255 255 255 255 255 255 255 
255 255 255 255 255 255 255 255 255 255 255 255 255 255 255 
255 255 255 237 28 36 237 28 36 237 28 36 237 28 36 
237 28 36 237 28 36 237 28 36 237 28 36 237 28 36 
237 28 36 255 255 255 255 255 255 255 255 255 255 255 255 
255 255 255 255 255 255 255 255 255 237 28 36 237 28 36 
237 28 36 237 28 36 237 28 36 237 28 36 237 28 36 
237 28 36 237 28 36 237 28 36 255 255 255 255 255 255 
255 255 255 255 255 255 255 255 255 255 255 255 255 255 255 
255 255 255 255 255 255 255 255 255 255 255 255 255 255 255 
255 255 255 237 28 36 237 28 36 237 28 36 237 28 36 
237 28 36 237 28 36 237 28 36 237 28 36 237 28 36 
237 28 36 255 255 255 255 255 255 255 255 255 255 255 255 
255 255 255 255 255 255 255 255 255 237 28 36 237 28 36 
237 28 36 237 28 36 237 28 36 237 28 36 237 28 36 
237 28 36 237 28 36 237 28 36 255 255 255 255 255 255 
255 255 255 255 255 255 255 255 255 255 255 255 255 255 255 
255 255 255 255 255 255 255 255 255 255 255 255 255 255 255 
255 255 255 237 28 36 237 28 36 237 28 36 237 28 36 
237 28 36 237 28 36 237 28 36 237 28 36 237 28 36 
237 28 36 255 255 255 255 255 255 255 255 255 255 255 255 
255 255 255 255 255 255 255 255 255 237 28 36 237 28 36 
237 28 36 237 28 36 237 28 36 237 28 36 237 28 36 
237 28 36 237 28 36 237 28 36 255 255 255 255 255 255 
255 255 255 255 255 255 255 255 255 255 255 255 255 255 255 
255 255 255 255 255 255 255 255 255 255 255 255 255 255 255 
255 255 255 237 28 36 237 28 36 237 28 36 237 28 36 
237 28 36 237 28 36 237 28 36 237 28 36 237 28 36 
237 28 36 255 255 255 255 255 255 255 255 255 255 255 255 
255 255 255 255 255 255 255 255 255 237 28 36 237 28 36 
237 28 36 237 28 36 237 28 36 237 28 36 237 28 36 
237 28 36 237 28 36 237 28 36 255 255 255 255 255 255 
255 255 255 255 255 255 255 255 255 255 255 255 255 255 255 
255 255 255 255 255 255 255 255 255 255 255 255 255 255 255 
255 255 255 237 28 36 237 28 36 237 28 36 237 28 36 
237 28 36 237 28 36 237 28 36 237 28 36 237 28 36 
237 28 36 255 255 255 255 255 255 255 255 255 255 255 255 
255 255 255 255 255 255 255 255 255 237 28 36 237 28 36 
237 28 36 237 28 36 237 28 36 237 28 36 237 28 36 
237 28 36 237 28 36 237 28 36 255 255 255 255 255 255 
255 255 255 255 255 255 255 255 255 255 255 255 255 255 255 
255 255 255 255 255 255 255 255 255 255 255 255 255 255 255 
255 255 255 237 28 36 237 28 36 237 28 36 237 28 36 
237 28 36 237 28 36 237 28 36 237 28 36 237 28 36 
237 28 36 255 255 255 255 255 255 255 255 255 255 255 255 
255 255 255 255 255 255 255 255 255 237 28 36 237 28 36 
237 28 36 237 28 36 237 28 36 237 28 36 237 28 36 
237 28 36 237 28 36 237 28 36 255 255 255 255 255 255 
255 255 255 255 255 255 255 255 255 255 255 255 255 255 255 
255 255 255 255 255 255 255 255 255 255 255 255 255 255 255 
255 255 255 255 255 255 237 28 36 237 28 36 237 28 36 
237 28 36 237 28 36 237 28 36 237 28 36 237 28 36 
237 28 36 255 255 255 255 255 255 255 255 255 255 255 255 
255 255 255 255 255 255 255 255 255 237 28 36 237 28 36 
237 28 36 237 28 36 237 28 36 237 28 36 237 28 36 
237 28 36 237 28 36 255 255 255 255 255 255 255 255 255 
255 255 255 255 255 255 255 255 255 255 255 255 255 255 255 
255 255 255 255 255 255 255 255 255 255 255 255 255 255 255 
255 255 255 255 255 255 237 28 36 237 28 36 237 28 36 
237 28 36 237 28 36 237 28 36 237 28 36 237 28 36 
255 255 255 255 255 255 255 255 255 255 255 255 255 255 255 
255 255 255 255 255 255 255 255 255 255 255 255 237 28 36 
237 28 36 237 28 36 237 28 36 237 28 36 237 28 36 
237 28 36 237 28 36 255 255 255 255 255 255 255 255 255 
255 255 255 255 255 255 255 255 255 255 255 255 255 255 255 
255 255 255 255 255 255 255 255 255 255 255 255 255 255 255 
255 255 255 255 255 255 255 255 255 255 255 255 237 28 36 
237 28 36 237 28 36 237 28 36 237 28 36 255 255 255 
255 255 255 255 255 255 255 255 255 255 255 255 255 255 255 
255 255 255 255 255 255 255 255 255 255 255 255 255 255 255 
237 28 36 237 28 36 237 28 36 237 28 36 237 28 36 
237 28 36 255 255 255 255 255 255 255 255 255 255 255 255 
255 255 255 255 255 255 255 255 255 255 255 255 255 255 255 
255 255 255 255 255 255 255 255 255 255 255 255 255 255 255 
255 255 255 255 255 255 255 255 255 255 255 255 255 255 255 
255 255 255 255 255 255 255 255 255 255 255 255 255 255 255 
255 255 255 255 255 255 255 255 255 255 255 255 255 255 255 
255 255 255 255 255 255 255 255 255 255 255 255 255 255 255 
255 255 255 255 255 255 255 255 255 255 255 255 255 255 255 
255 255 255 255 255 255 255 255 255 255 255 255 255 255 255 
255 255 255 255 255 255 255 255 255 255 255 255 255 255 255 
255 255 255 255 255 255 255 255 255 255 255 255 255 255 255 
255 255 255 255 255 255 255 255 255 255 255 255 255 255 255 
255 255 255 255 255 255 255 255 255 255 255 255 255 255 255 
255 255 255 255 255 255 255 255 255 255 255 255 255 255 255 
255 255 255 255 255 255 255 255 255 255 255 255 255 255 255 
255 255 255 255 255 255 255 255 255 255 255 255 255 255 255 
255 255 255 255 255 255 255 255 255 255 255 255 255 255 255 
255 255 255 255 255 255 255 255 255 255 255 255 255 255 255 
255 255 255 255 255 255 255 255 255 255 255 255 255 255 255 
255 255 255 255 255 255 255 255 255 255 255 255 255 255 255 
255 255 255 255 255 255 255 255 255 255 255 255 255 255 255 
255 255 255 255 255 255 255 255 255 255 255 255 255 255 255 
255 255 255 255 255 255 255 255 255 255 255 255 255 255 255 
255 255 255 255 255 255 255 255 255 255 255 255 255 255 255 
255 255 255 255 255 255 255 255 255 255 255 255 255 255 255 
255 255 255 255 255 255 255 255 255 255 255 255 255 255 255 
