P3
# Created by IrfanView
40 40
255
0 0 0 0 0 0 0 0 0 0 0 0 0 0 0 
0 0 0 0 0 0 0 0 0 0 0 0 0 0 0 
0 0 0 0 0 0 0 0 0 0 0 0 0 0 0 
0 0 0 0 0 0 0 0 0 0 0 0 0 0 0 
0 0 0 0 0 0 0 0 0 0 0 0 0 0 0 
0 0 0 0 0 0 0 0 0 0 0 0 0 0 0 
0 0 0 0 0 0 0 0 0 0 0 0 0 0 0 
0 0 0 0 0 0 0 0 0 0 0 0 0 0 0 
0 0 0 0 0 0 0 0 0 0 0 0 0 0 0 
0 0 0 0 0 0 0 0 0 0 0 0 0 0 0 
0 0 0 0 0 0 0 0 0 0 0 0 0 0 0 
0 0 0 0 0 0 0 0 0 0 0 0 0 0 0 
0 0 0 0 0 0 0 0 0 0 0 0 0 0 0 
0 0 0 0 0 0 0 0 0 0 0 0 0 0 0 
0 0 0 0 0 0 0 0 0 0 0 0 0 0 0 
0 0 0 0 0 0 0 0 0 0 0 0 0 0 0 
0 0 0 0 0 0 0 0 0 0 0 0 0 0 0 
0 0 0 0 0 0 0 0 0 0 0 0 0 0 0 
0 0 0 0 0 0 0 0 0 0 0 0 0 0 0 
0 0 0 0 0 0 0 0 0 0 0 0 0 0 0 
0 0 0 0 0 0 0 0 0 0 0 0 0 0 0 
0 0 0 0 0 0 0 0 0 0 0 0 0 0 0 
0 0 0 0 0 0 0 0 0 0 0 0 0 0 0 
0 0 0 0 0 0 0 0 0 0 0 0 0 0 0 
0 0 0 0 0 0 0 0 0 0 0 0 0 0 0 
0 0 0 0 0 0 0 0 0 0 0 0 0 0 0 
0 0 0 0 0 0 0 0 0 0 0 0 0 0 0 
0 0 0 0 0 0 0 0 0 7 7 7 170 170 170 
159 159 159 3 3 3 0 0 0 0 0 0 0 0 0 
0 0 0 0 0 0 0 0 0 0 0 0 0 0 0 
0 0 0 0 0 0 0 0 0 0 0 0 0 0 0 
0 0 0 0 0 0 0 0 0 0 0 0 0 0 0 
0 0 0 0 0 0 0 0 0 0 0 0 0 0 0 
0 0 0 0 0 0 0 0 0 0 0 0 0 0 0 
0 0 0 0 0 0 0 0 0 0 0 0 0 0 0 
0 0 0 0 0 0 0 0 0 125 125 125 255 255 255 
255 255 255 108 108 108 0 0 0 0 0 0 0 0 0 
0 0 0 0 0 0 0 0 0 0 0 0 0 0 0 
0 0 0 0 0 0 0 0 0 0 0 0 0 0 0 
0 0 0 0 0 0 0 0 0 0 0 0 0 0 0 
0 0 0 0 0 0 0 0 0 0 0 0 0 0 0 
0 0 0 0 0 0 0 0 0 0 0 0 0 0 0 
0 0 0 0 0 0 0 0 0 0 0 0 0 0 0 
0 0 0 0 0 0 31 31 31 246 246 246 250 250 250 
252 252 252 239 239 239 21 21 21 0 0 0 0 0 0 
0 0 0 0 0 0 0 0 0 0 0 0 0 0 0 
0 0 0 0 0 0 0 0 0 0 0 0 0 0 0 
0 0 0 0 0 0 0 0 0 0 0 0 0 0 0 
0 0 0 0 0 0 0 0 0 0 0 0 0 0 0 
0 0 0 0 0 0 0 0 0 0 0 0 0 0 0 
0 0 0 0 0 0 0 0 0 0 0 0 0 0 0 
0 0 0 0 0 0 175 175 175 255 255 255 205 205 205 
210 210 210 255 255 255 158 158 158 0 0 0 0 0 0 
0 0 0 0 0 0 0 0 0 0 0 0 0 0 0 
0 0 0 0 0 0 0 0 0 0 0 0 0 0 0 
0 0 0 0 0 0 0 0 0 0 0 0 0 0 0 
0 0 0 0 0 0 0 0 0 0 0 0 0 0 0 
0 0 0 0 0 0 0 0 0 0 0 0 0 0 0 
0 0 0 0 0 0 0 0 0 0 0 0 0 0 0 
0 0 0 72 72 72 255 255 255 242 242 242 163 163 163 
165 165 165 245 245 245 254 254 254 55 55 55 0 0 0 
0 0 0 0 0 0 0 0 0 0 0 0 0 0 0 
0 0 0 0 0 0 0 0 0 0 0 0 0 0 0 
0 0 0 0 0 0 0 0 0 0 0 0 0 0 0 
0 0 0 0 0 0 0 0 0 0 0 0 0 0 0 
0 0 0 0 0 0 0 0 0 0 0 0 0 0 0 
0 0 0 0 0 0 0 0 0 0 0 0 0 0 0 
6 6 6 218 218 218 255 255 255 190 190 190 161 161 161 
161 161 161 195 195 195 255 255 255 204 204 204 2 2 2 
0 0 0 0 0 0 0 0 0 0 0 0 0 0 0 
0 0 0 0 0 0 0 0 0 0 0 0 0 0 0 
0 0 0 0 0 0 0 0 0 0 0 0 0 0 0 
0 0 0 0 0 0 0 0 0 0 0 0 0 0 0 
0 0 0 0 0 0 0 0 0 0 0 0 0 0 0 
0 0 0 0 0 0 0 0 0 0 0 0 0 0 0 
122 122 122 255 255 255 229 229 229 161 161 161 161 161 161 
161 161 161 161 161 161 235 235 235 255 255 255 104 104 104 
0 0 0 0 0 0 0 0 0 0 0 0 0 0 0 
0 0 0 0 0 0 0 0 0 0 0 0 0 0 0 
0 0 0 0 0 0 0 0 0 0 0 0 0 0 0 
0 0 0 0 0 0 0 0 0 0 0 0 0 0 0 
0 0 0 0 0 0 0 0 0 0 0 0 0 0 0 
0 0 0 0 0 0 0 0 0 0 0 0 30 30 30 
245 245 245 253 253 253 176 176 176 161 161 161 161 161 161 
161 161 161 161 161 161 181 181 181 254 254 254 237 237 237 
19 19 19 0 0 0 0 0 0 0 0 0 0 0 0 
0 0 0 0 0 0 0 0 0 0 0 0 0 0 0 
0 0 0 0 0 0 0 0 0 0 0 0 0 0 0 
0 0 0 0 0 0 0 0 0 0 0 0 0 0 0 
0 0 0 0 0 0 0 0 0 0 0 0 0 0 0 
0 0 0 0 0 0 0 0 0 0 0 0 172 172 172 
255 255 255 214 214 214 161 161 161 161 161 161 161 161 161 
161 161 161 161 161 161 161 161 161 220 220 220 255 255 255 
154 154 154 0 0 0 0 0 0 0 0 0 0 0 0 
0 0 0 0 0 0 0 0 0 0 0 0 0 0 0 
0 0 0 0 0 0 0 0 0 0 0 0 0 0 0 
0 0 0 0 0 0 0 0 0 0 0 0 0 0 0 
0 0 0 0 0 0 0 0 0 0 0 0 0 0 0 
0 0 0 0 0 0 0 0 0 69 69 69 255 255 255 
247 247 247 167 167 167 161 161 161 161 161 161 161 161 161 
161 161 161 161 161 161 161 161 161 170 170 170 250 250 250 
253 253 253 52 52 52 0 0 0 0 0 0 0 0 0 
0 0 0 0 0 0 0 0 0 0 0 0 0 0 0 
0 0 0 0 0 0 0 0 0 0 0 0 0 0 0 
0 0 0 0 0 0 0 0 0 0 0 0 0 0 0 
0 0 0 0 0 0 0 0 0 0 0 0 0 0 0 
0 0 0 0 0 0 6 6 6 216 216 216 255 255 255 
199 199 199 161 161 161 161 161 161 161 161 161 161 161 161 
161 161 161 161 161 161 161 161 161 161 161 161 205 205 205 
255 255 255 201 201 201 1 1 1 0 0 0 0 0 0 
0 0 0 0 0 0 0 0 0 0 0 0 0 0 0 
0 0 0 0 0 0 0 0 0 0 0 0 0 0 0 
0 0 0 0 0 0 0 0 0 0 0 0 0 0 0 
0 0 0 0 0 0 0 0 0 0 0 0 0 0 0 
0 0 0 0 0 0 119 119 119 255 255 255 238 238 238 
162 162 162 161 161 161 161 161 161 161 161 161 161 161 161 
161 161 161 161 161 161 161 161 161 161 161 161 163 163 163 
242 242 242 255 255 255 100 100 100 0 0 0 0 0 0 
0 0 0 0 0 0 0 0 0 0 0 0 0 0 0 
0 0 0 0 0 0 0 0 0 0 0 0 0 0 0 
0 0 0 0 0 0 0 0 0 0 0 0 0 0 0 
0 0 0 0 0 0 0 0 0 0 0 0 0 0 0 
0 0 0 28 28 28 244 244 244 255 255 255 184 184 184 
161 161 161 161 161 161 161 161 161 161 161 161 161 161 161 
161 161 161 161 161 161 161 161 161 161 161 161 161 161 161 
190 190 190 255 255 255 235 235 235 17 17 17 0 0 0 
0 0 0 0 0 0 0 0 0 0 0 0 0 0 0 
0 0 0 0 0 0 0 0 0 0 0 0 0 0 0 
0 0 0 0 0 0 0 0 0 0 0 0 0 0 0 
0 0 0 0 0 0 0 0 0 0 0 0 0 0 0 
0 0 0 169 169 169 255 255 255 224 224 224 161 161 161 
161 161 161 161 161 161 161 161 161 161 161 161 161 161 161 
161 161 161 161 161 161 161 161 161 161 161 161 161 161 161 
161 161 161 230 230 230 255 255 255 149 149 149 0 0 0 
0 0 0 0 0 0 0 0 0 0 0 0 0 0 0 
0 0 0 0 0 0 0 0 0 0 0 0 0 0 0 
0 0 0 0 0 0 0 0 0 0 0 0 0 0 0 
0 0 0 0 0 0 0 0 0 0 0 0 0 0 0 
66 66 66 255 255 255 252 252 252 172 172 172 161 161 161 
161 161 161 161 161 161 161 161 161 161 161 161 161 161 161 
161 161 161 161 161 161 161 161 161 161 161 161 161 161 161 
161 161 161 177 177 177 253 253 253 252 252 252 49 49 49 
0 0 0 0 0 0 0 0 0 0 0 0 0 0 0 
0 0 0 0 0 0 0 0 0 0 0 0 0 0 0 
0 0 0 0 0 0 0 0 0 0 0 0 0 0 0 
0 0 0 0 0 0 0 0 0 0 0 0 5 5 5 
214 214 214 255 255 255 209 209 209 161 161 161 161 161 161 
161 161 161 161 161 161 161 161 161 161 161 161 161 161 161 
161 161 161 161 161 161 161 161 161 161 161 161 161 161 161 
161 161 161 161 161 161 215 215 215 255 255 255 197 197 197 
1 1 1 0 0 0 0 0 0 0 0 0 0 0 0 
0 0 0 0 0 0 0 0 0 0 0 0 0 0 0 
0 0 0 0 0 0 0 0 0 0 0 0 0 0 0 
0 0 0 0 0 0 0 0 0 0 0 0 116 116 116 
255 255 255 245 245 245 165 165 165 161 161 161 161 161 161 
161 161 161 161 161 161 161 161 161 161 161 161 161 161 161 
161 161 161 161 161 161 161 161 161 161 161 161 161 161 161 
161 161 161 161 161 161 167 167 167 248 248 248 255 255 255 
96 96 96 0 0 0 0 0 0 0 0 0 0 0 0 
0 0 0 0 0 0 0 0 0 0 0 0 0 0 0 
0 0 0 0 0 0 0 0 0 0 0 0 0 0 0 
0 0 0 0 0 0 0 0 0 26 26 26 243 243 243 
255 255 255 194 194 194 161 161 161 161 161 161 161 161 161 
161 161 161 161 161 161 161 161 161 161 161 161 161 161 161 
161 161 161 161 161 161 161 161 161 161 161 161 161 161 161 
161 161 161 161 161 161 161 161 161 200 200 200 255 255 255 
232 232 232 15 15 15 0 0 0 0 0 0 0 0 0 
0 0 0 0 0 0 0 0 0 0 0 0 0 0 0 
0 0 0 0 0 0 0 0 0 0 0 0 0 0 0 
0 0 0 0 0 0 0 0 0 166 166 166 255 255 255 
233 233 233 161 161 161 161 161 161 161 161 161 161 161 161 
161 161 161 161 161 161 161 161 161 161 161 161 161 161 161 
161 161 161 161 161 161 161 161 161 161 161 161 161 161 161 
161 161 161 161 161 161 161 161 161 162 162 162 239 239 239 
255 255 255 145 145 145 0 0 0 0 0 0 0 0 0 
0 0 0 0 0 0 0 0 0 0 0 0 0 0 0 
0 0 0 0 0 0 0 0 0 0 0 0 0 0 0 
0 0 0 0 0 0 64 64 64 255 255 255 254 254 254 
180 180 180 161 161 161 161 161 161 161 161 161 161 161 161 
161 161 161 161 161 161 161 161 161 161 161 161 161 161 161 
161 161 161 161 161 161 161 161 161 161 161 161 161 161 161 
161 161 161 161 161 161 161 161 161 161 161 161 186 186 186 
255 255 255 252 252 252 45 45 45 0 0 0 0 0 0 
0 0 0 0 0 0 0 0 0 0 0 0 0 0 0 
0 0 0 0 0 0 0 0 0 0 0 0 0 0 0 
0 0 0 4 4 4 212 212 212 255 255 255 218 218 218 
161 161 161 161 161 161 161 161 161 161 161 161 161 161 161 
161 161 161 161 161 161 161 161 161 161 161 161 161 161 161 
161 161 161 161 161 161 161 161 161 161 161 161 161 161 161 
161 161 161 161 161 161 161 161 161 161 161 161 161 161 161 
225 225 225 255 255 255 193 193 193 0 0 0 0 0 0 
0 0 0 0 0 0 0 0 0 0 0 0 0 0 0 
0 0 0 0 0 0 0 0 0 0 0 0 0 0 0 
0 0 0 113 113 113 255 255 255 249 249 249 169 169 169 
161 161 161 161 161 161 161 161 161 161 161 161 161 161 161 
161 161 161 161 161 161 161 161 161 161 161 161 161 161 161 
161 161 161 161 161 161 161 161 161 161 161 161 161 161 161 
161 161 161 161 161 161 161 161 161 161 161 161 161 161 161 
173 173 173 252 252 252 255 255 255 91 91 91 0 0 0 
0 0 0 0 0 0 0 0 0 0 0 0 0 0 0 
0 0 0 0 0 0 0 0 0 0 0 0 0 0 0 
24 24 24 241 241 241 255 255 255 203 203 203 161 161 161 
161 161 161 161 161 161 161 161 161 161 161 161 161 161 161 
161 161 161 161 161 161 161 161 161 161 161 161 161 161 161 
161 161 161 161 161 161 161 161 161 161 161 161 161 161 161 
161 161 161 161 161 161 161 161 161 161 161 161 161 161 161 
161 161 161 210 210 210 255 255 255 230 230 230 13 13 13 
0 0 0 0 0 0 0 0 0 0 0 0 0 0 0 
0 0 0 0 0 0 0 0 0 0 0 0 0 0 0 
163 163 163 255 255 255 241 241 241 163 163 163 161 161 161 
161 161 161 161 161 161 161 161 161 161 161 161 161 161 161 
161 161 161 161 161 161 161 161 161 161 161 161 161 161 161 
161 161 161 161 161 161 161 161 161 161 161 161 161 161 161 
161 161 161 161 161 161 161 161 161 161 161 161 161 161 161 
161 161 161 165 165 165 245 245 245 255 255 255 141 141 141 
0 0 0 0 0 0 0 0 0 0 0 0 0 0 0 
0 0 0 0 0 0 0 0 0 0 0 0 61 61 61 
255 255 255 255 255 255 189 189 189 161 161 161 161 161 161 
161 161 161 161 161 161 161 161 161 161 161 161 161 161 161 
161 161 161 161 161 161 161 161 161 161 161 161 161 161 161 
161 161 161 161 161 161 161 161 161 161 161 161 161 161 161 
161 161 161 161 161 161 161 161 161 161 161 161 161 161 161 
161 161 161 161 161 161 195 195 195 255 255 255 251 251 251 
42 42 42 0 0 0 0 0 0 0 0 0 0 0 0 
0 0 0 0 0 0 0 0 0 3 3 3 209 209 209 
255 255 255 228 228 228 161 161 161 161 161 161 161 161 161 
161 161 161 161 161 161 161 161 161 161 161 161 161 161 161 
161 161 161 161 161 161 161 161 161 161 161 161 161 161 161 
161 161 161 161 161 161 161 161 161 161 161 161 161 161 161 
161 161 161 161 161 161 161 161 161 161 161 161 161 161 161 
161 161 161 161 161 161 161 161 161 235 235 235 255 255 255 
190 190 190 0 0 0 0 0 0 0 0 0 0 0 0 
0 0 0 0 0 0 0 0 0 110 110 110 255 255 255 
253 253 253 175 175 175 161 161 161 161 161 161 161 161 161 
161 161 161 161 161 161 161 161 161 161 161 161 161 161 161 
161 161 161 161 161 161 161 161 161 161 161 161 161 161 161 
161 161 161 161 161 161 161 161 161 161 161 161 161 161 161 
161 161 161 161 161 161 161 161 161 161 161 161 161 161 161 
161 161 161 161 161 161 161 161 161 181 181 181 254 254 254 
255 255 255 87 87 87 0 0 0 0 0 0 0 0 0 
0 0 0 0 0 0 23 23 23 240 240 240 255 255 255 
213 213 213 161 161 161 161 161 161 161 161 161 161 161 161 
161 161 161 161 161 161 161 161 161 161 161 161 161 161 161 
161 161 161 161 161 161 161 161 161 161 161 161 161 161 161 
161 161 161 161 161 161 161 161 161 161 161 161 161 161 161 
161 161 161 161 161 161 161 161 161 161 161 161 161 161 161 
161 161 161 161 161 161 161 161 161 161 161 161 220 220 220 
255 255 255 228 228 228 12 12 12 0 0 0 0 0 0 
0 0 0 0 0 0 160 160 160 255 255 255 247 247 247 
166 166 166 161 161 161 161 161 161 161 161 161 161 161 161 
161 161 161 161 161 161 161 161 161 161 161 161 161 161 161 
161 161 161 161 161 161 161 161 161 161 161 161 161 161 161 
161 161 161 161 161 161 161 161 161 161 161 161 161 161 161 
161 161 161 161 161 161 161 161 161 161 161 161 161 161 161 
161 161 161 161 161 161 161 161 161 161 161 161 170 170 170 
250 250 250 255 255 255 137 137 137 0 0 0 0 0 0 
0 0 0 58 58 58 254 254 254 255 255 255 198 198 198 
161 161 161 161 161 161 161 161 161 161 161 161 161 161 161 
161 161 161 161 161 161 161 161 161 161 161 161 161 161 161 
161 161 161 161 161 161 161 161 161 161 161 161 161 161 161 
161 161 161 161 161 161 161 161 161 161 161 161 161 161 161 
161 161 161 161 161 161 161 161 161 161 161 161 161 161 161 
161 161 161 161 161 161 161 161 161 161 161 161 161 161 161 
205 205 205 255 255 255 250 250 250 39 39 39 0 0 0 
3 3 3 207 207 207 255 255 255 237 237 237 161 161 161 
161 161 161 161 161 161 161 161 161 161 161 161 161 161 161 
161 161 161 161 161 161 161 161 161 161 161 161 161 161 161 
161 161 161 161 161 161 161 161 161 161 161 161 161 161 161 
161 161 161 161 161 161 161 161 161 161 161 161 161 161 161 
161 161 161 161 161 161 161 161 161 161 161 161 161 161 161 
161 161 161 161 161 161 161 161 161 161 161 161 161 161 161 
163 163 163 242 242 242 255 255 255 186 186 186 0 0 0 
107 107 107 255 255 255 255 255 255 243 243 243 233 233 233 
232 232 232 232 232 232 232 232 232 231 231 231 231 231 231 
231 231 231 230 230 230 230 230 230 229 229 229 229 229 229 
229 229 229 228 228 228 228 228 228 227 227 227 227 227 227 
226 226 226 226 226 226 226 226 226 225 225 225 225 225 225 
225 225 225 224 224 224 224 224 224 224 224 224 223 223 223 
223 223 223 222 222 222 222 222 222 222 222 222 221 221 221 
221 221 221 238 238 238 255 255 255 255 255 255 83 83 83 
219 219 219 255 255 255 255 255 255 255 255 255 255 255 255 
255 255 255 255 255 255 255 255 255 255 255 255 255 255 255 
255 255 255 255 255 255 255 255 255 255 255 255 255 255 255 
255 255 255 255 255 255 255 255 255 255 255 255 255 255 255 
255 255 255 255 255 255 255 255 255 255 255 255 255 255 255 
255 255 255 255 255 255 255 255 255 255 255 255 255 255 255 
255 255 255 255 255 255 255 255 255 255 255 255 255 255 255 
255 255 255 255 255 255 255 255 255 255 255 255 211 211 211 
103 103 103 184 184 184 189 189 189 190 190 190 191 191 191 
192 192 192 193 193 193 194 194 194 195 195 195 196 196 196 
197 197 197 198 198 198 199 199 199 200 200 200 201 201 201 
202 202 202 203 203 203 204 204 204 205 205 205 206 206 206 
207 207 207 208 208 208 209 209 209 210 210 210 211 211 211 
212 212 212 213 213 213 214 214 214 215 215 215 216 216 216 
217 217 217 218 218 218 219 219 219 220 220 220 221 221 221 
222 222 222 223 223 223 224 224 224 221 221 221 137 137 137 
0 0 0 0 0 0 0 0 0 0 0 0 0 0 0 
0 0 0 0 0 0 0 0 0 0 0 0 0 0 0 
0 0 0 0 0 0 0 0 0 0 0 0 0 0 0 
0 0 0 0 0 0 0 0 0 0 0 0 0 0 0 
0 0 0 0 0 0 0 0 0 0 0 0 0 0 0 
0 0 0 0 0 0 0 0 0 0 0 0 0 0 0 
0 0 0 0 0 0 0 0 0 0 0 0 0 0 0 
0 0 0 0 0 0 0 0 0 0 0 0 0 0 0 
0 0 0 0 0 0 0 0 0 0 0 0 0 0 0 
0 0 0 0 0 0 0 0 0 0 0 0 0 0 0 
0 0 0 0 0 0 0 0 0 0 0 0 0 0 0 
0 0 0 0 0 0 0 0 0 0 0 0 0 0 0 
0 0 0 0 0 0 0 0 0 0 0 0 0 0 0 
0 0 0 0 0 0 0 0 0 0 0 0 0 0 0 
0 0 0 0 0 0 0 0 0 0 0 0 0 0 0 
0 0 0 0 0 0 0 0 0 0 0 0 0 0 0 
0 0 0 0 0 0 0 0 0 0 0 0 0 0 0 
0 0 0 0 0 0 0 0 0 0 0 0 0 0 0 
0 0 0 0 0 0 0 0 0 0 0 0 0 0 0 
0 0 0 0 0 0 0 0 0 0 0 0 0 0 0 
0 0 0 0 0 0 0 0 0 0 0 0 0 0 0 
0 0 0 0 0 0 0 0 0 0 0 0 0 0 0 
0 0 0 0 0 0 0 0 0 0 0 0 0 0 0 
0 0 0 0 0 0 0 0 0 0 0 0 0 0 0 
