P3
# Created by IrfanView
40 40
255
0 0 0 0 0 0 158 158 158 248 248 248 255 255 255 
255 255 255 255 255 255 255 255 255 255 255 255 255 255 255 
255 255 255 255 255 255 255 255 255 255 255 255 255 255 255 
255 255 255 255 255 255 255 255 255 255 255 255 255 255 255 
255 255 255 255 255 255 255 255 255 255 255 255 255 255 255 
255 255 255 255 255 255 255 255 255 255 255 255 255 255 255 
255 255 255 255 255 255 255 255 255 255 255 255 255 255 255 
255 255 255 248 248 248 157 157 157 0 0 0 0 0 0 
0 0 0 255 255 255 255 255 255 213 213 213 186 186 186 
188 188 188 188 188 188 188 188 188 188 188 188 188 188 188 
188 188 188 188 188 188 188 188 188 188 188 188 188 188 188 
188 188 188 188 188 188 188 188 188 188 188 188 188 188 188 
188 188 188 188 188 188 188 188 188 188 188 188 188 188 188 
188 188 188 188 188 188 188 188 188 188 188 188 188 188 188 
188 188 188 188 188 188 188 188 188 188 188 188 188 188 188 
186 186 186 213 213 213 255 255 255 255 255 255 0 0 0 
157 157 157 255 255 255 70 70 70 0 0 0 0 0 0 
0 0 0 0 0 0 0 0 0 0 0 0 0 0 0 
0 0 0 0 0 0 0 0 0 0 0 0 0 0 0 
0 0 0 0 0 0 0 0 0 0 0 0 0 0 0 
0 0 0 0 0 0 0 0 0 0 0 0 0 0 0 
0 0 0 0 0 0 0 0 0 0 0 0 0 0 0 
0 0 0 0 0 0 0 0 0 0 0 0 0 0 0 
0 0 0 0 0 0 68 68 68 255 255 255 158 158 158 
248 248 248 211 211 211 0 0 0 0 0 0 0 0 0 
0 0 0 0 0 0 0 0 0 0 0 0 0 0 0 
0 0 0 0 0 0 0 0 0 0 0 0 0 0 0 
0 0 0 0 0 0 0 0 0 0 0 0 0 0 0 
0 0 0 0 0 0 0 0 0 0 0 0 0 0 0 
0 0 0 0 0 0 0 0 0 0 0 0 0 0 0 
0 0 0 0 0 0 0 0 0 0 0 0 0 0 0 
0 0 0 0 0 0 0 0 0 211 211 211 246 246 246 
255 255 255 179 179 179 35 35 35 101 101 101 95 95 95 
95 95 95 95 95 95 95 95 95 95 95 95 95 95 95 
95 95 95 95 95 95 95 95 95 95 95 95 95 95 95 
95 95 95 95 95 95 95 95 95 95 95 95 97 97 97 
89 89 89 0 0 0 0 0 0 0 0 0 0 0 0 
0 0 0 0 0 0 0 0 0 0 0 0 0 0 0 
0 0 0 0 0 0 0 0 0 0 0 0 0 0 0 
0 0 0 0 0 0 0 0 0 187 187 187 255 255 255 
255 255 255 171 171 171 140 140 140 255 255 255 255 255 255 
255 255 255 255 255 255 255 255 255 255 255 255 255 255 255 
255 255 255 255 255 255 255 255 255 255 255 255 255 255 255 
255 255 255 255 255 255 255 255 255 255 255 255 255 255 255 
255 255 255 149 149 149 0 0 0 0 0 0 0 0 0 
0 0 0 0 0 0 0 0 0 0 0 0 0 0 0 
0 0 0 0 0 0 0 0 0 0 0 0 0 0 0 
0 0 0 0 0 0 0 0 0 189 189 189 255 255 255 
255 255 255 171 171 171 129 129 129 255 255 255 195 195 195 
141 141 141 147 147 147 147 147 147 147 147 147 147 147 147 
147 147 147 147 147 147 147 147 147 147 147 147 147 147 147 
147 147 147 147 147 147 147 147 147 145 145 145 158 158 158 
255 255 255 255 255 255 155 155 155 0 0 0 0 0 0 
0 0 0 0 0 0 0 0 0 0 0 0 0 0 0 
0 0 0 0 0 0 0 0 0 0 0 0 0 0 0 
0 0 0 0 0 0 0 0 0 189 189 189 255 255 255 
255 255 255 171 171 171 129 129 129 255 255 255 103 103 103 
0 0 0 0 0 0 0 0 0 0 0 0 0 0 0 
0 0 0 0 0 0 0 0 0 0 0 0 0 0 0 
0 0 0 0 0 0 0 0 0 0 0 0 0 0 0 
86 86 86 255 255 255 255 255 255 168 168 168 0 0 0 
0 0 0 0 0 0 0 0 0 0 0 0 0 0 0 
0 0 0 0 0 0 0 0 0 0 0 0 0 0 0 
0 0 0 0 0 0 0 0 0 189 189 189 255 255 255 
255 255 255 171 171 171 129 129 129 255 255 255 113 113 113 
0 0 0 0 0 0 0 0 0 0 0 0 0 0 0 
0 0 0 0 0 0 0 0 0 0 0 0 0 0 0 
0 0 0 0 0 0 0 0 0 0 0 0 0 0 0 
0 0 0 79 79 79 255 255 255 255 255 255 179 179 179 
100 100 100 107 107 107 107 107 107 107 107 107 107 107 107 
107 107 107 107 107 107 107 107 107 107 107 107 107 107 107 
107 107 107 111 111 111 63 63 63 179 179 179 255 255 255 
255 255 255 171 171 171 129 129 129 255 255 255 113 113 113 
0 0 0 0 0 0 0 0 0 0 0 0 0 0 0 
0 0 0 0 0 0 0 0 0 0 0 0 0 0 0 
0 0 0 0 0 0 0 0 0 0 0 0 0 0 0 
0 0 0 0 0 0 75 75 75 255 255 255 255 255 255 
255 255 255 255 255 255 255 255 255 255 255 255 255 255 255 
255 255 255 255 255 255 255 255 255 255 255 255 255 255 255 
255 255 255 255 255 255 192 192 192 166 166 166 255 255 255 
255 255 255 171 171 171 129 129 129 255 255 255 113 113 113 
0 0 0 0 0 0 0 0 0 0 0 0 0 0 0 
0 0 0 0 0 0 0 0 0 0 0 0 0 0 0 
0 0 0 0 0 0 0 0 0 0 0 0 0 0 0 
0 0 0 0 0 0 0 0 0 68 68 68 166 166 166 
157 157 157 157 157 157 157 157 157 157 157 157 157 157 157 
157 157 157 157 157 157 157 157 157 157 157 157 153 153 153 
181 181 181 255 255 255 179 179 179 166 166 166 255 255 255 
255 255 255 171 171 171 129 129 129 255 255 255 113 113 113 
0 0 0 0 0 0 0 0 0 0 0 0 0 0 0 
0 0 0 0 0 0 0 0 0 0 0 0 0 0 0 
0 0 0 0 0 0 0 0 0 0 0 0 0 0 0 
0 0 0 0 0 0 0 0 0 0 0 0 0 0 0 
0 0 0 0 0 0 0 0 0 0 0 0 0 0 0 
0 0 0 0 0 0 0 0 0 0 0 0 0 0 0 
41 41 41 255 255 255 179 179 179 166 166 166 255 255 255 
255 255 255 171 171 171 129 129 129 255 255 255 113 113 113 
0 0 0 0 0 0 0 0 0 0 0 0 0 0 0 
0 0 0 0 0 0 0 0 0 74 74 74 95 95 95 
92 92 92 92 92 92 92 92 92 92 92 92 92 92 92 
92 92 92 92 92 92 92 92 92 92 92 92 92 92 92 
92 92 92 92 92 92 92 92 92 92 92 92 92 92 92 
92 92 92 92 92 92 92 92 92 92 92 92 86 86 86 
133 133 133 255 255 255 179 179 179 166 166 166 255 255 255 
255 255 255 171 171 171 129 129 129 255 255 255 106 106 106 
0 0 0 0 0 0 0 0 0 0 0 0 0 0 0 
0 0 0 0 0 0 127 127 127 255 255 255 255 255 255 
255 255 255 255 255 255 255 255 255 255 255 255 255 255 255 
255 255 255 255 255 255 255 255 255 255 255 255 255 255 255 
255 255 255 255 255 255 255 255 255 255 255 255 255 255 255 
255 255 255 255 255 255 255 255 255 255 255 255 255 255 255 
255 255 255 255 255 255 179 179 179 166 166 166 255 255 255 
255 255 255 171 171 171 129 129 129 255 255 255 161 161 161 
76 76 76 85 85 85 85 85 85 85 85 85 85 85 85 
79 79 79 144 144 144 255 255 255 255 255 255 172 172 172 
171 171 171 172 172 172 172 172 172 172 172 172 172 172 172 
172 172 172 172 172 172 172 172 172 172 172 172 172 172 172 
172 172 172 172 172 172 172 172 172 172 172 172 172 172 172 
172 172 172 172 172 172 172 172 172 172 172 172 168 168 168 
192 192 192 255 255 255 179 179 179 166 166 166 255 255 255 
255 255 255 171 171 171 129 129 129 255 255 255 255 255 255 
255 255 255 255 255 255 255 255 255 255 255 255 255 255 255 
255 255 255 255 255 255 255 255 255 88 88 88 0 0 0 
0 0 0 0 0 0 0 0 0 0 0 0 0 0 0 
0 0 0 0 0 0 0 0 0 0 0 0 0 0 0 
0 0 0 0 0 0 0 0 0 0 0 0 0 0 0 
0 0 0 0 0 0 0 0 0 0 0 0 0 0 0 
48 48 48 255 255 255 179 179 179 166 166 166 255 255 255 
255 255 255 171 171 171 129 129 129 255 255 255 198 198 198 
148 148 148 154 154 154 154 154 154 154 154 154 154 154 154 
154 154 154 161 161 161 78 78 78 0 0 0 0 0 0 
0 0 0 0 0 0 0 0 0 22 22 22 80 80 80 
86 86 86 35 35 35 0 0 0 0 0 0 0 0 0 
0 0 0 0 0 0 0 0 0 0 0 0 0 0 0 
0 0 0 0 0 0 0 0 0 0 0 0 0 0 0 
63 63 63 255 255 255 179 179 179 166 166 166 255 255 255 
255 255 255 171 171 171 129 129 129 255 255 255 102 102 102 
0 0 0 0 0 0 0 0 0 0 0 0 0 0 0 
0 0 0 0 0 0 0 0 0 0 0 0 0 0 0 
0 0 0 95 95 95 255 255 255 255 255 255 255 255 255 
255 255 255 255 255 255 255 255 255 124 124 124 0 0 0 
0 0 0 0 0 0 0 0 0 0 0 0 0 0 0 
0 0 0 0 0 0 0 0 0 0 0 0 0 0 0 
63 63 63 255 255 255 179 179 179 166 166 166 255 255 255 
255 255 255 171 171 171 129 129 129 255 255 255 113 113 113 
0 0 0 0 0 0 0 0 0 0 0 0 0 0 0 
0 0 0 0 0 0 0 0 0 0 0 0 0 0 0 
213 213 213 255 255 255 255 255 255 255 255 255 188 188 188 
177 177 177 253 253 253 255 255 255 255 255 255 248 248 248 
0 0 0 0 0 0 0 0 0 0 0 0 0 0 0 
0 0 0 0 0 0 0 0 0 0 0 0 0 0 0 
63 63 63 255 255 255 179 179 179 166 166 166 255 255 255 
255 255 255 171 171 171 129 129 129 255 255 255 113 113 113 
0 0 0 0 0 0 0 0 0 0 0 0 0 0 0 
0 0 0 0 0 0 0 0 0 0 0 0 213 213 213 
255 255 255 255 255 255 72 72 72 0 0 0 0 0 0 
0 0 0 0 0 0 42 42 42 255 255 255 255 255 255 
253 253 253 0 0 0 0 0 0 0 0 0 0 0 0 
0 0 0 0 0 0 0 0 0 0 0 0 0 0 0 
63 63 63 255 255 255 179 179 179 166 166 166 255 255 255 
255 255 255 171 171 171 129 129 129 255 255 255 113 113 113 
0 0 0 0 0 0 0 0 0 0 0 0 0 0 0 
0 0 0 0 0 0 0 0 0 89 89 89 255 255 255 
255 255 255 0 0 0 0 0 0 0 0 0 30 30 30 
62 62 62 0 0 0 0 0 0 0 0 0 253 253 253 
255 255 255 144 144 144 0 0 0 0 0 0 0 0 0 
0 0 0 0 0 0 0 0 0 0 0 0 0 0 0 
63 63 63 255 255 255 179 179 179 166 166 166 255 255 255 
255 255 255 171 171 171 129 129 129 255 255 255 113 113 113 
0 0 0 0 0 0 0 0 0 0 0 0 0 0 0 
0 0 0 0 0 0 0 0 0 228 228 228 255 255 255 
96 96 96 0 0 0 0 0 0 95 95 95 255 255 255 
255 255 255 135 135 135 0 0 0 0 0 0 42 42 42 
255 255 255 255 255 255 0 0 0 0 0 0 0 0 0 
0 0 0 0 0 0 0 0 0 0 0 0 0 0 0 
63 63 63 255 255 255 179 179 179 166 166 166 255 255 255 
255 255 255 171 171 171 129 129 129 255 255 255 113 113 113 
0 0 0 0 0 0 0 0 0 0 0 0 0 0 0 
0 0 0 0 0 0 0 0 0 255 255 255 255 255 255 
0 0 0 0 0 0 206 206 206 255 255 255 255 255 255 
255 255 255 255 255 255 237 237 237 7 7 7 0 0 0 
254 254 254 255 255 255 44 44 44 0 0 0 0 0 0 
0 0 0 0 0 0 0 0 0 0 0 0 0 0 0 
63 63 63 255 255 255 179 179 179 166 166 166 255 255 255 
255 255 255 171 171 171 129 129 129 255 255 255 113 113 113 
0 0 0 0 0 0 0 0 0 0 0 0 0 0 0 
0 0 0 0 0 0 46 46 46 255 255 255 248 248 248 
0 0 0 0 0 0 183 183 183 255 255 255 250 250 250 
255 255 255 255 255 255 232 232 232 0 0 0 0 0 0 
198 198 198 255 255 255 96 96 96 0 0 0 0 0 0 
0 0 0 0 0 0 0 0 0 0 0 0 0 0 0 
63 63 63 255 255 255 179 179 179 166 166 166 255 255 255 
255 255 255 171 171 171 129 129 129 255 255 255 113 113 113 
0 0 0 0 0 0 0 0 0 0 0 0 0 0 0 
0 0 0 0 0 0 21 21 21 255 255 255 255 255 255 
0 0 0 0 0 0 0 0 0 0 0 0 255 255 255 
255 255 255 2 2 2 7 7 7 0 0 0 0 0 0 
222 222 222 255 255 255 70 70 70 0 0 0 0 0 0 
0 0 0 0 0 0 0 0 0 0 0 0 0 0 0 
63 63 63 255 255 255 179 179 179 166 166 166 255 255 255 
255 255 255 171 171 171 129 129 129 255 255 255 113 113 113 
0 0 0 0 0 0 0 0 0 0 0 0 0 0 0 
0 0 0 0 0 0 0 0 0 255 255 255 255 255 255 
27 27 27 0 0 0 0 0 0 0 0 0 255 255 255 
255 255 255 0 0 0 0 0 0 0 0 0 0 0 0 
255 255 255 255 255 255 2 2 2 0 0 0 0 0 0 
0 0 0 0 0 0 0 0 0 0 0 0 0 0 0 
63 63 63 255 255 255 179 179 179 166 166 166 255 255 255 
255 255 255 171 171 171 129 129 129 255 255 255 113 113 113 
0 0 0 0 0 0 0 0 0 0 0 0 0 0 0 
0 0 0 0 0 0 0 0 0 164 164 164 255 255 255 
206 206 206 0 0 0 0 0 0 0 0 0 220 220 220 
235 235 235 0 0 0 0 0 0 0 0 0 163 163 163 
255 255 255 221 221 221 0 0 0 0 0 0 0 0 0 
0 0 0 0 0 0 0 0 0 0 0 0 0 0 0 
63 63 63 255 255 255 179 179 179 166 166 166 255 255 255 
255 255 255 171 171 171 129 129 129 255 255 255 113 113 113 
0 0 0 0 0 0 0 0 0 0 0 0 0 0 0 
0 0 0 0 0 0 0 0 0 0 0 0 255 255 255 
255 255 255 173 173 173 0 0 0 0 0 0 0 0 0 
0 0 0 0 0 0 0 0 0 124 124 124 255 255 255 
255 255 255 30 30 30 0 0 0 0 0 0 0 0 0 
0 0 0 0 0 0 0 0 0 0 0 0 0 0 0 
63 63 63 255 255 255 179 179 179 166 166 166 255 255 255 
255 255 255 171 171 171 129 129 129 255 255 255 113 113 113 
0 0 0 0 0 0 0 0 0 0 0 0 0 0 0 
0 0 0 0 0 0 0 0 0 0 0 0 54 54 54 
255 255 255 255 255 255 251 251 251 110 110 110 38 38 38 
35 35 35 95 95 95 229 229 229 255 255 255 255 255 255 
104 104 104 0 0 0 0 0 0 0 0 0 0 0 0 
0 0 0 0 0 0 0 0 0 0 0 0 0 0 0 
63 63 63 255 255 255 179 179 179 166 166 166 255 255 255 
255 255 255 171 171 171 129 129 129 255 255 255 113 113 113 
0 0 0 0 0 0 0 0 0 0 0 0 0 0 0 
0 0 0 0 0 0 0 0 0 0 0 0 0 0 0 
30 30 30 253 253 253 255 255 255 255 255 255 255 255 255 
255 255 255 255 255 255 255 255 255 255 255 255 64 64 64 
0 0 0 0 0 0 0 0 0 0 0 0 0 0 0 
0 0 0 0 0 0 0 0 0 0 0 0 0 0 0 
63 63 63 255 255 255 179 179 179 166 166 166 255 255 255 
255 255 255 171 171 171 129 129 129 255 255 255 113 113 113 
0 0 0 0 0 0 0 0 0 0 0 0 0 0 0 
0 0 0 0 0 0 0 0 0 0 0 0 0 0 0 
0 0 0 0 0 0 72 72 72 175 175 175 229 229 229 
233 233 233 186 186 186 88 88 88 0 0 0 0 0 0 
0 0 0 0 0 0 0 0 0 0 0 0 0 0 0 
0 0 0 0 0 0 0 0 0 0 0 0 0 0 0 
63 63 63 255 255 255 179 179 179 166 166 166 255 255 255 
255 255 255 171 171 171 129 129 129 255 255 255 109 109 109 
0 0 0 0 0 0 0 0 0 0 0 0 0 0 0 
0 0 0 0 0 0 0 0 0 0 0 0 0 0 0 
0 0 0 0 0 0 0 0 0 0 0 0 0 0 0 
0 0 0 0 0 0 0 0 0 0 0 0 0 0 0 
0 0 0 0 0 0 0 0 0 0 0 0 0 0 0 
0 0 0 0 0 0 0 0 0 0 0 0 0 0 0 
58 58 58 255 255 255 179 179 179 166 166 166 255 255 255 
255 255 255 171 171 171 129 129 129 255 255 255 128 128 128 
16 16 16 27 27 27 27 27 27 27 27 27 27 27 27 
27 27 27 27 27 27 27 27 27 27 27 27 27 27 27 
27 27 27 27 27 27 27 27 27 27 27 27 27 27 27 
27 27 27 27 27 27 27 27 27 27 27 27 27 27 27 
27 27 27 27 27 27 27 27 27 27 27 27 27 27 27 
27 27 27 27 27 27 27 27 27 27 27 27 20 20 20 
85 85 85 255 255 255 179 179 179 166 166 166 255 255 255 
255 255 255 171 171 171 133 133 133 255 255 255 255 255 255 
255 255 255 255 255 255 255 255 255 255 255 255 255 255 255 
255 255 255 255 255 255 255 255 255 255 255 255 255 255 255 
255 255 255 255 255 255 255 255 255 255 255 255 255 255 255 
255 255 255 255 255 255 255 255 255 255 255 255 255 255 255 
255 255 255 255 255 255 255 255 255 255 255 255 255 255 255 
255 255 255 255 255 255 255 255 255 255 255 255 255 255 255 
255 255 255 255 255 255 184 184 184 166 166 166 255 255 255 
255 255 255 175 175 175 105 105 105 225 225 225 215 215 215 
215 215 215 215 215 215 215 215 215 215 215 215 215 215 215 
215 215 215 215 215 215 215 215 215 215 215 215 215 215 215 
215 215 215 215 215 215 215 215 215 215 215 215 215 215 215 
215 215 215 215 215 215 215 215 215 215 215 215 215 215 215 
215 215 215 215 215 215 215 215 215 215 215 215 215 215 215 
215 215 215 215 215 215 215 215 215 215 215 215 215 215 215 
215 215 215 222 222 222 147 147 147 171 171 171 255 255 255 
255 255 255 187 187 187 0 0 0 0 0 0 0 0 0 
0 0 0 0 0 0 0 0 0 0 0 0 0 0 0 
0 0 0 0 0 0 0 0 0 0 0 0 0 0 0 
0 0 0 0 0 0 0 0 0 0 0 0 0 0 0 
0 0 0 0 0 0 0 0 0 0 0 0 0 0 0 
0 0 0 0 0 0 0 0 0 0 0 0 0 0 0 
0 0 0 0 0 0 0 0 0 0 0 0 0 0 0 
0 0 0 0 0 0 0 0 0 187 187 187 255 255 255 
248 248 248 211 211 211 0 0 0 0 0 0 0 0 0 
0 0 0 0 0 0 0 0 0 0 0 0 0 0 0 
0 0 0 0 0 0 0 0 0 0 0 0 0 0 0 
0 0 0 0 0 0 0 0 0 0 0 0 0 0 0 
0 0 0 0 0 0 0 0 0 0 0 0 0 0 0 
0 0 0 0 0 0 0 0 0 0 0 0 0 0 0 
0 0 0 0 0 0 0 0 0 0 0 0 0 0 0 
0 0 0 0 0 0 0 0 0 211 211 211 246 246 246 
158 158 158 255 255 255 70 70 70 0 0 0 0 0 0 
0 0 0 0 0 0 0 0 0 0 0 0 0 0 0 
0 0 0 0 0 0 0 0 0 0 0 0 0 0 0 
0 0 0 0 0 0 0 0 0 0 0 0 0 0 0 
0 0 0 0 0 0 0 0 0 0 0 0 0 0 0 
0 0 0 0 0 0 0 0 0 0 0 0 0 0 0 
0 0 0 0 0 0 0 0 0 0 0 0 0 0 0 
0 0 0 0 0 0 69 69 69 255 255 255 158 158 158 
0 0 0 255 255 255 255 255 255 213 213 213 186 186 186 
188 188 188 188 188 188 188 188 188 188 188 188 188 188 188 
188 188 188 188 188 188 188 188 188 188 188 188 188 188 188 
188 188 188 188 188 188 188 188 188 188 188 188 188 188 188 
188 188 188 188 188 188 188 188 188 188 188 188 188 188 188 
188 188 188 188 188 188 188 188 188 188 188 188 188 188 188 
188 188 188 188 188 188 188 188 188 188 188 188 188 188 188 
186 186 186 213 213 213 255 255 255 255 255 255 0 0 0 
0 0 0 0 0 0 156 156 156 248 248 248 255 255 255 
255 255 255 255 255 255 255 255 255 255 255 255 255 255 255 
255 255 255 255 255 255 255 255 255 255 255 255 255 255 255 
255 255 255 255 255 255 255 255 255 255 255 255 255 255 255 
255 255 255 255 255 255 255 255 255 255 255 255 255 255 255 
255 255 255 255 255 255 255 255 255 255 255 255 255 255 255 
255 255 255 255 255 255 255 255 255 255 255 255 255 255 255 
255 255 255 248 248 248 155 155 155 0 0 0 0 0 0 
