P3
# Created by IrfanView
40 40
255
0 0 0 0 0 0 0 0 0 0 0 0 0 0 0 
0 0 0 0 0 0 0 0 0 0 0 0 0 0 0 
0 0 0 0 0 0 0 0 0 0 0 0 0 0 0 
0 0 0 0 0 0 0 0 0 0 0 0 0 0 0 
0 0 0 0 0 0 0 0 0 0 0 0 0 0 0 
0 0 0 0 0 0 0 0 0 0 0 0 0 0 0 
0 0 0 0 0 0 0 0 0 0 0 0 0 0 0 
0 0 0 0 0 0 0 0 0 0 0 0 0 0 0 
0 0 0 0 0 0 0 0 0 0 0 0 0 0 0 
0 0 0 0 0 0 0 0 0 0 0 0 0 0 0 
0 0 0 0 0 0 0 0 0 0 0 0 0 0 0 
0 0 0 0 0 0 0 0 0 0 0 0 0 0 0 
0 0 0 0 0 0 0 0 0 0 0 0 0 0 0 
0 0 0 0 0 0 0 0 0 0 0 0 0 0 0 
0 0 0 0 0 0 0 0 0 0 0 0 0 0 0 
0 0 0 0 0 0 0 0 0 0 0 0 0 0 0 
155 155 155 155 155 155 155 155 155 155 155 155 155 155 155 
155 155 155 155 155 155 155 155 155 155 155 155 155 155 155 
155 155 155 155 155 155 155 155 155 155 155 155 155 155 155 
155 155 155 155 155 155 155 155 155 155 155 155 158 158 158 
145 145 145 0 0 0 0 0 0 0 0 0 0 0 0 
0 0 0 0 0 0 0 0 0 0 0 0 0 0 0 
0 0 0 0 0 0 0 0 0 0 0 0 0 0 0 
0 0 0 0 0 0 0 0 0 0 0 0 0 0 0 
255 255 255 255 255 255 255 255 255 255 255 255 255 255 255 
255 255 255 255 255 255 255 255 255 255 255 255 255 255 255 
255 255 255 255 255 255 255 255 255 255 255 255 255 255 255 
255 255 255 255 255 255 255 255 255 255 255 255 255 255 255 
255 255 255 191 191 191 0 0 0 0 0 0 0 0 0 
0 0 0 0 0 0 0 0 0 0 0 0 0 0 0 
0 0 0 0 0 0 0 0 0 0 0 0 0 0 0 
0 0 0 0 0 0 0 0 0 0 0 0 0 0 0 
255 255 255 255 255 255 222 222 222 206 206 206 208 208 208 
208 208 208 208 208 208 208 208 208 208 208 208 208 208 208 
208 208 208 208 208 208 208 208 208 208 208 208 208 208 208 
208 208 208 208 208 208 208 208 208 206 206 206 229 229 229 
255 255 255 255 255 255 191 191 191 0 0 0 0 0 0 
0 0 0 0 0 0 0 0 0 0 0 0 0 0 0 
0 0 0 0 0 0 0 0 0 0 0 0 0 0 0 
0 0 0 0 0 0 0 0 0 0 0 0 0 0 0 
255 255 255 255 255 255 62 62 62 0 0 0 0 0 0 
0 0 0 0 0 0 0 0 0 0 0 0 0 0 0 
0 0 0 0 0 0 0 0 0 0 0 0 0 0 0 
0 0 0 0 0 0 0 0 0 0 0 0 0 0 0 
195 195 195 255 255 255 255 255 255 191 191 191 0 0 0 
0 0 0 0 0 0 0 0 0 0 0 0 0 0 0 
0 0 0 0 0 0 0 0 0 0 0 0 0 0 0 
0 0 0 0 0 0 0 0 0 0 0 0 0 0 0 
255 255 255 255 255 255 78 78 78 0 0 0 0 0 0 
0 0 0 0 0 0 0 0 0 0 0 0 0 0 0 
0 0 0 0 0 0 0 0 0 0 0 0 0 0 0 
0 0 0 0 0 0 0 0 0 0 0 0 0 0 0 
0 0 0 195 195 195 255 255 255 255 255 255 191 191 191 
0 0 0 0 0 0 0 0 0 0 0 0 0 0 0 
0 0 0 0 0 0 0 0 0 0 0 0 0 0 0 
0 0 0 0 0 0 0 0 0 0 0 0 0 0 0 
255 255 255 255 255 255 78 78 78 0 0 0 0 0 0 
0 0 0 0 0 0 0 0 0 0 0 0 0 0 0 
0 0 0 0 0 0 0 0 0 0 0 0 0 0 0 
0 0 0 0 0 0 0 0 0 0 0 0 0 0 0 
0 0 0 0 0 0 194 194 194 255 255 255 255 255 255 
255 255 255 255 255 255 255 255 255 255 255 255 255 255 255 
255 255 255 255 255 255 255 255 255 255 255 255 255 255 255 
255 255 255 255 255 255 255 255 255 255 255 255 255 255 255 
255 255 255 255 255 255 78 78 78 0 0 0 0 0 0 
0 0 0 0 0 0 0 0 0 0 0 0 0 0 0 
0 0 0 0 0 0 0 0 0 0 0 0 0 0 0 
0 0 0 0 0 0 0 0 0 0 0 0 0 0 0 
0 0 0 0 0 0 0 0 0 195 195 195 255 255 255 
255 255 255 255 255 255 255 255 255 255 255 255 255 255 255 
255 255 255 255 255 255 255 255 255 255 255 255 255 255 255 
255 255 255 255 255 255 255 255 255 255 255 255 255 255 255 
255 255 255 255 255 255 78 78 78 0 0 0 0 0 0 
0 0 0 0 0 0 0 0 0 0 0 0 0 0 0 
0 0 0 0 0 0 0 0 0 0 0 0 0 0 0 
0 0 0 0 0 0 0 0 0 0 0 0 0 0 0 
0 0 0 0 0 0 0 0 0 0 0 0 106 106 106 
103 103 103 102 102 102 102 102 102 102 102 102 102 102 102 
102 102 102 102 102 102 102 102 102 102 102 102 102 102 102 
102 102 102 96 96 96 149 149 149 255 255 255 255 255 255 
255 255 255 255 255 255 78 78 78 0 0 0 0 0 0 
0 0 0 0 0 0 0 0 0 0 0 0 0 0 0 
0 0 0 0 0 0 0 0 0 0 0 0 0 0 0 
0 0 0 0 0 0 0 0 0 0 0 0 0 0 0 
0 0 0 0 0 0 0 0 0 0 0 0 0 0 0 
0 0 0 0 0 0 0 0 0 0 0 0 0 0 0 
0 0 0 0 0 0 0 0 0 0 0 0 0 0 0 
0 0 0 0 0 0 64 64 64 255 255 255 255 255 255 
255 255 255 255 255 255 78 78 78 0 0 0 0 0 0 
0 0 0 0 0 0 0 0 0 0 0 0 0 0 0 
0 0 0 0 0 0 24 24 24 50 50 50 47 47 47 
47 47 47 47 47 47 47 47 47 47 47 47 47 47 47 
47 47 47 47 47 47 47 47 47 47 47 47 47 47 47 
47 47 47 47 47 47 47 47 47 47 47 47 47 47 47 
47 47 47 47 47 47 47 47 47 47 47 47 47 47 47 
47 47 47 39 39 39 111 111 111 255 255 255 255 255 255 
255 255 255 255 255 255 78 78 78 0 0 0 0 0 0 
0 0 0 0 0 0 0 0 0 0 0 0 0 0 0 
0 0 0 56 56 56 255 255 255 255 255 255 255 255 255 
255 255 255 255 255 255 255 255 255 255 255 255 255 255 255 
255 255 255 255 255 255 255 255 255 255 255 255 255 255 255 
255 255 255 255 255 255 255 255 255 255 255 255 255 255 255 
255 255 255 255 255 255 255 255 255 255 255 255 255 255 255 
255 255 255 255 255 255 255 255 255 255 255 255 255 255 255 
255 255 255 255 255 255 58 58 58 0 0 0 0 0 0 
0 0 0 0 0 0 0 0 0 0 0 0 0 0 0 
55 55 55 255 255 255 255 255 255 255 255 255 255 255 255 
255 255 255 255 255 255 255 255 255 255 255 255 255 255 255 
255 255 255 255 255 255 255 255 255 255 255 255 255 255 255 
255 255 255 255 255 255 255 255 255 255 255 255 255 255 255 
255 255 255 255 255 255 255 255 255 255 255 255 255 255 255 
255 255 255 255 255 255 255 255 255 255 255 255 255 255 255 
255 255 255 255 255 255 255 255 255 255 255 255 255 255 255 
255 255 255 255 255 255 255 255 255 255 255 255 255 255 255 
255 255 255 255 255 255 255 255 255 11 11 11 0 0 0 
0 0 0 0 0 0 0 0 0 0 0 0 0 0 0 
0 0 0 0 0 0 0 0 0 0 0 0 0 0 0 
0 0 0 0 0 0 0 0 0 0 0 0 0 0 0 
0 0 0 0 0 0 0 0 0 0 0 0 0 0 0 
0 0 0 0 0 0 77 77 77 255 255 255 255 255 255 
255 255 255 255 255 255 255 255 255 255 255 255 255 255 255 
255 255 255 255 255 255 255 255 255 255 255 255 255 255 255 
255 255 255 255 255 255 1 1 1 0 0 0 0 0 0 
0 0 0 0 0 0 0 0 0 0 0 0 0 0 0 
0 0 0 0 0 0 0 0 0 0 0 0 0 0 0 
0 0 0 0 0 0 0 0 0 0 0 0 0 0 0 
0 0 0 0 0 0 0 0 0 0 0 0 0 0 0 
0 0 0 0 0 0 76 76 76 255 255 255 255 255 255 
255 255 255 255 255 255 150 150 150 97 97 97 104 104 104 
104 104 104 104 104 104 104 104 104 104 104 104 104 104 104 
113 113 113 13 13 13 0 0 0 0 0 0 0 0 0 
0 0 0 0 0 0 10 10 10 96 96 96 132 132 132 
132 132 132 95 95 95 8 8 8 0 0 0 0 0 0 
0 0 0 0 0 0 0 0 0 0 0 0 0 0 0 
0 0 0 0 0 0 0 0 0 0 0 0 0 0 0 
0 0 0 0 0 0 78 78 78 255 255 255 255 255 255 
255 255 255 255 255 255 69 69 69 0 0 0 0 0 0 
0 0 0 0 0 0 0 0 0 0 0 0 0 0 0 
0 0 0 0 0 0 0 0 0 0 0 0 0 0 0 
22 22 22 207 207 207 255 255 255 255 255 255 255 255 255 
255 255 255 255 255 255 255 255 255 206 206 206 22 22 22 
0 0 0 0 0 0 0 0 0 0 0 0 0 0 0 
0 0 0 0 0 0 0 0 0 0 0 0 0 0 0 
0 0 0 0 0 0 78 78 78 255 255 255 255 255 255 
255 255 255 255 255 255 78 78 78 0 0 0 0 0 0 
0 0 0 0 0 0 0 0 0 0 0 0 0 0 0 
0 0 0 0 0 0 0 0 0 0 0 0 90 90 90 
255 255 255 255 255 255 255 255 255 255 255 255 230 230 230 
230 230 230 255 255 255 255 255 255 255 255 255 255 255 255 
90 90 90 0 0 0 0 0 0 0 0 0 0 0 0 
0 0 0 0 0 0 0 0 0 0 0 0 0 0 0 
0 0 0 0 0 0 78 78 78 255 255 255 255 255 255 
255 255 255 255 255 255 78 78 78 0 0 0 0 0 0 
0 0 0 0 0 0 0 0 0 0 0 0 0 0 0 
0 0 0 0 0 0 0 0 0 81 81 81 255 255 255 
255 255 255 255 255 255 85 85 85 0 0 0 0 0 0 
0 0 0 0 0 0 86 86 86 255 255 255 255 255 255 
255 255 255 78 78 78 0 0 0 0 0 0 0 0 0 
0 0 0 0 0 0 0 0 0 0 0 0 0 0 0 
0 0 0 0 0 0 78 78 78 255 255 255 255 255 255 
255 255 255 255 255 255 78 78 78 0 0 0 0 0 0 
0 0 0 0 0 0 0 0 0 0 0 0 0 0 0 
0 0 0 0 0 0 0 0 0 255 255 255 255 255 255 
234 234 234 0 0 0 0 0 0 0 0 0 0 0 0 
0 0 0 0 0 0 0 0 0 0 0 0 234 234 234 
255 255 255 255 255 255 0 0 0 0 0 0 0 0 0 
0 0 0 0 0 0 0 0 0 0 0 0 0 0 0 
0 0 0 0 0 0 78 78 78 255 255 255 255 255 255 
255 255 255 255 255 255 78 78 78 0 0 0 0 0 0 
0 0 0 0 0 0 0 0 0 0 0 0 0 0 0 
0 0 0 0 0 0 159 159 159 255 255 255 255 255 255 
0 0 0 0 0 0 0 0 0 0 0 0 218 218 218 
217 217 217 0 0 0 0 0 0 0 0 0 0 0 0 
255 255 255 255 255 255 157 157 157 0 0 0 0 0 0 
0 0 0 0 0 0 0 0 0 0 0 0 0 0 0 
0 0 0 0 0 0 78 78 78 255 255 255 255 255 255 
255 255 255 255 255 255 78 78 78 0 0 0 0 0 0 
0 0 0 0 0 0 0 0 0 0 0 0 0 0 0 
0 0 0 0 0 0 255 255 255 255 255 255 141 141 141 
0 0 0 0 0 0 42 42 42 255 255 255 255 255 255 
255 255 255 255 255 255 43 43 43 0 0 0 0 0 0 
140 140 140 255 255 255 255 255 255 0 0 0 0 0 0 
0 0 0 0 0 0 0 0 0 0 0 0 0 0 0 
0 0 0 0 0 0 78 78 78 255 255 255 255 255 255 
255 255 255 255 255 255 78 78 78 0 0 0 0 0 0 
0 0 0 0 0 0 0 0 0 0 0 0 0 0 0 
0 0 0 9 9 9 255 255 255 255 255 255 41 41 41 
0 0 0 109 109 109 255 255 255 255 255 255 255 255 255 
255 255 255 255 255 255 255 255 255 110 110 110 0 0 0 
41 41 41 255 255 255 255 255 255 9 9 9 0 0 0 
0 0 0 0 0 0 0 0 0 0 0 0 0 0 0 
0 0 0 0 0 0 78 78 78 255 255 255 255 255 255 
255 255 255 255 255 255 78 78 78 0 0 0 0 0 0 
0 0 0 0 0 0 0 0 0 0 0 0 0 0 0 
0 0 0 55 55 55 255 255 255 255 255 255 0 0 0 
0 0 0 0 0 0 255 255 255 253 253 253 255 255 255 
255 255 255 251 251 251 255 255 255 0 0 0 0 0 0 
0 0 0 255 255 255 255 255 255 56 56 56 0 0 0 
0 0 0 0 0 0 0 0 0 0 0 0 0 0 0 
0 0 0 0 0 0 78 78 78 255 255 255 255 255 255 
255 255 255 255 255 255 78 78 78 0 0 0 0 0 0 
0 0 0 0 0 0 0 0 0 0 0 0 0 0 0 
0 0 0 32 32 32 255 255 255 255 255 255 15 15 15 
0 0 0 0 0 0 43 43 43 15 15 15 255 255 255 
255 255 255 16 16 16 40 40 40 0 0 0 0 0 0 
17 17 17 255 255 255 255 255 255 33 33 33 0 0 0 
0 0 0 0 0 0 0 0 0 0 0 0 0 0 0 
0 0 0 0 0 0 78 78 78 255 255 255 255 255 255 
255 255 255 255 255 255 78 78 78 0 0 0 0 0 0 
0 0 0 0 0 0 0 0 0 0 0 0 0 0 0 
0 0 0 0 0 0 255 255 255 255 255 255 88 88 88 
0 0 0 0 0 0 0 0 0 21 21 21 255 255 255 
255 255 255 21 21 21 0 0 0 0 0 0 0 0 0 
87 87 87 255 255 255 255 255 255 0 0 0 0 0 0 
0 0 0 0 0 0 0 0 0 0 0 0 0 0 0 
0 0 0 0 0 0 78 78 78 255 255 255 255 255 255 
255 255 255 255 255 255 78 78 78 0 0 0 0 0 0 
0 0 0 0 0 0 0 0 0 0 0 0 0 0 0 
0 0 0 0 0 0 210 210 210 255 255 255 237 237 237 
0 0 0 0 0 0 0 0 0 27 27 27 255 255 255 
255 255 255 27 27 27 0 0 0 0 0 0 0 0 0 
236 236 236 255 255 255 212 212 212 0 0 0 0 0 0 
0 0 0 0 0 0 0 0 0 0 0 0 0 0 0 
0 0 0 0 0 0 78 78 78 255 255 255 255 255 255 
255 255 255 255 255 255 78 78 78 0 0 0 0 0 0 
0 0 0 0 0 0 0 0 0 0 0 0 0 0 0 
0 0 0 0 0 0 54 54 54 255 255 255 255 255 255 
136 136 136 0 0 0 0 0 0 2 2 2 54 54 54 
54 54 54 2 2 2 0 0 0 0 0 0 138 138 138 
255 255 255 255 255 255 55 55 55 0 0 0 0 0 0 
0 0 0 0 0 0 0 0 0 0 0 0 0 0 0 
0 0 0 0 0 0 78 78 78 255 255 255 255 255 255 
255 255 255 255 255 255 78 78 78 0 0 0 0 0 0 
0 0 0 0 0 0 0 0 0 0 0 0 0 0 0 
0 0 0 0 0 0 0 0 0 192 192 192 255 255 255 
255 255 255 151 151 151 0 0 0 0 0 0 0 0 0 
0 0 0 0 0 0 0 0 0 151 151 151 255 255 255 
255 255 255 192 192 192 0 0 0 0 0 0 0 0 0 
0 0 0 0 0 0 0 0 0 0 0 0 0 0 0 
0 0 0 0 0 0 78 78 78 255 255 255 255 255 255 
255 255 255 255 255 255 78 78 78 0 0 0 0 0 0 
0 0 0 0 0 0 0 0 0 0 0 0 0 0 0 
0 0 0 0 0 0 0 0 0 0 0 0 233 233 233 
255 255 255 255 255 255 255 255 255 156 156 156 101 101 101 
101 101 101 156 156 156 255 255 255 255 255 255 255 255 255 
233 233 233 0 0 0 0 0 0 0 0 0 0 0 0 
0 0 0 0 0 0 0 0 0 0 0 0 0 0 0 
0 0 0 0 0 0 78 78 78 255 255 255 255 255 255 
255 255 255 255 255 255 78 78 78 0 0 0 0 0 0 
0 0 0 0 0 0 0 0 0 0 0 0 0 0 0 
0 0 0 0 0 0 0 0 0 0 0 0 0 0 0 
160 160 160 255 255 255 255 255 255 255 255 255 255 255 255 
255 255 255 255 255 255 255 255 255 255 255 255 160 160 160 
0 0 0 0 0 0 0 0 0 0 0 0 0 0 0 
0 0 0 0 0 0 0 0 0 0 0 0 0 0 0 
0 0 0 0 0 0 78 78 78 255 255 255 255 255 255 
255 255 255 255 255 255 78 78 78 0 0 0 0 0 0 
0 0 0 0 0 0 0 0 0 0 0 0 0 0 0 
0 0 0 0 0 0 0 0 0 0 0 0 0 0 0 
0 0 0 13 13 13 147 147 147 225 225 225 255 255 255 
255 255 255 226 226 226 142 142 142 11 11 11 0 0 0 
0 0 0 0 0 0 0 0 0 0 0 0 0 0 0 
0 0 0 0 0 0 0 0 0 0 0 0 0 0 0 
0 0 0 0 0 0 78 78 78 255 255 255 255 255 255 
255 255 255 255 255 255 78 78 78 0 0 0 0 0 0 
0 0 0 0 0 0 0 0 0 0 0 0 0 0 0 
0 0 0 0 0 0 0 0 0 0 0 0 0 0 0 
0 0 0 0 0 0 0 0 0 0 0 0 0 0 0 
0 0 0 0 0 0 0 0 0 0 0 0 0 0 0 
0 0 0 0 0 0 0 0 0 0 0 0 0 0 0 
0 0 0 0 0 0 0 0 0 0 0 0 0 0 0 
0 0 0 0 0 0 78 78 78 255 255 255 255 255 255 
255 255 255 255 255 255 62 62 62 0 0 0 0 0 0 
0 0 0 0 0 0 0 0 0 0 0 0 0 0 0 
0 0 0 0 0 0 0 0 0 0 0 0 0 0 0 
0 0 0 0 0 0 0 0 0 0 0 0 0 0 0 
0 0 0 0 0 0 0 0 0 0 0 0 0 0 0 
0 0 0 0 0 0 0 0 0 0 0 0 0 0 0 
0 0 0 0 0 0 0 0 0 0 0 0 0 0 0 
0 0 0 0 0 0 62 62 62 255 255 255 255 255 255 
255 255 255 255 255 255 222 222 222 206 206 206 208 208 208 
208 208 208 208 208 208 208 208 208 208 208 208 208 208 208 
208 208 208 208 208 208 208 208 208 208 208 208 208 208 208 
208 208 208 208 208 208 208 208 208 208 208 208 208 208 208 
208 208 208 208 208 208 208 208 208 208 208 208 208 208 208 
208 208 208 208 208 208 208 208 208 208 208 208 208 208 208 
208 208 208 208 208 208 208 208 208 208 208 208 208 208 208 
208 208 208 206 206 206 222 222 222 255 255 255 255 255 255 
255 255 255 255 255 255 255 255 255 255 255 255 255 255 255 
255 255 255 255 255 255 255 255 255 255 255 255 255 255 255 
255 255 255 255 255 255 255 255 255 255 255 255 255 255 255 
255 255 255 255 255 255 255 255 255 255 255 255 255 255 255 
255 255 255 255 255 255 255 255 255 255 255 255 255 255 255 
255 255 255 255 255 255 255 255 255 255 255 255 255 255 255 
255 255 255 255 255 255 255 255 255 255 255 255 255 255 255 
255 255 255 255 255 255 255 255 255 255 255 255 255 255 255 
155 155 155 155 155 155 155 155 155 155 155 155 155 155 155 
155 155 155 155 155 155 155 155 155 155 155 155 155 155 155 
155 155 155 155 155 155 155 155 155 155 155 155 155 155 155 
155 155 155 155 155 155 155 155 155 155 155 155 155 155 155 
155 155 155 155 155 155 155 155 155 155 155 155 155 155 155 
155 155 155 155 155 155 155 155 155 155 155 155 155 155 155 
155 155 155 155 155 155 155 155 155 155 155 155 155 155 155 
155 155 155 155 155 155 155 155 155 155 155 155 155 155 155 
0 0 0 0 0 0 0 0 0 0 0 0 0 0 0 
0 0 0 0 0 0 0 0 0 0 0 0 0 0 0 
0 0 0 0 0 0 0 0 0 0 0 0 0 0 0 
0 0 0 0 0 0 0 0 0 0 0 0 0 0 0 
0 0 0 0 0 0 0 0 0 0 0 0 0 0 0 
0 0 0 0 0 0 0 0 0 0 0 0 0 0 0 
0 0 0 0 0 0 0 0 0 0 0 0 0 0 0 
0 0 0 0 0 0 0 0 0 0 0 0 0 0 0 
0 0 0 0 0 0 0 0 0 0 0 0 0 0 0 
0 0 0 0 0 0 0 0 0 0 0 0 0 0 0 
0 0 0 0 0 0 0 0 0 0 0 0 0 0 0 
0 0 0 0 0 0 0 0 0 0 0 0 0 0 0 
0 0 0 0 0 0 0 0 0 0 0 0 0 0 0 
0 0 0 0 0 0 0 0 0 0 0 0 0 0 0 
0 0 0 0 0 0 0 0 0 0 0 0 0 0 0 
0 0 0 0 0 0 0 0 0 0 0 0 0 0 0 
